<svg id="Layer_1" data-name="Layer 1" xmlns="http://www.w3.org/2000/svg" viewBox="0 0 188.18 28.96"><defs><style>.cls-1{fill:#fff;}</style></defs><path class="cls-1" d="M45,16.21a9.92,9.92,0,0,1-.94-.44,24.16,24.16,0,0,0-2.54-.47c-.88-.09-1-.39-.71-1.21A22,22,0,0,0,42,7.51c-.56-.66-1.32-.36-2-.31-1.42.11-3.28,1-4.13.41S35.15,5,34.88,3.56s-1-1.69-2.36-1.06c-1.6.73-3.1,2.93-4.43,2.33S26.11,2,25,.6c-.72-.92-1.28-.7-2,.11a32.83,32.83,0,0,0-3.15,4.54L15.67,2.57C13.56,1.85,13.54,1.84,13,4a18,18,0,0,0-.56,2.91c-.08.92-.44,1-1.24.79a17.22,17.22,0,0,0-3.79-.6C6.3,7.05,5.9,7.35,6,8.47A20.35,20.35,0,0,0,7.14,14.1c.33.87.13,1.08-.74,1.2A20.7,20.7,0,0,0,.88,16.92c-1,.46-1.07.93-.53,1.82A20.92,20.92,0,0,0,9.12,26.8c4.53,2.23,9.19,3,14,.89a2.46,2.46,0,0,1,2.17.18,12.89,12.89,0,0,0,7.37.91A21,21,0,0,0,46.4,20.52C48.73,17.48,48.7,17.46,45,16.21ZM32.46,4.4c.24-.1.59-.43.76-.15A8.43,8.43,0,0,1,34,7.75c.08.76-.37,1-.93,1.24-1,.49-2.05,1-3.2,1.65-.09-.42-.13-.64-.19-.87C28.88,6.66,29.39,5.67,32.46,4.4ZM14.07,6.59c.58-2.83.11-3.08,2.86-1.32,2.28,1.46,2.26,1.49,1,5.29C16.83,10,15.7,9.41,14.56,8.87S13.92,7.32,14.07,6.59ZM2.43,19c-.35-.59-.42-.91.33-1.11.56-.15,1.1-.39,1.66-.54,3.37-.91,3.37-.91,5.34,2C12.13,22.77,13.75,24,20,27,14,28.24,5.65,24.45,2.43,19ZM16.3,23.5A19.59,19.59,0,0,1,7.76,10C7.56,8.9,8,8.74,9,8.9A20.16,20.16,0,0,1,17,12c.4.26.77.5.72,1.08-.39,4.38.42,8.44,3.53,12A8.24,8.24,0,0,1,16.3,23.5Zm5.32-.62A11.4,11.4,0,0,1,19.3,16.2,20.14,20.14,0,0,1,23,3.17c.81-1.18,1.25-.94,1.94.07a20.61,20.61,0,0,1,3.74,11.64c-.05,2.93-.53,5.75-2.44,8.06C24.13,25.55,23.9,25.65,21.62,22.88ZM30.26,14a2.23,2.23,0,0,1,1.23-2.37,21.25,21.25,0,0,1,7.7-2.76c.85-.13,1.18.09,1,1C39,16.37,35.9,21.53,29.76,24.49a6.13,6.13,0,0,1-3.27.66C29.68,21.86,30.45,18.06,30.26,14Zm14,6.51c-4.21,4.7-9.39,7.35-15.92,6.61a5.59,5.59,0,0,1-.75-.24,17.57,17.57,0,0,0,10.69-7.72c1.81-2.66,1.8-2.74,4.94-1.87C46.59,18.23,46.49,18,44.27,20.52Z"/><path class="cls-1" d="M76.71,3.61q.09.33.18.81c0,.33.1.73.15,1.22s.07,1.05.09,1.71,0,1.44,0,2.32v11L61.07,3.55h-1v.06q.09.33.18.81c0,.33.1.73.15,1.22s.07,1.05.09,1.71,0,1.44,0,2.32V19.85c0,.88,0,1.66,0,2.32s-.05,1.23-.09,1.71-.1.88-.15,1.2-.12.59-.18.81V26h2.78v-.07a7.48,7.48,0,0,1-.17-.81c-.06-.32-.1-.72-.14-1.2s-.08-1.05-.1-1.71,0-1.44,0-2.32V9.16l16.1,17.11h.54V9.67c0-.88,0-1.65,0-2.32s0-1.23.1-1.71.09-.89.14-1.22a7.48,7.48,0,0,1,.17-.81V3.55H76.71Z"/><path class="cls-1" d="M84,3.61a7.25,7.25,0,0,1,.18.81c0,.33.09.73.14,1.22s.07,1.05.09,1.71,0,1.44,0,2.32V19.85c0,.88,0,1.66,0,2.32s0,1.23-.09,1.71-.09.88-.14,1.2a7.25,7.25,0,0,1-.18.81V26h3.74v-.07q-.09-.33-.18-.81a10,10,0,0,1-.14-1.2c0-.48-.07-1.05-.1-1.71s0-1.44,0-2.32V9.67c0-.88,0-1.65,0-2.32s.06-1.23.1-1.71a10.38,10.38,0,0,1,.14-1.22q.09-.48.18-.81V3.55H84Z"/><path class="cls-1" d="M108.83,3.61a5.54,5.54,0,0,1,.18.81c.06.33.11.73.15,1.22s.07,1.05.1,1.71,0,1.44,0,2.32v11L93.19,3.55h-1v.06a7.25,7.25,0,0,1,.18.81c.06.33.11.73.15,1.22s.07,1.05.09,1.71,0,1.44,0,2.32V19.85c0,.88,0,1.66,0,2.32s0,1.23-.09,1.71-.09.88-.15,1.2a7.25,7.25,0,0,1-.18.81V26H95v-.07a7.48,7.48,0,0,1-.17-.81c0-.32-.1-.72-.14-1.2s-.07-1.05-.09-1.71,0-1.44,0-2.32V9.16l16.09,17.11h.55V9.67c0-.88,0-1.65,0-2.32s.05-1.23.09-1.71.09-.89.14-1.22a7.48,7.48,0,0,1,.17-.81V3.55h-2.78Z"/><path class="cls-1" d="M122.65,24.42a32.41,32.41,0,0,1-3.39.16v-9.8c.69,0,1.42,0,2.18.09s1.47.12,2.11.19l2.21.27.48-2.27c-.54.09-1.17.16-1.88.22s-1.33.11-2.2.16-1.83.08-2.9.09V5l1.14-.06,1-.05.9,0a18.88,18.88,0,0,1,2,.09c.57.06,1,.11,1.45.18a9.27,9.27,0,0,1,1.2.25l.77-2.08a13.19,13.19,0,0,1-1.55.12c-.76,0-1.68.06-2.75.07l-3.54,0-3.88,0v.06q.09.33.18.81c0,.33.1.73.15,1.22s.07,1.05.09,1.71,0,1.44,0,2.32V19.85c0,.88,0,1.66,0,2.32s0,1.23-.09,1.71-.1.88-.15,1.2-.12.59-.18.81V26h7.26l.8,0h1l1,0,.84,0,.56,0,.45-2.53a23.35,23.35,0,0,1-2.45.51Q124.2,24.27,122.65,24.42Z"/><path class="cls-1" d="M147.91,3.61a1,1,0,0,1,.06.2,1.39,1.39,0,0,1,0,.32,3.77,3.77,0,0,1-.27,1.39c-.18.46-.34.88-.5,1.26l-6.69,15.49L133.63,6.66a8.92,8.92,0,0,1-.51-1.46A4.79,4.79,0,0,1,133,4.13a1.37,1.37,0,0,1,0-.28.65.65,0,0,1,0-.24V3.55h-4.28v.06c0,.06.15.21.3.44s.31.51.5.85.39.72.6,1.13.42.85.62,1.3l8.48,19.11h1.25l8.95-19.88c.34-.75.64-1.37.93-1.89a5.39,5.39,0,0,1,.71-1.06V3.55h-3.2Z"/><path class="cls-1" d="M159.4,24.42a32.41,32.41,0,0,1-3.39.16v-9.8c.69,0,1.42,0,2.18.09s1.47.12,2.11.19l2.21.27.48-2.27c-.54.09-1.17.16-1.88.22s-1.33.11-2.2.16-1.83.08-2.9.09V5l1.14-.06,1-.05.9,0A18.88,18.88,0,0,1,161,5c.57.06,1.05.11,1.45.18a9.27,9.27,0,0,1,1.2.25l.77-2.08a13.19,13.19,0,0,1-1.55.12c-.76,0-1.68.06-2.75.07l-3.54,0-3.88,0v.06q.09.33.18.81c.05.33.1.73.15,1.22s.07,1.05.09,1.71,0,1.44,0,2.32V19.85c0,.88,0,1.66,0,2.32s0,1.23-.09,1.71-.1.88-.15,1.2-.12.59-.18.81V26H160l.8,0h1l1,0,.84,0,.56,0,.45-2.53a23.35,23.35,0,0,1-2.45.51Q160.95,24.27,159.4,24.42Z"/><path class="cls-1" d="M187.88,25.46c-.15-.23-.31-.51-.5-.85s-.39-.71-.6-1.13-.42-.86-.62-1.31L177.68,3.08h-1.25l-9,19.86c-.33.76-.64,1.39-.92,1.9a5.3,5.3,0,0,1-.7,1.05V26H169v-.07a.39.39,0,0,1-.07-.18,1.48,1.48,0,0,1,0-.33,3.77,3.77,0,0,1,.27-1.39c.17-.46.34-.88.5-1.27l1.8-4.12c.61,0,1.3,0,2.07,0h5.52c1,0,1.74,0,2.33,0l1.89,4.25a8.92,8.92,0,0,1,.51,1.46,5.45,5.45,0,0,1,.13,1.07c0,.08,0,.18,0,.28a1,1,0,0,1,0,.23V26h4.28v-.07A3.62,3.62,0,0,1,187.88,25.46Zm-8.62-8.28-1.76,0h-5.42l4.32-10,4.39,9.92Z"/></svg>