<?xml version="1.0" standalone="no"?>
<!DOCTYPE svg PUBLIC "-//W3C//DTD SVG 1.1//EN" "http://www.w3.org/Graphics/SVG/1.1/DTD/svg11.dtd" >
<svg xmlns="http://www.w3.org/2000/svg" xmlns:xlink="http://www.w3.org/1999/xlink" version="1.1">
<metadata>
Created by FontForge 20170731 at Fri Jan 18 09:00:58 2019
 By Aleksey,,,
Copyright (c) 2018 by Piotr apa. All rights reserved. Desktop use is strictly prohibited.
</metadata>
<defs>
<font id="" horiz-adv-x="0" >
  <font-face 
    font-family=""
    font-weight="600"
    font-stretch="normal"
    units-per-em="2048"
    panose-1="0 0 7 0 0 0 0 0 0 0"
    ascent="1577"
    descent="-471"
    x-height="1030"
    cap-height="1434"
    bbox="-774 -514 2617 1939"
    underline-thickness="0"
    underline-position="0"
    unicode-range="U+0020-FB02"
  />
<missing-glyph horiz-adv-x="1024" 
d="M840 -471h-650v2048h650v-2048zM344 1440v-68h133v-76h-135v-67h340v67h-135v76h135v68h-338zM342 1176v-213h340v69h-135v144h-205zM477 1032h-67v74h67v-74zM342 907v-67h135v-76h-135v-68h205v144h135v67h-340zM614 784v-135h-272v-69h340v204h-68zM477 535v-115h70
v47h67v-96h-204v164h-68v-232h340v232h-205zM342 180v-231h340v231h-340zM614 16h-204v97h204v-97zM342 -98v-68h143l-143 -96v-68h340v68h-209l143 96h66v68h-340z" />
    <glyph glyph-name="uniFB01" unicode="fi" horiz-adv-x="1292" 
d="M1124 106l133 -90v-16h-532v16l133 90v818l-94 63h-305v-881l164 -90v-16h-564v16l134 90v881h-154v43h154v14q0 428 458 429q168 0 393 -62l-106 -272h-16l-140 274q-66 16 -108 17q-92 0 -153.5 -73t-61.5 -210v-117h665v-924z" />
    <glyph glyph-name="uniFB02" unicode="fl" horiz-adv-x="1308" 
d="M1139 106l133 -90v-16h-533v16l133 90v1145q0 76 -57 125t-139 49q-100 0 -158.5 -60t-58.5 -181v-154h291v-43h-291v-881l174 -90v-16h-574v16l134 90v881h-154v43h154v29q0 414 442 414q154 0 283 -76l204 63h17v-1354z" />
    <glyph glyph-name="f_f.liga" unicode="ff" horiz-adv-x="1384" 
d="M1266 1430q-129 0 -129 -195v-205h319v-43h-319v-881l184 -90v-16h-584v16l133 90v881h-411v-881l174 -90v-16h-574v16l134 90v881h-154v43h154v8q0 414 438 414q180 0 311 -106q92 127 303 127q139 0 320 -56l-105 -274h-16l-121 278q-41 9 -57 9zM870 1030v35
q0 41 2 59v80q0 90 -58 145.5t-146 55.5q-209 0 -209 -277v-98h411z" />
    <glyph glyph-name="f_f_i.liga" unicode="ffi" horiz-adv-x="1970" 
d="M1802 106l133 -90v-16h-532v16l133 90v818l-94 63h-305v-881l163 -90v-16h-563v16l133 90v881h-411v-881l174 -90v-16h-574v16l134 90v881h-154v43h154v8q0 414 438 414q188 0 325 -117q115 137 373 138q170 0 393 -62l-106 -272h-17l-139 274q-66 16 -108 17
q-92 0 -153.5 -73t-61.5 -210v-117h665v-924zM870 1030v14q0 37 2 56v104q0 90 -58 145.5t-146 55.5q-209 0 -209 -277v-98h411z" />
    <glyph glyph-name="f_f_l.liga" unicode="ffl" horiz-adv-x="1986" 
d="M1817 106l133 -90v-16h-533v16l133 90v1145q0 76 -57 125t-139 49q-100 0 -158.5 -60t-58.5 -181v-154h290v-43h-290v-881l174 -90v-16h-574v16l133 90v881h-411v-881l174 -90v-16h-574v16l134 90v881h-154v43h154v8q0 414 438 414q188 0 321 -115q109 135 361 136
q154 0 282 -76l205 63h17v-1354zM870 1030v29q0 37 2 53v92q0 90 -58 145.5t-146 55.5q-209 0 -209 -277v-98h411z" />
    <glyph glyph-name=".notdef" horiz-adv-x="1024" 
d="M840 -471h-650v2048h650v-2048zM344 1440v-68h133v-76h-135v-67h340v67h-135v76h135v68h-338zM342 1176v-213h340v69h-135v144h-205zM477 1032h-67v74h67v-74zM342 907v-67h135v-76h-135v-68h205v144h135v67h-340zM614 784v-135h-272v-69h340v204h-68zM477 535v-115h70
v47h67v-96h-204v164h-68v-232h340v232h-205zM342 180v-231h340v231h-340zM614 16h-204v97h204v-97zM342 -98v-68h143l-143 -96v-68h340v68h-209l143 96h66v68h-340z" />
    <glyph glyph-name="glyph1" 
 />
    <glyph glyph-name="glyph2" horiz-adv-x="681" 
 />
    <glyph glyph-name="space" unicode=" " horiz-adv-x="518" 
 />
    <glyph glyph-name="exclam" unicode="!" horiz-adv-x="581" 
d="M131 1434h322v-17l-125 -946h-72l-125 946v17zM291 315l178 -174l-178 -176l-176 176z" />
    <glyph glyph-name="quotedbl" unicode="&#x22;" horiz-adv-x="753" 
d="M92 1434h246v-17l-115 -497h-16l-115 497v17zM416 1434h246v-17l-115 -497h-17l-114 497v17z" />
    <glyph glyph-name="numbersign" unicode="#" horiz-adv-x="1292" 
d="M1208 909h-241l-99 -456h254l-8 -47h-256l-88 -406h-49l88 406h-438l-88 -406h-50l89 406h-244l10 47h244l98 456h-256l8 47h258l92 426h50l-93 -426h439l92 426h49l-92 -426h240zM819 453l99 456h-439l-98 -456h438z" />
    <glyph glyph-name="dollar" unicode="$" horiz-adv-x="1282" 
d="M1204 436q0 -209 -152.5 -330.5t-383.5 -134.5v-227h-50v227q-213 4 -536 97l86 417l18 -4l215 -426q104 -37 205 -37h12v598l-169 58q-338 115 -338 397q0 184 143 286.5t364 104.5v228h50v-228q205 -8 473 -86l-84 -383h-17l-198 389q-84 29 -174 33v-522l153 -53
q193 -66 288 -163.5t95 -240.5zM543 936l75 -27v506q-133 -6 -213.5 -72.5t-80.5 -168.5q0 -86 50 -141.5t169 -96.5zM668 23q141 14 221 93t80 195q0 100 -56.5 162t-181.5 105l-63 22v-577z" />
    <glyph glyph-name="percent" unicode="%" horiz-adv-x="1886" 
d="M485 606q-174 0 -273 114t-99 312.5t99 312t273 113.5t273.5 -113.5t99.5 -312t-99.5 -312.5t-273.5 -114zM1368 1434h57l-905 -1434h-57zM485.5 645q153.5 0 153.5 387t-153.5 387t-153.5 -387t153.5 -387zM1401 -25q-174 0 -273.5 114t-99.5 312.5t99.5 312
t273.5 113.5t273.5 -113.5t99.5 -312t-99.5 -312.5t-273.5 -114zM1400.5 14q153.5 0 153.5 387t-153.5 387t-153.5 -387t153.5 -387z" />
    <glyph glyph-name="ampersand" unicode="&#x26;" horiz-adv-x="1605" 
d="M1194 414l391 -398v-16h-344l-197 199q-174 -225 -458 -226q-225 0 -356.5 108.5t-131.5 291.5q0 154 107.5 255t286.5 130l-15 14q-88 88 -134 170t-46 184q0 158 110.5 245t297.5 87q197 0 438 -104l-154 -320h-16l-146 357q-61 20 -104 20q-76 0 -125 -54t-49 -138
q0 -88 43 -164t135 -170l428 -432q49 92 80 196l-135 180v17h452v-17l-270 -184q-31 -110 -88 -231zM676 70q184 0 334 163l-480 484q-180 -102 -180 -320q0 -139 88 -233t238 -94z" />
    <glyph glyph-name="quotesingle" unicode="'" horiz-adv-x="430" 
d="M92 1434h246v-17l-115 -497h-16l-115 497v17z" />
    <glyph glyph-name="parenleft" unicode="(" horiz-adv-x="704" 
d="M657 1530q-160 -147 -225 -348t-65 -557.5t65.5 -557t224.5 -348.5l-12 -16q-268 152 -400 377t-132 544.5t132 545t400 376.5z" />
    <glyph glyph-name="parenright" unicode=")" horiz-adv-x="704" 
d="M47 1530l12 16q268 -152 400.5 -377t132.5 -544.5t-132 -544.5t-401 -377l-12 16q160 147 225.5 348t65.5 557.5t-65.5 557.5t-225.5 348z" />
    <glyph glyph-name="asterisk" unicode="*" horiz-adv-x="774" 
d="M702 1235l-286 -88l286 -88l-79 -141l-220 202l66 -291h-162l66 293l-219 -204l-82 141l288 88l-288 88l82 141l219 -205l-66 293h162l-66 -293l220 205z" />
    <glyph glyph-name="plus" unicode="+" horiz-adv-x="1169" 
d="M1026 698v-47h-414v-415h-49v415h-420v47h420v418h49v-418h414z" />
    <glyph glyph-name="comma" unicode="," horiz-adv-x="559" 
d="M109 141l170 174l79 -82q84 -84 84 -176t-78.5 -176t-242.5 -194l-19 18q135 127 136 236q0 68 -74 143z" />
    <glyph glyph-name="hyphen" unicode="-" horiz-adv-x="983" 
d="M129 641h727v-47h-727v47z" />
    <glyph glyph-name="period" unicode="." horiz-adv-x="563" 
d="M281 317l180 -176l-180 -178l-179 178z" />
    <glyph glyph-name="slash" unicode="/" horiz-adv-x="997" 
d="M879 1618h53l-811 -1804h-53z" />
    <glyph glyph-name="zero" unicode="0" horiz-adv-x="1357" 
d="M680 -25q-274 0 -433 190.5t-159 551t159 551t433 190.5t433 -190.5t159 -551t-159 -551t-433 -190.5zM680 23q297 0 297 694t-297 694q-299 0 -299 -694t299 -694z" />
    <glyph glyph-name="one" unicode="1" horiz-adv-x="825" 
d="M88 1296l465 179h16v-1342l195 -117v-16h-655v16l194 117v1108l-215 39v16z" />
    <glyph glyph-name="two" unicode="2" horiz-adv-x="1142" 
d="M37 0v16q86 109 185.5 232t133.5 170q207 258 299.5 422t92.5 288q0 135 -59.5 209t-151.5 74q-57 0 -129 -20l-189 -383h-16l-123 335q268 115 487 115q213 0 343 -101.5t130 -279.5q0 -180 -164.5 -360t-490.5 -412l-127 -84h649l131 178h17v-399h-1018z" />
    <glyph glyph-name="three" unicode="3" horiz-adv-x="1185" 
d="M92 1346q283 113 500 112q207 0 332 -94t125 -250q0 -137 -96.5 -227t-264.5 -121q186 -18 306 -111.5t120 -251.5q0 -199 -149.5 -313.5t-409.5 -114.5q-201 0 -487 95l120 354h17l180 -381q61 -18 133 -18q135 0 219 99t84 259q0 176 -108.5 266t-292.5 94l-2 23
q158 16 252 105.5t94 246.5q0 139 -67.5 216t-157.5 77q-59 0 -129 -16l-179 -379h-16z" />
    <glyph glyph-name="four" unicode="4" horiz-adv-x="1171" 
d="M1141 406h-223v-273l174 -117v-16h-615v16l174 117v273h-628v16q299 492 544 1012h334v-17q-297 -473 -782 -964h532v329h267v-329h223v-47z" />
    <glyph glyph-name="five" unicode="5" horiz-adv-x="1177" 
d="M72 68l116 356h17l174 -381q61 -20 127 -20q135 0 221 107.5t86 281.5q0 178 -99.5 276t-264.5 98q-147 0 -281 -69l-16 10l51 707h839l-16 -105q-16 -115 -143 -115h-650l-28 -434q190 109 407 109q219 0 355.5 -109.5t136.5 -324.5q0 -217 -151.5 -348.5t-415.5 -131.5
q-193 1 -465 93z" />
    <glyph glyph-name="six" unicode="6" horiz-adv-x="1280" 
d="M745 887q190 0 323.5 -107.5t133.5 -310.5q0 -213 -147.5 -353.5t-397.5 -140.5q-266 0 -417.5 184.5t-151.5 536.5q0 365 183.5 563.5t455.5 198.5q180 0 416 -72l-127 -331h-17l-155 340q-66 16 -127 16q-147 0 -240.5 -157.5t-97.5 -512.5q159 146 366 146zM653 23
q121 0 195 108.5t74 294.5q0 373 -304 373q-135 0 -239 -101q2 -675 274 -675z" />
    <glyph glyph-name="seven" unicode="7" horiz-adv-x="1062" 
d="M57 1036v398h1002v-17l-96 -209q-205 -502 -400 -1208h-321v16q348 766 671 1192h-723l-116 -172h-17z" />
    <glyph glyph-name="eight" unicode="8" horiz-adv-x="1222" 
d="M870 776q143 -84 215 -172t72 -209q0 -190 -154.5 -305t-398.5 -115q-223 0 -371.5 100.5t-148.5 274.5q0 135 97.5 227.5t256.5 137.5l-61 37q-242 141 -242 352q0 156 137.5 255t345.5 99q197 0 326 -88t129 -231q0 -113 -85 -189t-226 -112zM375 1212q0 -154 200 -268
l146 -84q154 106 153 264q0 129 -75.5 208t-190.5 79q-104 0 -168.5 -58.5t-64.5 -140.5zM618 23q133 0 210 73.5t77 179.5q0 168 -205 285l-219 129q-182 -131 -182 -328q0 -147 88 -243t231 -96z" />
    <glyph glyph-name="nine" unicode="9" horiz-adv-x="1265" 
d="M614 1458q268 0 417 -182t149 -543q0 -367 -175.5 -562.5t-445.5 -195.5q-174 0 -418 70l117 352h16l164 -356q57 -18 117 -18q326 0 332 682q-156 -137 -361 -138q-184 0 -316 110.5t-132 311.5q0 207 144 338t392 131zM358 1018q0 -362 295 -363q129 0 234 95
q-2 360 -70.5 510.5t-198.5 150.5q-117 0 -188.5 -104.5t-71.5 -288.5z" />
    <glyph glyph-name="colon" unicode=":" horiz-adv-x="563" 
d="M281 1067l180 -176l-180 -178l-179 178zM281 317l180 -176l-180 -178l-179 178z" />
    <glyph glyph-name="semicolon" unicode=";" horiz-adv-x="583" 
d="M287 1067l178 -176l-178 -178l-178 178zM113 141l170 174l79 -82q84 -84 84 -176t-78.5 -176t-242.5 -194l-19 18q135 127 136 236q0 68 -74 143z" />
    <glyph glyph-name="less" unicode="&#x3c;" horiz-adv-x="1157" 
d="M102 662v26l881 422v-53l-801 -381l801 -385v-53z" />
    <glyph glyph-name="equal" unicode="=" horiz-adv-x="1167" 
d="M143 893h881v-47h-881v47zM143 504h881v-47h-881v47z" />
    <glyph glyph-name="greater" unicode="&#x3e;" horiz-adv-x="1157" 
d="M1055 662l-881 -424v53l801 385l-801 381v53l881 -422v-26z" />
    <glyph glyph-name="question" unicode="?" horiz-adv-x="987" 
d="M6 1343q268 115 492 115q211 0 338 -97t127 -261q0 -160 -119 -264.5t-336 -167.5l-49 -205h-72l-82 246q168 31 272.5 131t104.5 264q0 143 -66.5 224t-160.5 81q-66 0 -127 -16l-172 -377h-17zM424 315l178 -174l-178 -176l-176 176z" />
    <glyph glyph-name="at" unicode="@" horiz-adv-x="2048" 
d="M113 475q0 420 281.5 689.5t695.5 269.5q381 0 613 -222.5t232 -535.5q0 -311 -136 -468t-363 -157q-129 0 -201 62.5t-70 185.5q-106 -250 -317 -250q-150 0 -230.5 100.5t-80.5 280.5q0 246 133 408.5t340 162.5q133 0 233 -96l244 92h16l-84 -594q-20 -145 4.5 -215.5
t116.5 -70.5q139 0 242.5 144.5t103.5 414.5q0 293 -218 503t-576 210q-393 0 -661.5 -256t-268.5 -658q0 -365 227 -592t590 -227q338 0 543 164l26 -35q-221 -174 -571 -174q-385 0 -624.5 241.5t-239.5 622.5zM799 397q0 -252 131 -252q135 0 233 250l72 469
q-72 57 -152 58q-127 0 -205.5 -159t-78.5 -366z" />
    <glyph glyph-name="A" unicode="A" horiz-adv-x="1431" 
d="M1321 141l127 -125v-16h-565v16l147 107l-158 412h-550l-111 -283l203 -236v-16h-445v16l193 242l411 1051l-137 108v17h383zM340 582h514l-254 665z" />
    <glyph glyph-name="B" unicode="B" horiz-adv-x="1441" 
d="M952 762q190 -18 304 -106.5t114 -247.5q0 -193 -148.5 -300.5t-414.5 -107.5h-748v16l154 107v1188l-154 106v17h717q240 0 376 -89.5t136 -246.5q0 -139 -90 -226t-246 -110zM496 1386v-614h202q145 0 221 80t76 235q0 143 -83 221t-226 78h-190zM700 47
q180 0 272.5 90t92.5 258q0 166 -95.5 248t-264.5 82h-209v-678h204z" />
    <glyph glyph-name="C" unicode="C" horiz-adv-x="1447" 
d="M1214 969l-188 413q-88 35 -190 35q-174 0 -311.5 -179t-137.5 -480q0 -332 140.5 -536t330.5 -204q80 0 150 23l331 418l19 -4l-45 -412q-248 -72 -486 -72q-322 0 -535.5 202t-213.5 538q0 350 217 550.5t520 200.5q262 0 533 -98l-117 -395h-17z" />
    <glyph glyph-name="D" unicode="D" horiz-adv-x="1572" 
d="M59 0v16l154 107v1188l-154 106v17h693q332 0 537.5 -186.5t205.5 -508.5q0 -334 -196.5 -536.5t-522.5 -202.5h-717zM496 47h213q477 0 477 662q0 336 -127 506.5t-365 170.5h-198v-1339z" />
    <glyph glyph-name="E" unicode="E" horiz-adv-x="1368" 
d="M59 0v16l154 107v1188l-154 106v17h1178v-383h-16l-256 335h-469v-624h288l177 190h16v-430h-16l-177 193h-288v-668h499l265 369h16v-416h-1217z" />
    <glyph glyph-name="F" unicode="F" horiz-adv-x="1273" 
d="M59 0v16l154 107v1188l-154 106v17h1168v-383h-17l-256 335h-458v-655h305l176 191h18v-430h-18l-176 192h-305v-561l204 -107v-16h-641z" />
    <glyph glyph-name="G" unicode="G" horiz-adv-x="1531" 
d="M78 711q0 348 220 549.5t525 201.5q279 0 572 -102l-117 -385h-16l-197 399q-109 41 -217 41q-190 0 -324.5 -177t-134.5 -495q0 -336 133 -527t324 -191q90 0 156.5 36.5t97.5 92.5v409l-195 107v16h606v-16l-143 -107v-592h-16l-209 99q-145 -98 -348 -99
q-303 0 -510 203t-207 537z" />
    <glyph glyph-name="H" unicode="H" horiz-adv-x="1646" 
d="M59 0v16l154 107v1188l-154 106v17h590v-17l-153 -106v-549h657v549l-154 106v17h590v-17l-153 -106v-1188l153 -107v-16h-590v16l154 107v592h-657v-592l153 -107v-16h-590z" />
    <glyph glyph-name="I" unicode="I" horiz-adv-x="706" 
d="M59 0v16l154 107v1188l-154 106v17h590v-17l-153 -106v-1188l153 -107v-16h-590z" />
    <glyph glyph-name="J" unicode="J" horiz-adv-x="1142" 
d="M1110 1434v-17l-143 -106v-901q0 -213 -127 -326t-357 -113q-190 0 -426 97l66 368h16l217 -399q53 -18 103 -19q121 0 173 89.5t52 316.5v887l-195 106v17h621z" />
    <glyph glyph-name="K" unicode="K" horiz-adv-x="1507" 
d="M1374 139l162 -123v-16h-584v16l99 105l-420 584l-135 -130v-452l163 -107v-16h-600v16l154 107v1188l-154 106v17h590v-17l-153 -106v-668l626 596l-194 178v17h545v-21l-310 -201l-334 -317z" />
    <glyph glyph-name="L" unicode="L" horiz-adv-x="1286" 
d="M59 0v16l154 107v1188l-154 106v17h590v-17l-153 -106v-1264h430l288 391h17v-438h-1172z" />
    <glyph glyph-name="M" unicode="M" horiz-adv-x="1802" 
d="M20 0v16l199 207v1082l-168 112v17h420l459 -842l407 842h406v-17l-154 -106v-1188l154 -107v-16h-590v16l154 107v1132l-471 -981h-48l-520 955v-1006l230 -207v-16h-478z" />
    <glyph glyph-name="N" unicode="N" horiz-adv-x="1521" 
d="M37 0v16l199 207v1069l-189 125v17h432l783 -1129v907l-230 205v17h477v-17l-198 -205v-1212h-174l-852 1235v-1012l229 -207v-16h-477z" />
    <glyph glyph-name="O" unicode="O" horiz-adv-x="1628" 
d="M815 -29q-330 0 -533.5 207t-203.5 539q0 334 203.5 539.5t533.5 205.5t533.5 -205.5t203.5 -539.5q0 -332 -204.5 -539t-532.5 -207zM815.5 18q194.5 0 309 176.5t114.5 522.5t-114.5 522t-309 176t-309.5 -176t-115 -522t115 -522.5t309.5 -176.5z" />
    <glyph glyph-name="P" unicode="P" horiz-adv-x="1361" 
d="M760 1434q256 0 405.5 -115t149.5 -315q0 -215 -151.5 -340t-407.5 -125h-260v-416l204 -107v-16h-641v16l154 107v1188l-154 106v17h701zM676 586q158 0 249 105.5t91 303.5q0 182 -96.5 286.5t-245.5 104.5h-178v-800h180z" />
    <glyph glyph-name="Q" unicode="Q" horiz-adv-x="1628" 
d="M1583 -197l-270 -182l-570 352q-301 25 -483 227.5t-182 516.5q0 334 203.5 539.5t533.5 205.5t533.5 -205.5t203.5 -539.5q0 -305 -174 -506t-460 -234zM391 717q0 -346 115 -522.5t309.5 -176.5t309 176.5t114.5 522.5t-114.5 522t-309 176t-309.5 -176t-115 -522z" />
    <glyph glyph-name="R" unicode="R" horiz-adv-x="1441" 
d="M59 0v16l154 107v1188l-154 106v17h695q256 0 397 -96.5t141 -276.5q0 -160 -118.5 -264.5t-323.5 -124.5l168 -39l305 -508l141 -109v-16h-385l-374 655h-209v-532l153 -107v-16h-590zM496 702h188q145 0 228 91.5t83 255.5q0 160 -90 248.5t-231 88.5h-178v-684z" />
    <glyph glyph-name="S" unicode="S" horiz-adv-x="1282" 
d="M82 68l86 417l18 -4l215 -426q104 -37 205 -37q168 0 265.5 82t97.5 211q0 100 -56.5 162t-181.5 105l-282 96q-338 115 -338 397q0 186 146 288.5t370 102.5q217 0 514 -86l-84 -383h-17l-198 389q-96 33 -199 33q-141 0 -230 -67.5t-89 -173.5q0 -86 50 -141.5
t169 -96.5l278 -96q193 -66 288 -163t95 -241q0 -217 -166 -341t-411 -124q-213 1 -545 97z" />
    <glyph glyph-name="T" unicode="T" horiz-adv-x="1337" 
d="M43 993v441h1253v-441h-16l-238 393h-231v-1263l154 -107v-16h-590v16l153 107v1263h-233l-236 -393h-16z" />
    <glyph glyph-name="U" unicode="U" horiz-adv-x="1476" 
d="M23 1417v17h589v-17l-153 -106v-774q0 -213 100 -334t292.5 -121t293 132t100.5 351v617l-211 235v17h461v-17l-201 -235v-617q0 -272 -139 -433t-405 -161q-270 0 -422 146.5t-152 404.5v789z" />
    <glyph glyph-name="V" unicode="V" horiz-adv-x="1406" 
d="M-18 1417v17h567v-17l-148 -106l428 -1108l379 981l-202 233v17h442v-17l-191 -239l-452 -1178h-189l-507 1294z" />
    <glyph glyph-name="W" unicode="W" horiz-adv-x="2074" 
d="M1673 1434h443v-17l-193 -239l-379 -1178h-188l-301 891l-299 -891h-191l-456 1294l-127 123v17h565v-17l-150 -106l383 -1088l250 744l-110 327l-125 123v17h561v-17l-148 -106l359 -1082l307 955l-201 233v17z" />
    <glyph glyph-name="X" unicode="X" horiz-adv-x="1468" 
d="M1325 131l143 -115v-16h-614v16l147 99l-358 512l-348 -434l178 -177v-16h-463v16l228 181l376 471l-446 637l-143 112v17h614v-17l-147 -96l327 -467l307 385l-184 178v17h473v-17l-223 -174l-346 -428z" />
    <glyph glyph-name="Y" unicode="Y" horiz-adv-x="1363" 
d="M954 1434h451v-17l-219 -227l-352 -569v-498l143 -107v-16h-569v16l143 107v461l-428 710l-143 123v17h585v-17l-129 -106l375 -635l319 520l-176 221v17z" />
    <glyph glyph-name="Z" unicode="Z" horiz-adv-x="1341" 
d="M39 0v47l893 1339h-543l-258 -368h-16v416h1145v-48l-893 -1339h606l274 414h17v-461h-1225z" />
    <glyph glyph-name="bracketleft" unicode="[" horiz-adv-x="749" 
d="M184 -276v1802h504v-47h-276v-1708h276v-47h-504z" />
    <glyph glyph-name="backslash" unicode="\" horiz-adv-x="997" 
d="M121 1618l811 -1804h-53l-811 1804h53z" />
    <glyph glyph-name="bracketright" unicode="]" horiz-adv-x="749" 
d="M565 -276h-504v47h277v1708h-277v47h504v-1802z" />
    <glyph glyph-name="asciicircum" unicode="^" horiz-adv-x="978" 
d="M78 817l364 645h93l368 -645l-18 -16l-396 446l-393 -446z" />
    <glyph glyph-name="underscore" unicode="_" horiz-adv-x="1167" 
d="M37 -160h1096v-47h-1096v47z" />
    <glyph glyph-name="grave" unicode="`" horiz-adv-x="561" 
d="M367 1454l133 -332h-17l-422 316v16h306z" />
    <glyph glyph-name="a" unicode="a" horiz-adv-x="1148" 
d="M1116 141l25 -12q-59 -154 -217 -154q-90 0 -141.5 46.5t-59.5 117.5q-135 -164 -334 -164q-68 0 -134.5 21.5t-124.5 90.5t-58 175q0 231 315 324q135 35 334 78v161q0 96 -38 141.5t-124 45.5q-61 0 -125 -23l-182 -315h-16l-109 289q229 92 475 92q195 0 290 -78
t95 -205v-579q0 -106 55 -107q41 0 74 55zM526 86q104 0 195 104v441q-78 -23 -201 -66q-178 -66 -178 -258q0 -102 53 -161.5t131 -59.5z" />
    <glyph glyph-name="b" unicode="b" horiz-adv-x="1216" 
d="M731 1055q176 0 300 -133.5t124 -389.5q0 -260 -143.5 -408.5t-335.5 -148.5q-174 0 -279 119l-237 -119h-17v1342l-133 100v17h400v-539q116 160 321 160zM580 63q131 0 211.5 112t80.5 341q0 219 -70.5 324.5t-195.5 105.5q-119 0 -196 -98v-717q72 -68 170 -68z" />
    <glyph glyph-name="c" unicode="c" horiz-adv-x="1073" 
d="M874 655l-145 340q-51 16 -102 17q-115 0 -197 -116t-82 -333q0 -197 97.5 -316.5t244.5 -119.5q207 0 309 195l33 -13q-45 -150 -160.5 -242t-293.5 -92q-227 0 -372 145.5t-145 385.5q0 250 157 399.5t398 149.5q203 0 392 -80l-117 -320h-17z" />
    <glyph glyph-name="d" unicode="d" horiz-adv-x="1243" 
d="M1073 106l133 -90v-16h-358l-39 143q-115 -168 -324 -168q-178 0 -301 133.5t-123 391.5q0 260 140.5 407.5t326.5 147.5q174 0 279 -129v409l-154 82v17h420v-1328zM610 88q119 0 197 100v680q-76 96 -180 97q-127 0 -205 -111t-78 -340q0 -217 71.5 -321.5
t194.5 -104.5z" />
    <glyph glyph-name="e" unicode="e" horiz-adv-x="1120" 
d="M346 526q6 -186 100.5 -291.5t243.5 -105.5q229 0 338 199l33 -13q-49 -152 -170 -246t-307 -94q-227 0 -375 145.5t-148 379.5q0 258 147.5 406.5t385.5 148.5q219 0 346 -124t127 -356v-49h-721zM346 569h457v27q0 225 -52.5 321.5t-158.5 96.5q-109 0 -176.5 -114
t-69.5 -331z" />
    <glyph glyph-name="f" unicode="f" horiz-adv-x="706" 
d="M588 1430q-129 0 -129 -195v-205h319v-43h-319v-881l184 -90v-16h-584v16l134 90v881h-154v43h154v35q0 408 374 408q137 0 320 -56l-105 -274h-16l-121 278q-41 9 -57 9z" />
    <glyph glyph-name="g" unicode="g" horiz-adv-x="1165" 
d="M754 197q381 -2 381 -265q0 -168 -172 -257t-439 -89q-514 0 -514 230q0 72 56.5 124t152.5 74q-119 47 -119 164q0 133 197 225q-186 94 -186 293q0 160 125.5 259.5t328.5 99.5q125 0 234 -43l307 180h16v-217h-256q154 -100 154 -279q0 -158 -127 -255t-328 -97
q-127 0 -227 41q-55 -41 -55 -94q0 -92 127 -92zM565.5 1012q-188.5 0 -188.5 -316q0 -309 188.5 -309t188.5 309q0 316 -188.5 316zM563 -371q172 0 268.5 56.5t96.5 152.5q0 145 -207 146l-342 4q-43 0 -80 6q-96 -49 -96 -150q0 -102 91 -158.5t269 -56.5z" />
    <glyph glyph-name="h" unicode="h" horiz-adv-x="1286" 
d="M1126 106l134 -90v-16h-533v16l133 90v615q0 221 -186 221q-137 0 -238 -121v-715l133 -90v-16h-532v16l133 90v1211l-133 100v17h399v-560q145 180 369 181q156 0 238.5 -86t82.5 -246v-617z" />
    <glyph glyph-name="i" unicode="i" horiz-adv-x="620" 
d="M309 1507l172 -170l-172 -170l-170 170zM51 0v16l133 90v818l-133 90v16h400v-924l133 -90v-16h-533z" />
    <glyph glyph-name="j" unicode="j" horiz-adv-x="604" 
d="M469 1337l-172 -168l-168 168l168 168zM41 1014v16h399v-1010q-4 -209 -112.5 -321.5t-327.5 -112.5v29q94 12 134 84t40 242v983z" />
    <glyph glyph-name="k" unicode="k" horiz-adv-x="1224" 
d="M1112 119l129 -103v-16h-508v16l74 88l-289 420l-82 -67v-351l144 -90v-16h-543v16l133 90v1211l-133 100v17h399v-922l412 334l-111 168v16h439v-16l-256 -166l-199 -160z" />
    <glyph glyph-name="l" unicode="l" horiz-adv-x="604" 
d="M37 0v16l133 90v1211l-133 100v17h399v-1328l133 -90v-16h-532z" />
    <glyph glyph-name="m" unicode="m" horiz-adv-x="1927" 
d="M1769 106l134 -90v-16h-533v16l133 90v619q0 219 -188 219q-121 0 -213 -125q8 -35 8 -88v-625l133 -90v-16h-532v16l133 90v617q0 221 -185 221q-119 2 -208 -121v-717l133 -90v-16h-533v16l133 90v820l-133 88v16h359l39 -158q133 182 337 183q115 0 194 -51.5
t110 -141.5q135 193 354 193q158 0 241.5 -83t83.5 -237v-629z" />
    <glyph glyph-name="n" unicode="n" horiz-adv-x="1300" 
d="M1143 106l133 -90v-16h-533v16l134 90v615q0 221 -187 221q-137 0 -239 -123v-713l133 -90v-16h-533v16l133 90v818l-133 90v16h359l39 -158q147 182 370 183q158 0 241 -86t83 -246v-617z" />
    <glyph glyph-name="o" unicode="o" horiz-adv-x="1208" 
d="M604.5 -25q-239.5 0 -391.5 148.5t-152 392.5t152 391.5t391 147.5q242 0 392.5 -147.5t150.5 -391.5q0 -246 -151.5 -393.5t-391 -147.5zM604 18q250 0 250 498q0 496 -250 496q-248 0 -248 -496q0 -498 248 -498z" />
    <glyph glyph-name="p" unicode="p" horiz-adv-x="1234" 
d="M752 1055q176 0 299 -133.5t123 -389.5q0 -260 -140.5 -408.5t-326.5 -148.5q-174 0 -279 129v-395l174 -82v-16h-573v16l133 84v1213l-133 90v16h358l37 -145q119 170 328 170zM608 68q127 0 205 110.5t78 337.5q0 219 -70.5 323.5t-195.5 104.5q-119 0 -197 -102v-680
q76 -94 180 -94z" />
    <glyph glyph-name="q" unicode="q" horiz-adv-x="1206" 
d="M1075 -299l133 -84v-16h-573v16l174 82v438q-115 -162 -324 -162q-176 0 -300 133.5t-124 389.5q0 260 143.5 408.5t336.5 148.5q176 0 280 -119l238 119h16v-1354zM612 84q119 0 197 100v713q-70 70 -170 70q-133 0 -214 -112t-81 -341q0 -219 71.5 -324.5t196.5 -105.5
z" />
    <glyph glyph-name="r" unicode="r" horiz-adv-x="911" 
d="M752 1055q96 0 159 -35l-114 -318h-15l-151 242q-109 -29 -180 -158v-680l182 -90v-16h-582v16l133 90v818l-133 90v16h359l39 -184q123 209 303 209z" />
    <glyph glyph-name="s" unicode="s" horiz-adv-x="1015" 
d="M797 700l-166 295q-76 16 -117 17q-94 0 -156.5 -43t-62.5 -111q0 -57 37 -93t127 -71l203 -69q141 -51 212.5 -119t71.5 -182q0 -160 -130 -254.5t-316 -94.5q-178 0 -422 78l84 324h16l162 -330q78 -29 143 -29q115 0 183.5 51.5t68.5 133.5q0 68 -41 110.5t-131 75.5
l-198 72q-135 49 -198 122.5t-63 176.5q0 139 112 217t286 78q178 0 411 -68l-100 -287h-16z" />
    <glyph glyph-name="t" unicode="t" horiz-adv-x="729" 
d="M739 987h-309v-747q0 -70 34 -109t91 -39q94 0 145 92l27 -10q-33 -84 -107.5 -141.5t-183.5 -57.5q-131 0 -201.5 69t-70.5 185v758h-154v43h154l250 297h16v-297h309v-43z" />
    <glyph glyph-name="u" unicode="u" horiz-adv-x="1269" 
d="M1102 106l133 -90v-16h-358l-41 162q-137 -186 -353 -187q-158 0 -240.5 87.5t-82.5 246.5v615l-133 90v16h399v-719q0 -223 182 -223q131 0 228 129v707l-134 90v16h400v-924z" />
    <glyph glyph-name="v" unicode="v" horiz-adv-x="1081" 
d="M-39 1014v16h526v-16l-133 -90l308 -734l258 623l-154 201v16h352v-16l-153 -209l-334 -805h-166l-395 918z" />
    <glyph glyph-name="w" unicode="w" horiz-adv-x="1658" 
d="M1339 1030h355v-16l-148 -205l-309 -809h-166l-244 602l-229 -602h-166l-373 918l-98 96v16h504v-16l-123 -90l285 -723l176 461l-105 258l-100 94v16h506v-16l-123 -90l285 -723l233 610l-160 203v16z" />
    <glyph glyph-name="x" unicode="x" horiz-adv-x="1118" 
d="M1001 117l132 -99v-18h-566v16l127 88l-229 328l-236 -282l142 -134v-16h-363v16l164 134l266 319l-313 446l-131 99v16h567v-16l-129 -86l207 -295l207 248l-141 133v16h362v-16l-162 -131l-239 -287z" />
    <glyph glyph-name="y" unicode="y" horiz-adv-x="1118" 
d="M786 1030h355v-16l-154 -209l-426 -1032q-74 -186 -217 -187q-66 0 -139 33l8 240l14 2q145 -80 224 -80q68 0 100 80l8 20l-469 1037l-106 96v16h524v-16l-133 -90l315 -725l252 612l-156 203v16z" />
    <glyph glyph-name="z" unicode="z" horiz-adv-x="1038" 
d="M51 0v41l615 946h-340l-211 -321h-17v364h865v-43l-607 -944h361l223 352h16v-395h-905z" />
    <glyph glyph-name="braceleft" unicode="{" horiz-adv-x="808" 
d="M72 616v17q94 0 156.5 58.5t54.5 170.5l-27 375q-10 154 77 226.5t245 72.5q90 0 180 -18l-4 -17q-160 16 -216.5 -49.5t-45.5 -212.5l24 -336q8 -119 -59.5 -197.5t-206.5 -80.5q139 -2 206.5 -81t59.5 -198l-24 -336q-10 -150 47 -214t215 -48l4 -16q-90 -18 -180 -19
q-158 0 -245 73t-77 226l27 375q8 119 -53.5 174t-157.5 55z" />
    <glyph glyph-name="bar" unicode="|" horiz-adv-x="458" 
d="M205 -328v1915h49v-1915h-49z" />
    <glyph glyph-name="braceright" unicode="}" horiz-adv-x="808" 
d="M737 616q-96 0 -156.5 -55t-52.5 -174l25 -375q12 -154 -76 -226.5t-246 -72.5q-92 0 -180 19l4 16q158 -16 216.5 48.5t45.5 213.5l-22 336q-8 119 59.5 198t206.5 81q-139 2 -206.5 80.5t-59.5 197.5l22 336q10 147 -46 213t-216 49l-4 17q90 18 180 18
q158 0 246 -72.5t76 -226.5l-25 -375q-8 -113 53.5 -171t155.5 -58v-17z" />
    <glyph glyph-name="asciitilde" unicode="~" horiz-adv-x="1097" 
d="M123 547l-21 4q33 121 95.5 198.5t142.5 77.5q68 0 243 -66.5t240 -66.5q55 0 85 22.5t67 94.5l20 -4q-31 -125 -91 -201t-144 -76q-68 0 -241 67t-238 67q-53 0 -86 -23.5t-72 -93.5z" />
    <glyph glyph-name="exclamdown" unicode="&#xa1;" horiz-adv-x="581" 
d="M293 729l-178 174l178 176l174 -176zM453 -389h-322v16l125 946h72l125 -946v-16z" />
    <glyph glyph-name="cent" unicode="&#xa2;" horiz-adv-x="1073" 
d="M1032 430q-39 -133 -146.5 -226t-267.5 -106v-209h-49v207q-223 2 -365.5 147.5t-142.5 383.5q0 236 141.5 383t366.5 164v204h49v-202q203 0 390 -82l-117 -320h-17l-145 342q-51 16 -102 17h-9v-877q31 -8 72 -8q207 0 309 194zM328 684q0 -154 66.5 -263.5
t174.5 -150.5v856q-104 -27 -172.5 -139.5t-68.5 -302.5z" />
    <glyph glyph-name="sterling" unicode="&#xa3;" horiz-adv-x="1236" 
d="M1145 416h16v-416h-1059v47q133 0 252 100.5t119 233.5q0 123 -108 254h-263v47h224q-53 59 -74 85t-57.5 80t-51 105.5t-14.5 108.5q0 190 144.5 295.5t390.5 105.5q219 0 477 -92l-109 -338h-16l-172 361q-70 23 -137 22q-123 0 -197 -74.5t-74 -218.5q0 -74 30 -145.5
t82 -158.5t73 -136h311v-47h-293q25 -78 25 -146q0 -162 -116 -277.5t-276 -164.5h607z" />
    <glyph glyph-name="currency" unicode="&#xa4;" horiz-adv-x="1230" 
d="M973 717q0 -139 -90 -236l215 -213l-33 -32l-213 215q-98 -86 -236 -86q-135 0 -237 86l-213 -215l-33 32l217 213q-90 96 -90 235.5t88 237.5l-215 211l33 35l213 -215q96 84 237 84q139 0 236 -86l213 217l33 -35l-213 -211q88 -104 88 -237zM616 410q129 0 219.5 89
t88.5 218q0 131 -89.5 220t-218.5 89t-219 -89t-88 -220q0 -129 88 -218t219 -89z" />
    <glyph glyph-name="yen" unicode="&#xa5;" horiz-adv-x="1363" 
d="M954 1434h451v-17l-219 -227l-352 -569v-13h348v-47h-348v-168h348v-47h-348v-223l143 -107v-16h-569v16l143 107v223h-344v47h344v168h-344v47h330l-414 686l-143 123v17h585v-17l-129 -106l375 -635l319 520l-176 221v17z" />
    <glyph glyph-name="brokenbar" unicode="&#xa6;" horiz-adv-x="458" 
d="M205 788v799h49v-799h-49zM205 -328v799h49v-799h-49z" />
    <glyph glyph-name="section" unicode="&#xa7;" horiz-adv-x="1118" 
d="M780 346q88 -51 134.5 -113.5t46.5 -160.5q0 -154 -123 -248t-289 -94q-170 0 -397 77l92 310h16l148 -318q72 -25 129 -24q98 0 163.5 51t65.5 127q0 70 -37 116t-117 87l-262 131q-117 59 -179 130.5t-62 180.5q0 184 227 289q-162 106 -162 274q0 137 106.5 217
t264.5 80q176 0 379 -72l-88 -276h-17l-162 287q-57 16 -104 16q-90 0 -142.5 -43t-52.5 -113q0 -113 164 -192l264 -133q131 -63 183.5 -125t52.5 -162q0 -201 -242 -299zM453 510l260 -129q4 0 10 -4t8 -4q90 61 90 151q0 72 -40 116t-130 89l-254 125q-8 4 -10 4
q-96 -70 -96 -156q0 -66 36 -106.5t126 -85.5z" />
    <glyph glyph-name="dieresis" unicode="&#xa8;" horiz-adv-x="811" 
d="M215 1456l152 -149l-152 -152l-154 152zM596 1456l154 -149l-154 -152l-150 152z" />
    <glyph glyph-name="copyright" unicode="&#xa9;" horiz-adv-x="1591" 
d="M797 31q-295 0 -495 198.5t-200 491.5q0 289 200 485.5t495 196.5t493.5 -196.5t198.5 -485.5q0 -293 -198.5 -491.5t-493.5 -198.5zM797 76q272 0 457.5 186.5t185.5 458.5q0 270 -185.5 453.5t-457.5 183.5q-270 0 -457.5 -183.5t-187.5 -453.5q0 -272 187.5 -458.5
t457.5 -186.5zM1016 815l-111 254q-33 8 -61 8q-80 0 -138.5 -84t-58.5 -239q0 -141 70.5 -227.5t173.5 -86.5q150 0 231 135l25 -12q-39 -109 -125 -176.5t-215 -67.5q-166 0 -273.5 109t-107.5 285q0 182 113.5 292.5t294.5 110.5q139 0 284 -59l-86 -242h-16z" />
    <glyph glyph-name="ordfeminine" unicode="&#xaa;" horiz-adv-x="823" 
d="M772 860q-39 -98 -141 -98q-57 0 -92 28.5t-41 71.5q-82 -100 -207 -100q-74 0 -138.5 43t-64.5 139q0 150 201 207q55 16 207 51v103q0 113 -97 112q-39 0 -75 -12l-119 -203h-10l-72 191q141 57 303 57q127 0 188.5 -49t61.5 -131v-369q0 -68 35 -67q23 0 45 36z
M381 840q66 0 115 57v274q-61 -14 -117 -36q-111 -43 -111 -160q0 -63 32 -99t81 -36z" />
    <glyph glyph-name="guillemotleft" unicode="&#xab;" horiz-adv-x="1052" 
d="M567 186l-18 -12l-416 399l416 400l18 -12l-202 -388zM920 186l-19 -12l-416 399l416 400l19 -12l-203 -388z" />
    <glyph glyph-name="logicalnot" unicode="&#xac;" horiz-adv-x="1187" 
d="M102 821v47h942v-522h-49v475h-893z" />
    <glyph glyph-name="registered" unicode="&#xae;" horiz-adv-x="1083" 
d="M543 1462q195 0 326.5 -129t131.5 -321q0 -199 -132 -332t-326 -133q-197 0 -329 133t-132 332q0 193 132 321.5t329 128.5zM543 592q176 0 292.5 119.5t116.5 300.5q0 174 -116.5 289.5t-292.5 115.5t-294 -115.5t-118 -289.5q0 -180 118 -300t294 -120zM672 975
l82 -144l41 -30v-13h-150l-102 195h-51v-152l51 -30v-13h-217v13l51 30v365l-51 29v12h243q176 0 176 -123q0 -109 -143 -125zM537 1016q39 0 62.5 25.5t23.5 68.5q0 45 -22.5 69.5t-63.5 24.5h-45v-188h45z" />
    <glyph glyph-name="macron" unicode="&#xaf;" horiz-adv-x="757" 
d="M61 1280h635v-47h-635v47z" />
    <glyph glyph-name="degree" unicode="&#xb0;" horiz-adv-x="692" 
d="M350 950q-117 0 -192.5 73t-75.5 183.5t75.5 183t192.5 72.5q113 0 186.5 -72.5t73.5 -183t-73.5 -183.5t-186.5 -73zM350 995q94 0 152.5 59.5t58.5 151.5q0 94 -58.5 152.5t-152.5 58.5q-96 0 -157.5 -58.5t-61.5 -152.5q0 -92 61.5 -151.5t157.5 -59.5z" />
    <glyph glyph-name="plusminus" unicode="&#xb1;" horiz-adv-x="1169" 
d="M612 795h414v-47h-414v-373h-49v373h-420v47h420v370h49v-370zM143 201v47h883v-47h-883z" />
    <glyph glyph-name="uni00B2" unicode="&#xb2;" horiz-adv-x="759" 
d="M41 922v14q23 27 90.5 108.5t106.5 131.5q129 147 182 233t53 162q0 72 -35 109.5t-90 37.5q-27 0 -63 -8l-121 -256h-12l-95 234q180 70 308 69q141 0 227 -58.5t86 -158.5q0 -96 -88 -183t-297 -227l-86 -55h385l84 113h12v-266h-647z" />
    <glyph glyph-name="uni00B3" unicode="&#xb3;" horiz-adv-x="776" 
d="M55 1683q166 74 324 74q137 0 215 -53t78 -141q0 -168 -232 -203q129 -10 202 -63.5t73 -145.5q0 -115 -94.5 -180.5t-266.5 -65.5q-125 0 -303 53l84 246h12l109 -250q31 -8 78 -8q76 0 122 51.5t46 143.5q0 100 -63.5 150t-170.5 52l-2 19q94 8 149.5 58t55.5 141
q0 78 -35 117.5t-82 39.5q-39 0 -84 -10l-112 -254h-13z" />
    <glyph glyph-name="acute" unicode="&#xb4;" horiz-adv-x="561" 
d="M195 1454h305v-16l-422 -316h-17z" />
    <glyph glyph-name="paragraph" unicode="&#xb6;" horiz-adv-x="1140" 
d="M645 1434h373v-17l-154 -106v-1557h-49v1630h-153v-1630h-50v830q-242 0 -381 118.5t-139 301.5q0 188 141.5 309t411.5 121z" />
    <glyph glyph-name="periodcentered" unicode="&#xb7;" horiz-adv-x="563" 
d="M281 795l180 -177l-180 -176l-179 176z" />
    <glyph glyph-name="cedilla" unicode="&#xb8;" horiz-adv-x="503" 
d="M70 -375q41 -6 75 -6q61 0 101.5 28.5t40.5 76.5q0 90 -148 90l-14 6l108 180h46l-60 -113q223 0 223 -135q0 -74 -76.5 -120t-193.5 -46q-53 0 -111 15z" />
    <glyph glyph-name="uni00B9" unicode="&#xb9;" horiz-adv-x="632" 
d="M49 1657l367 102h16v-739l176 -82v-16h-547v16l177 82v577l-189 43v17z" />
    <glyph glyph-name="ordmasculine" unicode="&#xba;" horiz-adv-x="827" 
d="M413.5 762q-153.5 0 -249.5 94t-96 250t96 250t249.5 94t251 -94t97.5 -250t-97.5 -250t-251 -94zM413.5 795q149.5 0 149.5 311t-149.5 311t-149.5 -311t149.5 -311z" />
    <glyph glyph-name="guillemotright" unicode="&#xbb;" horiz-adv-x="1052" 
d="M133 186l203 387l-203 388l19 12l415 -400l-415 -399zM485 186l203 387l-203 388l19 12l416 -400l-416 -399z" />
    <glyph glyph-name="onequarter" unicode="&#xbc;" horiz-adv-x="1665" 
d="M49 1350l367 102h16v-739l176 -82v-17h-547v17l177 82v577l-189 43v17zM1200 1434h57l-905 -1434h-57zM930 242v16q172 256 321 561h232v-16q-219 -297 -488 -522h303v163h197v-163h139v-39h-139v-150l127 -76v-16h-453v16l129 76v150h-368z" />
    <glyph glyph-name="onehalf" unicode="&#xbd;" horiz-adv-x="1679" 
d="M49 1350l367 102h16v-739l176 -82v-17h-547v17l177 82v577l-189 43v17zM1200 1434h57l-905 -1434h-57zM961 0v14q23 27 90 109t106 131q129 147 182.5 233t53.5 162q0 72 -35 110t-90 38q-27 0 -64 -9l-121 -256h-12l-94 234q180 70 307 70q141 0 227 -58.5t86 -159.5
q0 -96 -88 -183t-297 -226l-86 -55h385l84 112h13v-266h-647z" />
    <glyph glyph-name="threequarters" unicode="&#xbe;" horiz-adv-x="1808" 
d="M55 1376q166 74 324 74q137 0 215 -53.5t78 -141.5q0 -168 -232 -202q129 -10 202 -63.5t73 -145.5q0 -115 -94.5 -180.5t-266.5 -65.5q-125 0 -303 53l84 246h12l109 -250q31 -8 78 -8q76 0 122 51t46 144q0 100 -63.5 150t-170.5 52l-2 19q94 8 149.5 58t55.5 140
q0 78 -35 118t-82 40q-39 0 -84 -10l-112 -254h-13zM1343 1434h58l-905 -1434h-58zM1073 242v16q172 256 322 561h231v-16q-219 -297 -487 -522h303v163h196v-163h140v-39h-140v-150l127 -76v-16h-452v16l129 76v150h-369z" />
    <glyph glyph-name="questiondown" unicode="&#xbf;" horiz-adv-x="972" 
d="M590 727l-178 174l178 176l176 -176zM1008 -301q-268 -115 -492 -115q-211 0 -338 97.5t-127 261.5q0 297 455 434l49 203h72l82 -244q-170 -33 -273.5 -133.5t-103.5 -263.5q0 -143 66.5 -224.5t160.5 -81.5q66 0 127 17l172 377h16z" />
    <glyph glyph-name="Agrave" unicode="&#xc0;" horiz-adv-x="1431" 
d="M772 1528h-16l-422 315v17h305zM1321 141l127 -125v-16h-565v16l147 107l-158 412h-550l-111 -283l203 -236v-16h-445v16l193 242l411 1051l-137 108v17h383zM340 582h514l-254 665z" />
    <glyph glyph-name="Aacute" unicode="&#xc1;" horiz-adv-x="1431" 
d="M1016 1843l-422 -315h-16l133 332h305v-17zM1321 141l127 -125v-16h-565v16l147 107l-158 412h-550l-111 -283l203 -236v-16h-445v16l193 242l411 1051l-137 108v17h383zM340 582h514l-254 665z" />
    <glyph glyph-name="Acircumflex" unicode="&#xc2;" horiz-adv-x="1431" 
d="M674 1706l-277 -168l-10 14l240 328h94l240 -328l-11 -14zM1321 141l127 -125v-16h-565v16l147 107l-158 412h-550l-111 -283l203 -236v-16h-445v16l193 242l411 1051l-137 108v17h383zM340 582h514l-254 665z" />
    <glyph glyph-name="Atilde" unicode="&#xc3;" horiz-adv-x="1431" 
d="M504 1688q-43 0 -72 -17.5t-61 -71.5l-19 5q27 113 77 175t114 62q47 0 156.5 -45t148.5 -45q45 0 72.5 17.5t60.5 70.5l16 -4q-27 -113 -77 -175.5t-111 -62.5q-49 0 -157.5 45.5t-147.5 45.5zM1321 141l127 -125v-16h-565v16l147 107l-158 412h-550l-111 -283l203 -236
v-16h-445v16l193 242l411 1051l-137 108v17h383zM340 582h514l-254 665z" />
    <glyph glyph-name="Adieresis" unicode="&#xc4;" horiz-adv-x="1431" 
d="M635 1712l-152 -151l-153 151l153 150zM1018 1712l-154 -151l-149 151l149 150zM1321 141l127 -125v-16h-565v16l147 107l-158 412h-550l-111 -283l203 -236v-16h-445v16l193 242l411 1051l-137 108v17h383zM340 582h514l-254 665z" />
    <glyph glyph-name="Aring" unicode="&#xc5;" horiz-adv-x="1431" 
d="M676 1544q-100 0 -166 55.5t-66 143.5q0 86 65.5 141t166.5 55q98 0 163.5 -55t65.5 -141t-65.5 -142.5t-163.5 -56.5zM676 1909q-96 0 -96 -166q0 -168 96 -168t96 168q0 166 -96 166zM1321 141l127 -125v-16h-565v16l147 107l-158 412h-550l-111 -283l203 -236v-16
h-445v16l193 242l411 1051l-137 108v17h383zM340 582h514l-254 665z" />
    <glyph glyph-name="AE" unicode="&#xc6;" horiz-adv-x="2091" 
d="M1982 416h17v-416h-1208v16l153 107v412h-500l-184 -285l143 -234v-16h-454v16l258 242l694 1063l-121 96v17h1180v-383h-16l-258 335h-459v-624h280l174 190h19v-430h-19l-176 193h-278v-668h489zM475 582h469v718z" />
    <glyph glyph-name="Ccedilla" unicode="&#xc7;" horiz-adv-x="1447" 
d="M1313 43q-246 -72 -477 -72l-45 -84q223 0 223 -135q0 -74 -77 -120t-194 -46q-53 0 -110 15l8 24q39 -6 76 -6q61 0 101 28.5t40 76.5q0 90 -147 90l-15 6l92 151q-307 14 -508.5 214t-201.5 526q0 350 217 550.5t520 200.5q262 0 533 -98l-117 -395h-17l-188 413
q-88 35 -190 35q-174 0 -311.5 -179t-137.5 -480q0 -332 140.5 -536t330.5 -204q80 0 150 23l331 418l19 -4z" />
    <glyph glyph-name="Egrave" unicode="&#xc8;" horiz-adv-x="1368" 
d="M664 1860l133 -332h-17l-422 315v17h306zM59 0v16l154 107v1188l-154 106v17h1178v-383h-16l-256 335h-469v-624h288l177 190h16v-430h-16l-177 193h-288v-668h499l265 369h16v-416h-1217z" />
    <glyph glyph-name="Eacute" unicode="&#xc9;" horiz-adv-x="1368" 
d="M735 1860h305v-17l-422 -315h-16zM59 0v16l154 107v1188l-154 106v17h1178v-383h-16l-256 335h-469v-624h288l177 190h16v-430h-16l-177 193h-288v-668h499l265 369h16v-416h-1217z" />
    <glyph glyph-name="Ecircumflex" unicode="&#xca;" horiz-adv-x="1368" 
d="M412 1552l239 328h94l240 -328l-10 -14l-277 168l-276 -168zM59 0v16l154 107v1188l-154 106v17h1178v-383h-16l-256 335h-469v-624h288l177 190h16v-430h-16l-177 193h-288v-668h499l265 369h16v-416h-1217z" />
    <glyph glyph-name="Edieresis" unicode="&#xcb;" horiz-adv-x="1368" 
d="M508 1862l151 -150l-151 -151l-154 151zM889 1862l153 -150l-153 -151l-150 151zM59 0v16l154 107v1188l-154 106v17h1178v-383h-16l-256 335h-469v-624h288l177 190h16v-430h-16l-177 193h-288v-668h499l265 369h16v-416h-1217z" />
    <glyph glyph-name="Igrave" unicode="&#xcc;" horiz-adv-x="706" 
d="M317 1860l134 -332h-17l-422 315v17h305zM59 0v16l154 107v1188l-154 106v17h590v-17l-153 -106v-1188l153 -107v-16h-590z" />
    <glyph glyph-name="Iacute" unicode="&#xcd;" horiz-adv-x="706" 
d="M389 1860h305v-17l-422 -315h-16zM59 0v16l154 107v1188l-154 106v17h590v-17l-153 -106v-1188l153 -107v-16h-590z" />
    <glyph glyph-name="Icircumflex" unicode="&#xce;" horiz-adv-x="706" 
d="M68 1552l239 328h94l240 -328l-10 -14l-277 168l-276 -168zM59 0v16l154 107v1188l-154 106v17h590v-17l-153 -106v-1188l153 -107v-16h-590z" />
    <glyph glyph-name="Idieresis" unicode="&#xcf;" horiz-adv-x="706" 
d="M162 1862l151 -150l-151 -151l-154 151zM543 1862l153 -150l-153 -151l-150 151zM59 0v16l154 107v1188l-154 106v17h590v-17l-153 -106v-1188l153 -107v-16h-590z" />
    <glyph glyph-name="Eth" unicode="&#xd0;" horiz-adv-x="1574" 
d="M754 1434q332 0 537.5 -186.5t205.5 -508.5q0 -334 -196.5 -536.5t-522.5 -202.5h-717v16l154 107v592h-162v47h162v549l-154 106v17h693zM711 47q477 0 477 662q0 336 -127 506.5t-365 170.5h-198v-624h313v-47h-313v-668h213z" />
    <glyph glyph-name="Ntilde" unicode="&#xd1;" horiz-adv-x="1521" 
d="M463 1599l-19 5q27 113 77 175t114 62q47 0 156.5 -45t148.5 -45q45 0 72.5 17.5t60.5 70.5l17 -4q-27 -113 -77 -175.5t-112 -62.5q-49 0 -157.5 45.5t-147.5 45.5q-43 0 -71.5 -18t-61.5 -71zM37 0v16l199 207v1069l-189 125v17h432l783 -1129v907l-230 205v17h477v-17
l-198 -205v-1212h-174l-852 1235v-1012l229 -207v-16h-477z" />
    <glyph glyph-name="Ograve" unicode="&#xd2;" horiz-adv-x="1628" 
d="M778 1860l133 -332h-16l-422 315v17h305zM815 -29q-330 0 -533.5 207t-203.5 539q0 334 203.5 539.5t533.5 205.5t533.5 -205.5t203.5 -539.5q0 -332 -204.5 -539t-532.5 -207zM815.5 18q194.5 0 309 176.5t114.5 522.5t-114.5 522t-309 176t-309.5 -176t-115 -522
t115 -522.5t309.5 -176.5z" />
    <glyph glyph-name="Oacute" unicode="&#xd3;" horiz-adv-x="1628" 
d="M850 1860h305v-17l-422 -315h-16zM815 -29q-330 0 -533.5 207t-203.5 539q0 334 203.5 539.5t533.5 205.5t533.5 -205.5t203.5 -539.5q0 -332 -204.5 -539t-532.5 -207zM815.5 18q194.5 0 309 176.5t114.5 522.5t-114.5 522t-309 176t-309.5 -176t-115 -522t115 -522.5
t309.5 -176.5z" />
    <glyph glyph-name="Ocircumflex" unicode="&#xd4;" horiz-adv-x="1628" 
d="M528 1552l240 328h94l240 -328l-10 -14l-277 168l-276 -168zM815 -29q-330 0 -533.5 207t-203.5 539q0 334 203.5 539.5t533.5 205.5t533.5 -205.5t203.5 -539.5q0 -332 -204.5 -539t-532.5 -207zM815.5 18q194.5 0 309 176.5t114.5 522.5t-114.5 522t-309 176
t-309.5 -176t-115 -522t115 -522.5t309.5 -176.5z" />
    <glyph glyph-name="Otilde" unicode="&#xd5;" horiz-adv-x="1628" 
d="M510 1599l-18 5q27 113 76.5 175t113.5 62q47 0 156.5 -45t148.5 -45q45 0 72.5 17.5t60.5 70.5l17 -4q-27 -113 -77 -175.5t-112 -62.5q-49 0 -157.5 45.5t-147.5 45.5q-43 0 -71.5 -18t-61.5 -71zM815 -29q-330 0 -533.5 207t-203.5 539q0 334 203.5 539.5t533.5 205.5
t533.5 -205.5t203.5 -539.5q0 -332 -204.5 -539t-532.5 -207zM815.5 18q194.5 0 309 176.5t114.5 522.5t-114.5 522t-309 176t-309.5 -176t-115 -522t115 -522.5t309.5 -176.5z" />
    <glyph glyph-name="Odieresis" unicode="&#xd6;" horiz-adv-x="1628" 
d="M625 1862l151 -150l-151 -151l-154 151zM1006 1862l153 -150l-153 -151l-150 151zM815 -29q-330 0 -533.5 207t-203.5 539q0 334 203.5 539.5t533.5 205.5t533.5 -205.5t203.5 -539.5q0 -332 -204.5 -539t-532.5 -207zM815.5 18q194.5 0 309 176.5t114.5 522.5
t-114.5 522t-309 176t-309.5 -176t-115 -522t115 -522.5t309.5 -176.5z" />
    <glyph glyph-name="multiply" unicode="&#xd7;" horiz-adv-x="1116" 
d="M901 985l-309 -309l309 -309l-35 -33l-307 307l-307 -307l-35 35l307 307l-307 309l33 33l309 -307l307 307z" />
    <glyph glyph-name="Oslash" unicode="&#xd8;" horiz-adv-x="1628" 
d="M1151 1393q188 -86 294.5 -263.5t106.5 -412.5q0 -332 -204.5 -539t-532.5 -207q-168 0 -303 56l-76 -162l-45 20l76 162q-182 86 -285.5 262t-103.5 408q0 334 203.5 539.5t533.5 205.5q156 0 291 -51l74 156l45 -19zM391 717q0 -367 133 -549l539 1149q-102 98 -248 98
q-195 0 -309.5 -176t-114.5 -522zM815 18q195 0 309.5 176.5t114.5 522.5q0 377 -141 561l-539 -1151q102 -109 256 -109z" />
    <glyph glyph-name="Ugrave" unicode="&#xd9;" horiz-adv-x="1476" 
d="M768 1860l133 -332h-16l-422 315v17h305zM23 1417v17h589v-17l-153 -106v-774q0 -213 100 -334t292.5 -121t293 132t100.5 351v617l-211 235v17h461v-17l-201 -235v-617q0 -272 -139 -433t-405 -161q-270 0 -422 146.5t-152 404.5v789z" />
    <glyph glyph-name="Uacute" unicode="&#xda;" horiz-adv-x="1476" 
d="M840 1860h305v-17l-422 -315h-16zM23 1417v17h589v-17l-153 -106v-774q0 -213 100 -334t292.5 -121t293 132t100.5 351v617l-211 235v17h461v-17l-201 -235v-617q0 -272 -139 -433t-405 -161q-270 0 -422 146.5t-152 404.5v789z" />
    <glyph glyph-name="Ucircumflex" unicode="&#xdb;" horiz-adv-x="1476" 
d="M518 1552l240 328h94l240 -328l-11 -14l-276 168l-277 -168zM23 1417v17h589v-17l-153 -106v-774q0 -213 100 -334t292.5 -121t293 132t100.5 351v617l-211 235v17h461v-17l-201 -235v-617q0 -272 -139 -433t-405 -161q-270 0 -422 146.5t-152 404.5v789z" />
    <glyph glyph-name="Udieresis" unicode="&#xdc;" horiz-adv-x="1476" 
d="M614 1862l152 -150l-152 -151l-153 151zM995 1862l154 -150l-154 -151l-149 151zM23 1417v17h589v-17l-153 -106v-774q0 -213 100 -334t292.5 -121t293 132t100.5 351v617l-211 235v17h461v-17l-201 -235v-617q0 -272 -139 -433t-405 -161q-270 0 -422 146.5t-152 404.5
v789z" />
    <glyph glyph-name="Yacute" unicode="&#xdd;" horiz-adv-x="1363" 
d="M1081 1843l-422 -315h-16l133 332h305v-17zM954 1434h451v-17l-219 -227l-352 -569v-498l143 -107v-16h-569v16l143 107v461l-428 710l-143 123v17h585v-17l-129 -106l375 -635l319 520l-176 221v17z" />
    <glyph glyph-name="Thorn" unicode="&#xde;" horiz-adv-x="1361" 
d="M760 1188q256 0 405.5 -115t149.5 -317q0 -215 -151.5 -340t-407.5 -125h-260v-168l153 -107v-16h-590v16l154 107v1188l-154 106v17h590v-17l-153 -106v-123h264zM676 338q158 0 249 105.5t91 304.5q0 182 -96.5 287.5t-245.5 105.5h-178v-803h180z" />
    <glyph glyph-name="germandbls" unicode="&#xdf;" horiz-adv-x="1384" 
d="M1083 645q137 -57 198.5 -128t61.5 -177q0 -168 -120.5 -266.5t-290.5 -98.5q-160 0 -381 64l84 313h16l150 -313q63 -20 121 -21q96 0 158.5 54.5t62.5 136.5q0 74 -43 120t-148 91l-194 90q-178 80 -178 215q0 70 44 122t128 109q104 63 142 122t38 141
q0 104 -63.5 165.5t-170.5 61.5q-113 0 -176 -83t-63 -239v-1124h-400v16l134 90v881h-154v43h154v8q0 451 499 451q188 0 316.5 -68.5t128.5 -187.5q0 -76 -57.5 -128t-196.5 -116q-74 -33 -103.5 -64.5t-29.5 -72.5q0 -35 30.5 -61.5t100.5 -55.5z" />
    <glyph glyph-name="agrave" unicode="&#xe0;" horiz-adv-x="1148" 
d="M657 1122h-16l-422 316v16h305zM1116 141l25 -12q-59 -154 -217 -154q-90 0 -141.5 46.5t-59.5 117.5q-135 -164 -334 -164q-68 0 -134.5 21.5t-124.5 90.5t-58 175q0 231 315 324q135 35 334 78v161q0 96 -38 141.5t-124 45.5q-61 0 -125 -23l-182 -315h-16l-109 289
q229 92 475 92q195 0 290 -78t95 -205v-579q0 -106 55 -107q41 0 74 55zM526 86q104 0 195 104v441q-78 -23 -201 -66q-178 -66 -178 -258q0 -102 53 -161.5t131 -59.5z" />
    <glyph glyph-name="aacute" unicode="&#xe1;" horiz-adv-x="1148" 
d="M901 1438l-422 -316h-16l133 332h305v-16zM1116 141l25 -12q-59 -154 -217 -154q-90 0 -141.5 46.5t-59.5 117.5q-135 -164 -334 -164q-68 0 -134.5 21.5t-124.5 90.5t-58 175q0 231 315 324q135 35 334 78v161q0 96 -38 141.5t-124 45.5q-61 0 -125 -23l-182 -315h-16
l-109 289q229 92 475 92q195 0 290 -78t95 -205v-579q0 -106 55 -107q41 0 74 55zM526 86q104 0 195 104v441q-78 -23 -201 -66q-178 -66 -178 -258q0 -102 53 -161.5t131 -59.5z" />
    <glyph glyph-name="acircumflex" unicode="&#xe2;" horiz-adv-x="1148" 
d="M559 1300l-276 -167l-11 14l240 328h94l240 -328l-10 -14zM1116 141l25 -12q-59 -154 -217 -154q-90 0 -141.5 46.5t-59.5 117.5q-135 -164 -334 -164q-68 0 -134.5 21.5t-124.5 90.5t-58 175q0 231 315 324q135 35 334 78v161q0 96 -38 141.5t-124 45.5q-61 0 -125 -23
l-182 -315h-16l-109 289q229 92 475 92q195 0 290 -78t95 -205v-579q0 -106 55 -107q41 0 74 55zM526 86q104 0 195 104v441q-78 -23 -201 -66q-178 -66 -178 -258q0 -102 53 -161.5t131 -59.5z" />
    <glyph glyph-name="atilde" unicode="&#xe3;" horiz-adv-x="1148" 
d="M389 1282q-43 0 -71.5 -17.5t-61.5 -70.5l-18 4q27 113 77 175.5t113 62.5q47 0 156.5 -45t148.5 -45q45 0 73 17t60 71l17 -4q-27 -113 -77 -175.5t-112 -62.5q-49 0 -157.5 45t-147.5 45zM1116 141l25 -12q-59 -154 -217 -154q-90 0 -141.5 46.5t-59.5 117.5
q-135 -164 -334 -164q-68 0 -134.5 21.5t-124.5 90.5t-58 175q0 231 315 324q135 35 334 78v161q0 96 -38 141.5t-124 45.5q-61 0 -125 -23l-182 -315h-16l-109 289q229 92 475 92q195 0 290 -78t95 -205v-579q0 -106 55 -107q41 0 74 55zM526 86q104 0 195 104v441
q-78 -23 -201 -66q-178 -66 -178 -258q0 -102 53 -161.5t131 -59.5z" />
    <glyph glyph-name="adieresis" unicode="&#xe4;" horiz-adv-x="1148" 
d="M520 1307l-151 -152l-154 152l154 149zM903 1307l-153 -152l-150 152l150 149zM1116 141l25 -12q-59 -154 -217 -154q-90 0 -141.5 46.5t-59.5 117.5q-135 -164 -334 -164q-68 0 -134.5 21.5t-124.5 90.5t-58 175q0 231 315 324q135 35 334 78v161q0 96 -38 141.5
t-124 45.5q-61 0 -125 -23l-182 -315h-16l-109 289q229 92 475 92q195 0 290 -78t95 -205v-579q0 -106 55 -107q41 0 74 55zM526 86q104 0 195 104v441q-78 -23 -201 -66q-178 -66 -178 -258q0 -102 53 -161.5t131 -59.5z" />
    <glyph glyph-name="aring" unicode="&#xe5;" horiz-adv-x="1148" 
d="M561 1139q-100 0 -165.5 55t-65.5 143q0 86 65.5 141.5t165.5 55.5q98 0 164 -55.5t66 -141.5t-66 -142t-164 -56zM561 1503q-96 0 -96 -166q0 -168 96 -168t96 168q0 166 -96 166zM1116 141l25 -12q-59 -154 -217 -154q-90 0 -141.5 46.5t-59.5 117.5
q-135 -164 -334 -164q-68 0 -134.5 21.5t-124.5 90.5t-58 175q0 231 315 324q135 35 334 78v161q0 96 -38 141.5t-124 45.5q-61 0 -125 -23l-182 -315h-16l-109 289q229 92 475 92q195 0 290 -78t95 -205v-579q0 -106 55 -107q41 0 74 55zM526 86q104 0 195 104v441
q-78 -23 -201 -66q-178 -66 -178 -258q0 -102 53 -161.5t131 -59.5z" />
    <glyph glyph-name="ae" unicode="&#xe6;" horiz-adv-x="1779" 
d="M1006 526q8 -184 102 -290.5t242 -106.5q229 0 338 199l32 -13q-49 -152 -169.5 -246t-307.5 -94q-139 0 -252.5 57.5t-183.5 162.5q-162 -219 -416 -220q-47 0 -98 13.5t-103.5 43t-85 89t-32.5 141.5q0 231 315 324q135 35 334 78v161q0 96 -38 141.5t-124 45.5
q-61 0 -125 -23l-182 -315h-16l-109 289q229 92 475 92q221 0 318 -103q137 102 333 103q219 0 346 -124t127 -356v-49h-720zM1006 569h456v23q0 227 -52 324.5t-158.5 97.5t-175 -114t-70.5 -331zM526 86q141 0 262 139q-68 123 -67 273v133q-78 -23 -201 -66
q-178 -66 -178 -258q0 -102 53 -161.5t131 -59.5z" />
    <glyph glyph-name="ccedilla" unicode="&#xe7;" horiz-adv-x="1073" 
d="M1032 309q-43 -145 -153.5 -236t-280.5 -98l-47 -88q223 0 223 -135q0 -74 -76.5 -120t-193.5 -46q-53 0 -111 15l8 24q39 -6 76 -6q61 0 101 28.5t40 76.5q0 90 -147 90l-14 6l94 155q-217 10 -353.5 154.5t-136.5 376.5q0 250 157 399.5t398 149.5q203 0 392 -80
l-117 -320h-17l-145 340q-51 16 -102 17q-115 0 -197 -116t-82 -333q0 -197 97.5 -316.5t244.5 -119.5q207 0 309 195z" />
    <glyph glyph-name="egrave" unicode="&#xe8;" horiz-adv-x="1120" 
d="M676 1122h-17l-421 316v16h305zM346 526q6 -186 100.5 -291.5t243.5 -105.5q229 0 338 199l33 -13q-49 -152 -170 -246t-307 -94q-227 0 -375 145.5t-148 379.5q0 258 147.5 406.5t385.5 148.5q219 0 346 -124t127 -356v-49h-721zM346 569h457v27q0 225 -52.5 321.5
t-158.5 96.5q-109 0 -176.5 -114t-69.5 -331z" />
    <glyph glyph-name="eacute" unicode="&#xe9;" horiz-adv-x="1120" 
d="M920 1438l-422 -316h-17l133 332h306v-16zM346 526q6 -186 100.5 -291.5t243.5 -105.5q229 0 338 199l33 -13q-49 -152 -170 -246t-307 -94q-227 0 -375 145.5t-148 379.5q0 258 147.5 406.5t385.5 148.5q219 0 346 -124t127 -356v-49h-721zM346 569h457v27
q0 225 -52.5 321.5t-158.5 96.5q-109 0 -176.5 -114t-69.5 -331z" />
    <glyph glyph-name="ecircumflex" unicode="&#xea;" horiz-adv-x="1120" 
d="M580 1300l-277 -167l-10 14l239 328h95l239 -328l-10 -14zM346 526q6 -186 100.5 -291.5t243.5 -105.5q229 0 338 199l33 -13q-49 -152 -170 -246t-307 -94q-227 0 -375 145.5t-148 379.5q0 258 147.5 406.5t385.5 148.5q219 0 346 -124t127 -356v-49h-721zM346 569h457
v27q0 225 -52.5 321.5t-158.5 96.5q-109 0 -176.5 -114t-69.5 -331z" />
    <glyph glyph-name="edieresis" unicode="&#xeb;" horiz-adv-x="1120" 
d="M541 1307l-152 -152l-153 152l153 149zM924 1307l-154 -152l-149 152l149 149zM346 526q6 -186 100.5 -291.5t243.5 -105.5q229 0 338 199l33 -13q-49 -152 -170 -246t-307 -94q-227 0 -375 145.5t-148 379.5q0 258 147.5 406.5t385.5 148.5q219 0 346 -124t127 -356v-49
h-721zM346 569h457v27q0 225 -52.5 321.5t-158.5 96.5q-109 0 -176.5 -114t-69.5 -331z" />
    <glyph glyph-name="igrave" unicode="&#xec;" horiz-adv-x="579" 
d="M252 1454l133 -332h-16l-422 316v16h305zM51 0v16l113 90v818l-113 90v16h379v-924l113 -90v-16h-492z" />
    <glyph glyph-name="iacute" unicode="&#xed;" horiz-adv-x="579" 
d="M324 1454h305v-16l-422 -316h-17zM51 0v16l113 90v818l-113 90v16h379v-924l113 -90v-16h-492z" />
    <glyph glyph-name="icircumflex" unicode="&#xee;" horiz-adv-x="579" 
d="M0 1147l240 328h94l239 -328l-10 -14l-276 167l-277 -167zM51 0v16l113 90v818l-113 90v16h379v-924l113 -90v-16h-492z" />
    <glyph glyph-name="idieresis" unicode="&#xef;" horiz-adv-x="579" 
d="M96 1456l152 -149l-152 -152l-153 152zM477 1456l154 -149l-154 -152l-149 152zM51 0v16l113 90v818l-113 90v16h379v-924l113 -90v-16h-492z" />
    <glyph glyph-name="eth" unicode="&#xf0;" horiz-adv-x="1265" 
d="M803 1298q178 -115 277.5 -295t99.5 -409q0 -295 -151.5 -457t-401.5 -162q-238 0 -391.5 152t-153.5 399q0 240 147.5 384.5t380.5 144.5q135 0 230 -84q-55 174 -164 282l-305 -106l-17 45l283 98q-127 106 -318 156l5 16q242 -29 426 -133l243 86l17 -45zM635 18
q260 0 260 531q0 190 -35 346q-98 109 -223 109q-262 0 -262 -488q0 -498 260 -498z" />
    <glyph glyph-name="ntilde" unicode="&#xf1;" horiz-adv-x="1300" 
d="M498 1282q-43 0 -72 -17.5t-61 -70.5l-19 4q27 113 77 175.5t114 62.5q47 0 156.5 -45t148.5 -45q45 0 72.5 17t60.5 71l16 -4q-27 -113 -77 -175.5t-111 -62.5q-49 0 -157.5 45t-147.5 45zM1143 106l133 -90v-16h-533v16l134 90v615q0 221 -187 221q-137 0 -239 -123
v-713l133 -90v-16h-533v16l133 90v818l-133 90v16h359l39 -158q147 182 370 183q158 0 241 -86t83 -246v-617z" />
    <glyph glyph-name="ograve" unicode="&#xf2;" horiz-adv-x="1208" 
d="M569 1454l133 -332h-16l-422 316v16h305zM604.5 -25q-239.5 0 -391.5 148.5t-152 392.5t152 391.5t391 147.5q242 0 392.5 -147.5t150.5 -391.5q0 -246 -151.5 -393.5t-391 -147.5zM604 18q250 0 250 498q0 496 -250 496q-248 0 -248 -496q0 -498 248 -498z" />
    <glyph glyph-name="oacute" unicode="&#xf3;" horiz-adv-x="1208" 
d="M641 1454h305v-16l-422 -316h-16zM604.5 -25q-239.5 0 -391.5 148.5t-152 392.5t152 391.5t391 147.5q242 0 392.5 -147.5t150.5 -391.5q0 -246 -151.5 -393.5t-391 -147.5zM604 18q250 0 250 498q0 496 -250 496q-248 0 -248 -496q0 -498 248 -498z" />
    <glyph glyph-name="ocircumflex" unicode="&#xf4;" horiz-adv-x="1208" 
d="M317 1147l240 328h94l240 -328l-10 -14l-277 167l-276 -167zM604.5 -25q-239.5 0 -391.5 148.5t-152 392.5t152 391.5t391 147.5q242 0 392.5 -147.5t150.5 -391.5q0 -246 -151.5 -393.5t-391 -147.5zM604 18q250 0 250 498q0 496 -250 496q-248 0 -248 -496
q0 -498 248 -498z" />
    <glyph glyph-name="otilde" unicode="&#xf5;" horiz-adv-x="1208" 
d="M301 1194l-18 4q27 113 77 175.5t113 62.5q47 0 156.5 -45t148.5 -45q45 0 73 17t60 71l17 -4q-27 -113 -77 -175.5t-112 -62.5q-49 0 -157.5 45t-147.5 45q-43 0 -71.5 -17.5t-61.5 -70.5zM604.5 -25q-239.5 0 -391.5 148.5t-152 392.5t152 391.5t391 147.5
q242 0 392.5 -147.5t150.5 -391.5q0 -246 -151.5 -393.5t-391 -147.5zM604 18q250 0 250 498q0 496 -250 496q-248 0 -248 -496q0 -498 248 -498z" />
    <glyph glyph-name="odieresis" unicode="&#xf6;" horiz-adv-x="1208" 
d="M414 1456l151 -149l-151 -152l-154 152zM795 1456l153 -149l-153 -152l-150 152zM604.5 -25q-239.5 0 -391.5 148.5t-152 392.5t152 391.5t391 147.5q242 0 392.5 -147.5t150.5 -391.5q0 -246 -151.5 -393.5t-391 -147.5zM604 18q250 0 250 498q0 496 -250 496
q-248 0 -248 -496q0 -498 248 -498z" />
    <glyph glyph-name="divide" unicode="&#xf7;" horiz-adv-x="1167" 
d="M584 1155l137 -133l-137 -133l-138 133zM143 698h881v-47h-881v47zM584 461l137 -133l-137 -133l-138 133z" />
    <glyph glyph-name="oslash" unicode="&#xf8;" horiz-adv-x="1208" 
d="M852 1006q137 -61 216 -188.5t79 -301.5q0 -246 -151.5 -393.5t-391.5 -147.5q-119 0 -217 37l-65 -141l-46 16l68 146q-131 63 -207 189t-76 294q0 244 152 391.5t391 147.5q113 0 203 -33l63 137l45 -16zM356 516q0 -225 52 -346l356 760q-61 82 -160 82
q-248 0 -248 -496zM604 18q250 0 250 498q0 242 -61 365l-357 -764q62 -99 168 -99z" />
    <glyph glyph-name="ugrave" unicode="&#xf9;" horiz-adv-x="1269" 
d="M713 1122h-17l-422 316v16h306zM1102 106l133 -90v-16h-358l-41 162q-137 -186 -353 -187q-158 0 -240.5 87.5t-82.5 246.5v615l-133 90v16h399v-719q0 -223 182 -223q131 0 228 129v707l-134 90v16h400v-924z" />
    <glyph glyph-name="uacute" unicode="&#xfa;" horiz-adv-x="1269" 
d="M956 1438l-421 -316h-17l133 332h305v-16zM1102 106l133 -90v-16h-358l-41 162q-137 -186 -353 -187q-158 0 -240.5 87.5t-82.5 246.5v615l-133 90v16h399v-719q0 -223 182 -223q131 0 228 129v707l-134 90v16h400v-924z" />
    <glyph glyph-name="ucircumflex" unicode="&#xfb;" horiz-adv-x="1269" 
d="M614 1300l-276 -167l-10 14l239 328h95l239 -328l-10 -14zM1102 106l133 -90v-16h-358l-41 162q-137 -186 -353 -187q-158 0 -240.5 87.5t-82.5 246.5v615l-133 90v16h399v-719q0 -223 182 -223q131 0 228 129v707l-134 90v16h400v-924z" />
    <glyph glyph-name="udieresis" unicode="&#xfc;" horiz-adv-x="1269" 
d="M575 1307l-151 -152l-154 152l154 149zM958 1307l-153 -152l-150 152l150 149zM1102 106l133 -90v-16h-358l-41 162q-137 -186 -353 -187q-158 0 -240.5 87.5t-82.5 246.5v615l-133 90v16h399v-719q0 -223 182 -223q131 0 228 129v707l-134 90v16h400v-924z" />
    <glyph glyph-name="yacute" unicode="&#xfd;" horiz-adv-x="1118" 
d="M961 1438l-422 -316h-17l133 332h306v-16zM786 1030h355v-16l-154 -209l-426 -1032q-74 -186 -217 -187q-66 0 -139 33l8 240l14 2q145 -80 224 -80q68 0 100 80l8 20l-469 1037l-106 96v16h524v-16l-133 -90l315 -725l252 612l-156 203v16z" />
    <glyph glyph-name="thorn" unicode="&#xfe;" horiz-adv-x="1222" 
d="M737 1055q178 0 301 -132t123 -391q0 -260 -140 -408.5t-327 -148.5q-174 0 -278 129v-387l164 -90v-16h-564v16l134 90v1600l-134 100v17h400v-543q116 164 321 164zM596 68q127 0 205 110.5t78 337.5q0 217 -72 322.5t-195 105.5q-119 0 -196 -100v-682q74 -94 180 -94
z" />
    <glyph glyph-name="ydieresis" unicode="&#xff;" horiz-adv-x="1118" 
d="M580 1307l-152 -152l-154 152l154 149zM963 1307l-154 -152l-150 152l150 149zM786 1030h355v-16l-154 -209l-426 -1032q-74 -186 -217 -187q-66 0 -139 33l8 240l14 2q145 -80 224 -80q68 0 100 80l8 20l-469 1037l-106 96v16h524v-16l-133 -90l315 -725l252 612
l-156 203v16z" />
    <glyph glyph-name="Amacron" unicode="&#x100;" horiz-adv-x="1431" 
d="M991 1686v-48h-635v48h635zM1321 141l127 -125v-16h-565v16l147 107l-158 412h-550l-111 -283l203 -236v-16h-445v16l193 242l411 1051l-137 108v17h383zM340 582h514l-254 665z" />
    <glyph glyph-name="amacron" unicode="&#x101;" horiz-adv-x="1148" 
d="M877 1280v-47h-635v47h635zM1116 141l25 -12q-59 -154 -217 -154q-90 0 -141.5 46.5t-59.5 117.5q-135 -164 -334 -164q-68 0 -134.5 21.5t-124.5 90.5t-58 175q0 231 315 324q135 35 334 78v161q0 96 -38 141.5t-124 45.5q-61 0 -125 -23l-182 -315h-16l-109 289
q229 92 475 92q195 0 290 -78t95 -205v-579q0 -106 55 -107q41 0 74 55zM526 86q104 0 195 104v441q-78 -23 -201 -66q-178 -66 -178 -258q0 -102 53 -161.5t131 -59.5z" />
    <glyph glyph-name="Abreve" unicode="&#x102;" horiz-adv-x="1431" 
d="M674 1567q-131 0 -198.5 89t-67.5 224h16q4 -61 68.5 -110.5t181.5 -49.5t181.5 49.5t68.5 110.5h16q0 -137 -67.5 -225t-198.5 -88zM1321 141l127 -125v-16h-565v16l147 107l-158 412h-550l-111 -283l203 -236v-16h-445v16l193 242l411 1051l-137 108v17h383zM340 582
h514l-254 665z" />
    <glyph glyph-name="abreve" unicode="&#x103;" horiz-adv-x="1148" 
d="M559 1161q-131 0 -198.5 89t-67.5 225h16q4 -61 68.5 -110.5t181.5 -49.5t181.5 49t68.5 111h16q0 -137 -67.5 -225.5t-198.5 -88.5zM1116 141l25 -12q-59 -154 -217 -154q-90 0 -141.5 46.5t-59.5 117.5q-135 -164 -334 -164q-68 0 -134.5 21.5t-124.5 90.5t-58 175
q0 231 315 324q135 35 334 78v161q0 96 -38 141.5t-124 45.5q-61 0 -125 -23l-182 -315h-16l-109 289q229 92 475 92q195 0 290 -78t95 -205v-579q0 -106 55 -107q41 0 74 55zM526 86q104 0 195 104v441q-78 -23 -201 -66q-178 -66 -178 -258q0 -102 53 -161.5t131 -59.5z
" />
    <glyph glyph-name="Aogonek" unicode="&#x104;" horiz-adv-x="1431" 
d="M1372 0q-145 -102 -145 -221q0 -57 29.5 -90t78.5 -33q45 0 88 16l13 -22q-88 -63 -201 -64q-80 0 -134 43t-54 115q0 76 67.5 136.5t212.5 119.5h-444v16l147 107l-158 412h-550l-111 -283l203 -236v-16h-445v16l193 242l411 1051l-137 108v17h383l502 -1293l127 -125
v-16h-76zM340 582h514l-254 665z" />
    <glyph glyph-name="aogonek" unicode="&#x105;" horiz-adv-x="1148" 
d="M995 -344q45 0 88 16l13 -22q-88 -63 -201 -64q-80 0 -134 43t-54 115q0 131 223 231h-6q-90 0 -141.5 46.5t-59.5 117.5q-135 -164 -334 -164q-68 0 -134.5 21.5t-124.5 90.5t-58 175q0 231 315 324q135 35 334 78v161q0 96 -38 141.5t-124 45.5q-61 0 -125 -23
l-182 -315h-16l-109 289q229 92 475 92q195 0 290 -78t95 -205v-579q0 -106 55 -107q41 0 74 55l25 -12q-37 -94 -113 -131q-141 -102 -141 -219q0 -57 29.5 -90t78.5 -33zM526 86q104 0 195 104v441q-78 -23 -201 -66q-178 -66 -178 -258q0 -102 53 -161.5t131 -59.5z" />
    <glyph glyph-name="Cacute" unicode="&#x106;" horiz-adv-x="1447" 
d="M856 1860h305v-17l-422 -315h-16zM1214 969l-188 413q-88 35 -190 35q-174 0 -311.5 -179t-137.5 -480q0 -332 140.5 -536t330.5 -204q80 0 150 23l331 418l19 -4l-45 -412q-248 -72 -486 -72q-322 0 -535.5 202t-213.5 538q0 350 217 550.5t520 200.5q262 0 533 -98
l-117 -395h-17z" />
    <glyph glyph-name="cacute" unicode="&#x107;" horiz-adv-x="1073" 
d="M629 1454h305v-16l-422 -316h-16zM874 655l-145 340q-51 16 -102 17q-115 0 -197 -116t-82 -333q0 -197 97.5 -316.5t244.5 -119.5q207 0 309 195l33 -13q-45 -150 -160.5 -242t-293.5 -92q-227 0 -372 145.5t-145 385.5q0 250 157 399.5t398 149.5q203 0 392 -80
l-117 -320h-17z" />
    <glyph glyph-name="Ccircumflex" unicode="&#x108;" horiz-adv-x="1538" 
d="M535 1552l239 328h94l240 -328l-10 -14l-277 168l-276 -168zM1214 969l-188 413q-88 35 -190 35q-174 0 -311.5 -179t-137.5 -480q0 -332 140.5 -536t330.5 -204q80 0 150 23l331 418l19 -4l-45 -412q-248 -72 -486 -72q-322 0 -535.5 202t-213.5 538q0 350 217 550.5
t520 200.5q262 0 533 -98l-117 -395h-17z" />
    <glyph glyph-name="ccircumflex" unicode="&#x109;" horiz-adv-x="1073" 
d="M307 1147l240 328h94l240 -328l-11 -14l-276 167l-277 -167zM874 655l-145 340q-51 16 -102 17q-115 0 -197 -116t-82 -333q0 -197 97.5 -316.5t244.5 -119.5q207 0 309 195l33 -13q-45 -150 -160.5 -242t-293.5 -92q-227 0 -372 145.5t-145 385.5q0 250 157 399.5
t398 149.5q203 0 392 -80l-117 -320h-17z" />
    <glyph glyph-name="Cdotaccent" unicode="&#x10a;" horiz-adv-x="1447" 
d="M821 1896l162 -159l-162 -160l-162 160zM1214 969l-188 413q-88 35 -190 35q-174 0 -311.5 -179t-137.5 -480q0 -332 140.5 -536t330.5 -204q80 0 150 23l331 418l19 -4l-45 -412q-248 -72 -486 -72q-322 0 -535.5 202t-213.5 538q0 350 217 550.5t520 200.5
q262 0 533 -98l-117 -395h-17z" />
    <glyph glyph-name="cdotaccent" unicode="&#x10b;" horiz-adv-x="1073" 
d="M594 1491l162 -160l-162 -160l-162 160zM874 655l-145 340q-51 16 -102 17q-115 0 -197 -116t-82 -333q0 -197 97.5 -316.5t244.5 -119.5q207 0 309 195l33 -13q-45 -150 -160.5 -242t-293.5 -92q-227 0 -372 145.5t-145 385.5q0 250 157 399.5t398 149.5q203 0 392 -80
l-117 -320h-17z" />
    <glyph glyph-name="Ccaron" unicode="&#x10c;" horiz-adv-x="1447" 
d="M535 1886l10 15l276 -168l277 168l10 -15l-240 -327h-94zM1214 969l-188 413q-88 35 -190 35q-174 0 -311.5 -179t-137.5 -480q0 -332 140.5 -536t330.5 -204q80 0 150 23l331 418l19 -4l-45 -412q-248 -72 -486 -72q-322 0 -535.5 202t-213.5 538q0 350 217 550.5
t520 200.5q262 0 533 -98l-117 -395h-17z" />
    <glyph glyph-name="ccaron" unicode="&#x10d;" horiz-adv-x="1073" 
d="M307 1481l10 14l277 -168l276 168l11 -14l-240 -328h-94zM874 655l-145 340q-51 16 -102 17q-115 0 -197 -116t-82 -333q0 -197 97.5 -316.5t244.5 -119.5q207 0 309 195l33 -13q-45 -150 -160.5 -242t-293.5 -92q-227 0 -372 145.5t-145 385.5q0 250 157 399.5
t398 149.5q203 0 392 -80l-117 -320h-17z" />
    <glyph glyph-name="Dcaron" unicode="&#x10e;" horiz-adv-x="1572" 
d="M418 1886l10 15l277 -168l276 168l10 -15l-239 -327h-95zM59 0v16l154 107v1188l-154 106v17h693q332 0 537.5 -186.5t205.5 -508.5q0 -334 -196.5 -536.5t-522.5 -202.5h-717zM496 47h213q477 0 477 662q0 336 -127 506.5t-365 170.5h-198v-1339z" />
    <glyph glyph-name="dcaron" unicode="&#x10f;" horiz-adv-x="1277" 
d="M1073 1434v-1328l133 -90v-16h-358l-39 143q-115 -168 -324 -168q-178 0 -301 133.5t-123 391.5q0 260 140.5 407.5t326.5 147.5q174 0 279 -129v409l-154 82v17h420zM1212 1434h240v-17l-246 -364h-16zM610 88q119 0 197 100v680q-76 96 -180 97q-127 0 -205 -111
t-78 -340q0 -217 71.5 -321.5t194.5 -104.5z" />
    <glyph glyph-name="Dcroat" unicode="&#x110;" horiz-adv-x="1574" 
d="M754 1434q332 0 537.5 -186.5t205.5 -508.5q0 -334 -196.5 -536.5t-522.5 -202.5h-717v16l154 107v592h-162v47h162v549l-154 106v17h693zM711 47q477 0 477 662q0 336 -127 506.5t-365 170.5h-198v-624h313v-47h-313v-668h213z" />
    <glyph glyph-name="dcroat" unicode="&#x111;" horiz-adv-x="1243" 
d="M1217 1176h-144v-1070l133 -90v-16h-358l-39 143q-115 -168 -324 -168q-178 0 -301 133.5t-123 391.5q0 260 140.5 407.5t326.5 147.5q174 0 279 -129v250h-268v47h268v112l-154 82v17h420v-211h144v-47zM610 88q119 0 197 100v680q-76 96 -180 97q-127 0 -205 -111
t-78 -340q0 -217 71.5 -321.5t194.5 -104.5z" />
    <glyph glyph-name="Emacron" unicode="&#x112;" horiz-adv-x="1368" 
d="M381 1686h635v-48h-635v48zM59 0v16l154 107v1188l-154 106v17h1178v-383h-16l-256 335h-469v-624h288l177 190h16v-430h-16l-177 193h-288v-668h499l265 369h16v-416h-1217z" />
    <glyph glyph-name="emacron" unicode="&#x113;" horiz-adv-x="1120" 
d="M897 1280v-47h-635v47h635zM346 526q6 -186 100.5 -291.5t243.5 -105.5q229 0 338 199l33 -13q-49 -152 -170 -246t-307 -94q-227 0 -375 145.5t-148 379.5q0 258 147.5 406.5t385.5 148.5q219 0 346 -124t127 -356v-49h-721zM346 569h457v27q0 225 -52.5 321.5
t-158.5 96.5q-109 0 -176.5 -114t-69.5 -331z" />
    <glyph glyph-name="Ebreve" unicode="&#x114;" horiz-adv-x="1460" 
d="M432 1878h17q4 -61 68.5 -110.5t181 -49.5t181 49.5t68.5 110.5h17q0 -137 -68 -225t-199 -88t-198.5 89t-67.5 224zM59 0v16l154 107v1188l-154 106v17h1178v-383h-16l-256 335h-469v-624h288l177 190h16v-430h-16l-177 193h-288v-668h499l265 369h16v-416h-1217z" />
    <glyph glyph-name="ebreve" unicode="&#x115;" horiz-adv-x="1120" 
d="M580 1161q-131 0 -199 89t-68 225h17q4 -61 68.5 -110.5t181 -49.5t181 49t68.5 111h17q0 -137 -67.5 -225.5t-198.5 -88.5zM346 526q6 -186 100.5 -291.5t243.5 -105.5q229 0 338 199l33 -13q-49 -152 -170 -246t-307 -94q-227 0 -375 145.5t-148 379.5
q0 258 147.5 406.5t385.5 148.5q219 0 346 -124t127 -356v-49h-721zM346 569h457v27q0 225 -52.5 321.5t-158.5 96.5q-109 0 -176.5 -114t-69.5 -331z" />
    <glyph glyph-name="Edotaccent" unicode="&#x116;" horiz-adv-x="1368" 
d="M698 1896l162 -159l-162 -160l-161 160zM59 0v16l154 107v1188l-154 106v17h1178v-383h-16l-256 335h-469v-624h288l177 190h16v-430h-16l-177 193h-288v-668h499l265 369h16v-416h-1217z" />
    <glyph glyph-name="edotaccent" unicode="&#x117;" horiz-adv-x="1120" 
d="M741 1331l-161 -160l-162 160l162 160zM346 526q6 -186 100.5 -291.5t243.5 -105.5q229 0 338 199l33 -13q-49 -152 -170 -246t-307 -94q-227 0 -375 145.5t-148 379.5q0 258 147.5 406.5t385.5 148.5q219 0 346 -124t127 -356v-49h-721zM346 569h457v27
q0 225 -52.5 321.5t-158.5 96.5q-109 0 -176.5 -114t-69.5 -331z" />
    <glyph glyph-name="Eogonek" unicode="&#x118;" horiz-adv-x="1368" 
d="M1272 -328l12 -22q-88 -63 -201 -64q-80 0 -134 43t-54 115q0 76 67.5 136.5t213.5 119.5h-1117v16l154 107v1188l-154 106v17h1178v-383h-16l-256 335h-469v-624h288l177 190h16v-430h-16l-177 193h-288v-668h499l265 369h16v-416h-55q-145 -102 -146 -221q0 -57 30 -90
t79 -33q45 0 88 16z" />
    <glyph glyph-name="eogonek" unicode="&#x119;" horiz-adv-x="1120" 
d="M346 526q6 -186 100.5 -291.5t243.5 -105.5q229 0 338 199l33 -13q-49 -154 -170 -245q-152 -139 -152 -279q0 -63 32 -99t83 -36q43 0 86 16l12 -22q-88 -63 -196 -64q-86 0 -139.5 45t-53.5 125q0 127 187 242q-78 -23 -166 -23q-227 0 -375 145.5t-148 379.5
q0 258 147.5 406.5t385.5 148.5q219 0 346 -124t127 -356v-49h-721zM346 569h457v27q0 225 -52.5 321.5t-158.5 96.5q-109 0 -176.5 -114t-69.5 -331z" />
    <glyph glyph-name="Ecaron" unicode="&#x11a;" horiz-adv-x="1368" 
d="M412 1886l10 15l276 -168l277 168l10 -15l-240 -327h-94zM59 0v16l154 107v1188l-154 106v17h1178v-383h-16l-256 335h-469v-624h288l177 190h16v-430h-16l-177 193h-288v-668h499l265 369h16v-416h-1217z" />
    <glyph glyph-name="ecaron" unicode="&#x11b;" horiz-adv-x="1120" 
d="M627 1153h-95l-239 328l10 14l277 -168l276 168l10 -14zM346 526q6 -186 100.5 -291.5t243.5 -105.5q229 0 338 199l33 -13q-49 -152 -170 -246t-307 -94q-227 0 -375 145.5t-148 379.5q0 258 147.5 406.5t385.5 148.5q219 0 346 -124t127 -356v-49h-721zM346 569h457v27
q0 225 -52.5 321.5t-158.5 96.5q-109 0 -176.5 -114t-69.5 -331z" />
    <glyph glyph-name="Gcircumflex" unicode="&#x11c;" horiz-adv-x="1552" 
d="M545 1552l239 328h95l239 -328l-10 -14l-277 168l-276 -168zM78 711q0 348 220 549.5t525 201.5q279 0 572 -102l-117 -385h-16l-197 399q-109 41 -217 41q-190 0 -324.5 -177t-134.5 -495q0 -336 133 -527t324 -191q90 0 156.5 36.5t97.5 92.5v409l-195 107v16h606v-16
l-143 -107v-592h-16l-209 99q-145 -98 -348 -99q-303 0 -510 203t-207 537z" />
    <glyph glyph-name="gcircumflex" unicode="&#x11d;" horiz-adv-x="1206" 
d="M578 1300l-277 -167l-10 14l239 328h95l239 -328l-10 -14zM764 197q381 -2 381 -265q0 -168 -172 -257t-438 -89q-514 0 -515 230q0 72 56.5 124t152.5 74q-119 47 -118 164q0 133 196 225q-186 94 -186 293q0 160 126 259.5t328 99.5q125 0 234 -43l307 180h17v-217
h-256q154 -100 153 -279q0 -158 -127 -255t-328 -97q-127 0 -227 41q-55 -41 -55 -94q0 -92 127 -92zM575.5 1012q-188.5 0 -188.5 -316q0 -309 188.5 -309t188.5 309q0 316 -188.5 316zM573 -371q172 0 268.5 56.5t96.5 152.5q0 145 -207 146l-342 4q-43 0 -80 6
q-96 -49 -96 -150q0 -102 91 -158.5t269 -56.5z" />
    <glyph glyph-name="Gbreve" unicode="&#x11e;" horiz-adv-x="1531" 
d="M565 1880h17q4 -61 68.5 -110.5t181 -49.5t181 49.5t68.5 110.5h17q0 -137 -67.5 -225t-199 -88t-199 89t-67.5 224zM78 711q0 348 220 549.5t525 201.5q279 0 572 -102l-117 -385h-16l-197 399q-109 41 -217 41q-190 0 -324.5 -177t-134.5 -495q0 -336 133 -527
t324 -191q90 0 156.5 36.5t97.5 92.5v409l-195 107v16h606v-16l-143 -107v-592h-16l-209 99q-145 -98 -348 -99q-303 0 -510 203t-207 537z" />
    <glyph glyph-name="gbreve" unicode="&#x11f;" horiz-adv-x="1165" 
d="M567 1161q-131 0 -198.5 89t-67.5 225h16q4 -61 69 -110.5t181.5 -49.5t181 49t68.5 111h17q0 -137 -68 -225.5t-199 -88.5zM754 197q381 -2 381 -265q0 -168 -172 -257t-439 -89q-514 0 -514 230q0 72 56.5 124t152.5 74q-119 47 -119 164q0 133 197 225
q-186 94 -186 293q0 160 125.5 259.5t328.5 99.5q125 0 234 -43l307 180h16v-217h-256q154 -100 154 -279q0 -158 -127 -255t-328 -97q-127 0 -227 41q-55 -41 -55 -94q0 -92 127 -92zM565.5 1012q-188.5 0 -188.5 -316q0 -309 188.5 -309t188.5 309q0 316 -188.5 316z
M563 -371q172 0 268.5 56.5t96.5 152.5q0 145 -207 146l-342 4q-43 0 -80 6q-96 -49 -96 -150q0 -102 91 -158.5t269 -56.5z" />
    <glyph glyph-name="Gdotaccent" unicode="&#x120;" horiz-adv-x="1531" 
d="M831 1896l162 -159l-162 -160l-161 160zM78 711q0 348 220 549.5t525 201.5q279 0 572 -102l-117 -385h-16l-197 399q-109 41 -217 41q-190 0 -324.5 -177t-134.5 -495q0 -336 133 -527t324 -191q90 0 156.5 36.5t97.5 92.5v409l-195 107v16h606v-16l-143 -107v-592h-16
l-209 99q-145 -98 -348 -99q-303 0 -510 203t-207 537z" />
    <glyph glyph-name="gdotaccent" unicode="&#x121;" horiz-adv-x="1165" 
d="M729 1331l-162 -160l-161 160l161 160zM754 197q381 -2 381 -265q0 -168 -172 -257t-439 -89q-514 0 -514 230q0 72 56.5 124t152.5 74q-119 47 -119 164q0 133 197 225q-186 94 -186 293q0 160 125.5 259.5t328.5 99.5q125 0 234 -43l307 180h16v-217h-256
q154 -100 154 -279q0 -158 -127 -255t-328 -97q-127 0 -227 41q-55 -41 -55 -94q0 -92 127 -92zM565.5 1012q-188.5 0 -188.5 -316q0 -309 188.5 -309t188.5 309q0 316 -188.5 316zM563 -371q172 0 268.5 56.5t96.5 152.5q0 145 -207 146l-342 4q-43 0 -80 6
q-96 -49 -96 -150q0 -102 91 -158.5t269 -56.5z" />
    <glyph glyph-name="uni0122" unicode="&#x122;" horiz-adv-x="1531" 
d="M78 711q0 348 220 549.5t525 201.5q279 0 572 -102l-117 -385h-16l-197 399q-109 41 -217 41q-190 0 -324.5 -177t-134.5 -495q0 -336 133 -527t324 -191q90 0 156.5 36.5t97.5 92.5v409l-195 107v16h606v-16l-143 -107v-592h-16l-209 99q-145 -98 -348 -99
q-303 0 -510 203t-207 537zM709 -221l135 135l78 -74q49 -47 49 -110q0 -66 -63.5 -129.5t-159.5 -114.5l-13 16q78 59 78 129q0 41 -37 82z" />
    <glyph glyph-name="uni0123" unicode="&#x123;" horiz-adv-x="1165" 
d="M485 1221q-49 45 -49 110.5t63.5 129t159.5 114.5l13 -16q-78 -59 -78 -129q0 -41 37 -82l67 -66l-135 -135zM754 197q381 -2 381 -265q0 -168 -172 -257t-439 -89q-514 0 -514 230q0 72 56.5 124t152.5 74q-119 47 -119 164q0 133 197 225q-186 94 -186 293
q0 160 125.5 259.5t328.5 99.5q125 0 234 -43l307 180h16v-217h-256q154 -100 154 -279q0 -158 -127 -255t-328 -97q-127 0 -227 41q-55 -41 -55 -94q0 -92 127 -92zM565.5 1012q-188.5 0 -188.5 -316q0 -309 188.5 -309t188.5 309q0 316 -188.5 316zM563 -371
q172 0 268.5 56.5t96.5 152.5q0 145 -207 146l-342 4q-43 0 -80 6q-96 -49 -96 -150q0 -102 91 -158.5t269 -56.5z" />
    <glyph glyph-name="Hcircumflex" unicode="&#x124;" horiz-adv-x="1705" 
d="M596 1552l240 328h94l239 -328l-10 -14l-276 168l-277 -168zM119 0v16l153 107v1188l-153 106v17h590v-17l-154 -106v-549h657v549l-153 106v17h590v-17l-154 -106v-1188l154 -107v-16h-590v16l153 107v592h-657v-592l154 -107v-16h-590z" />
    <glyph glyph-name="hcircumflex" unicode="&#x125;" horiz-adv-x="1286" 
d="M559 1538l-276 168l-277 -168l-10 14l240 328h94l239 -328zM1126 106l134 -90v-16h-533v16l133 90v615q0 221 -186 221q-137 0 -238 -121v-715l133 -90v-16h-532v16l133 90v1211l-133 100v17h399v-560q145 180 369 181q156 0 238.5 -86t82.5 -246v-617z" />
    <glyph glyph-name="Hbar" unicode="&#x126;" horiz-adv-x="1646" 
d="M1589 1417l-153 -106v-228h137v-47h-137v-913l153 -107v-16h-590v16l154 107v592h-657v-592l153 -107v-16h-590v16l154 107v913h-135v47h135v228l-154 106v17h590v-17l-153 -106v-228h657v228l-154 106v17h590v-17zM1153 762v274h-657v-274h657z" />
    <glyph glyph-name="hbar" unicode="&#x127;" horiz-adv-x="1286" 
d="M1126 106l134 -90v-16h-533v16l133 90v615q0 221 -186 221q-137 0 -238 -121v-715l133 -90v-16h-532v16l133 90v1070h-143v47h143v94l-133 100v17h399v-211h269v-47h-269v-302q145 180 369 181q156 0 238.5 -86t82.5 -246v-617z" />
    <glyph glyph-name="Itilde" unicode="&#x128;" horiz-adv-x="706" 
d="M49 1599l-18 5q27 113 78 175t112 62q47 0 156.5 -46t148.5 -46q45 0 73 17.5t60 70.5l17 -4q-27 -113 -77 -175.5t-112 -62.5q-49 0 -157.5 46.5t-147.5 46.5q-43 0 -71.5 -19t-61.5 -70zM59 0v16l154 107v1188l-154 106v17h590v-17l-153 -106v-1188l153 -107v-16h-590z
" />
    <glyph glyph-name="itilde" unicode="&#x129;" horiz-adv-x="579" 
d="M-18 1194l-17 4q27 113 77 175.5t114 62.5q47 0 156.5 -45t148.5 -45q45 0 72.5 17t60.5 71l16 -4q-27 -113 -77 -175.5t-111 -62.5q-49 0 -157.5 45t-147.5 45q-43 0 -71.5 -17.5t-63.5 -70.5zM51 0v16l113 90v818l-113 90v16h379v-924l113 -90v-16h-492z" />
    <glyph glyph-name="Imacron" unicode="&#x12a;" horiz-adv-x="706" 
d="M35 1686h635v-48h-635v48zM59 0v16l154 107v1188l-154 106v17h590v-17l-153 -106v-1188l153 -107v-16h-590z" />
    <glyph glyph-name="imacron" unicode="&#x12b;" horiz-adv-x="579" 
d="M-31 1280h635v-47h-635v47zM51 0v16l113 90v818l-113 90v16h379v-924l113 -90v-16h-492z" />
    <glyph glyph-name="Ibreve" unicode="&#x12c;" horiz-adv-x="706" 
d="M88 1878h16q4 -61 69 -110.5t181.5 -49.5t181 49.5t68.5 110.5h17q0 -137 -68 -225t-199 -88t-198.5 89t-67.5 224zM59 0v16l154 107v1188l-154 106v17h590v-17l-153 -106v-1188l153 -107v-16h-590z" />
    <glyph glyph-name="ibreve" unicode="&#x12d;" horiz-adv-x="579" 
d="M20 1475h17q4 -61 68.5 -110.5t181 -49.5t181 49t69.5 111h16q0 -137 -67.5 -225.5t-198.5 -88.5t-199 89.5t-68 224.5zM51 0v16l113 90v818l-113 90v16h379v-924l113 -90v-16h-492z" />
    <glyph glyph-name="Iogonek" unicode="&#x12e;" horiz-adv-x="706" 
d="M649 1417l-153 -106v-1188l153 -107v-16h-133q-145 -102 -145 -221q0 -57 29.5 -90t78.5 -33q45 0 88 16l13 -22q-88 -63 -201 -64q-80 0 -134.5 43t-54.5 115q0 76 68 136.5t213 119.5h-412v16l154 107v1188l-154 106v17h590v-17z" />
    <glyph glyph-name="iogonek" unicode="&#x12f;" horiz-adv-x="579" 
d="M451 1331l-162 -160l-162 160l162 160zM467 0q-145 -102 -145 -221q0 -57 29.5 -90t78.5 -33q45 0 88 16l12 -22q-88 -63 -200 -64q-80 0 -134.5 43t-54.5 115q0 76 67.5 136.5t213.5 119.5h-371v16l113 90v818l-113 90v16h379v-924l113 -90v-16h-76z" />
    <glyph glyph-name="Idotaccent" unicode="&#x130;" horiz-adv-x="706" 
d="M354 1896l162 -159l-162 -160l-161 160zM59 0v16l154 107v1188l-154 106v17h590v-17l-153 -106v-1188l153 -107v-16h-590z" />
    <glyph glyph-name="dotlessi" unicode="&#x131;" horiz-adv-x="579" 
d="M51 0v16l113 90v818l-113 90v16h379v-924l113 -90v-16h-492z" />
    <glyph glyph-name="Jcircumflex" unicode="&#x134;" horiz-adv-x="1142" 
d="M807 1706l-277 -168l-10 14l240 328h94l240 -328l-11 -14zM1110 1434v-17l-143 -106v-901q0 -213 -127 -326t-357 -113q-190 0 -426 97l66 368h16l217 -399q53 -18 103 -19q121 0 173 89.5t52 316.5v887l-195 106v17h621z" />
    <glyph glyph-name="jcircumflex" unicode="&#x135;" horiz-adv-x="604" 
d="M328 1475l239 -328l-10 -14l-276 167l-277 -167l-10 14l239 328h95zM41 1014v16h399v-1010q-4 -209 -112.5 -321.5t-327.5 -112.5v29q94 12 134 84t40 242v983z" />
    <glyph glyph-name="uni0136" unicode="&#x136;" horiz-adv-x="1507" 
d="M1374 139l162 -123v-16h-584v16l99 105l-420 584l-135 -130v-452l163 -107v-16h-600v16l154 107v1188l-154 106v17h590v-17l-153 -106v-668l626 596l-194 178v17h545v-21l-310 -201l-334 -317zM846 -160q49 -47 49 -110q0 -66 -63.5 -129.5t-159.5 -114.5l-13 16
q78 59 78 129q0 41 -37 82l-67 66l135 135z" />
    <glyph glyph-name="uni0137" unicode="&#x137;" horiz-adv-x="1224" 
d="M1112 119l129 -103v-16h-508v16l74 88l-289 420l-82 -67v-351l144 -90v-16h-543v16l133 90v1211l-133 100v17h399v-922l412 334l-111 168v16h439v-16l-256 -166l-199 -160zM698 -160q49 -47 50 -110q0 -66 -63.5 -129.5t-160.5 -114.5l-12 16q78 59 78 129q0 41 -37 82
l-68 66l136 135z" />
    <glyph glyph-name="kgreenlandic" unicode="&#x138;" horiz-adv-x="1224" 
d="M1112 119l129 -103v-16h-508v16l74 88l-289 420l-82 -67v-351l144 -90v-16h-543v16l133 90v807l-133 101v16h399v-518l412 334l-111 168v16h439v-16l-256 -166l-199 -160z" />
    <glyph glyph-name="Lacute" unicode="&#x139;" horiz-adv-x="1286" 
d="M391 1860h305v-17l-422 -315h-16zM59 0v16l154 107v1188l-154 106v17h590v-17l-153 -106v-1264h430l288 391h17v-438h-1172z" />
    <glyph glyph-name="lacute" unicode="&#x13a;" horiz-adv-x="604" 
d="M334 1860h305v-17l-422 -315h-16zM37 0v16l133 90v1211l-133 100v17h399v-1328l133 -90v-16h-532z" />
    <glyph glyph-name="uni013B" unicode="&#x13b;" horiz-adv-x="1286" 
d="M59 0v16l154 107v1188l-154 106v17h590v-17l-153 -106v-1264h430l288 391h17v-438h-1172zM549 -221l135 135l78 -74q49 -47 49 -110q0 -66 -63.5 -129.5t-159.5 -114.5l-13 16q78 59 78 129q0 41 -37 82z" />
    <glyph glyph-name="uni013C" unicode="&#x13c;" horiz-adv-x="604" 
d="M37 0v16l133 90v1211l-133 100v17h399v-1328l133 -90v-16h-532zM172 -221l135 135l78 -74q49 -45 49 -110.5t-63.5 -129t-159.5 -114.5l-12 16q78 59 77 129q0 41 -36 82z" />
    <glyph glyph-name="Lcaron" unicode="&#x13d;" horiz-adv-x="1286" 
d="M59 0v16l154 107v1188l-154 106v17h590v-17l-153 -106v-1264h430l288 391h17v-438h-1172zM813 1434h240v-17l-246 -364h-16z" />
    <glyph glyph-name="lcaron" unicode="&#x13e;" horiz-adv-x="649" 
d="M37 0v16l133 90v1211l-133 100v17h399v-1328l133 -90v-16h-532zM573 1434h240v-17l-246 -364h-16z" />
    <glyph glyph-name="Ldot" unicode="&#x13f;" horiz-adv-x="1228" 
d="M59 0v16l154 107v1188l-154 106v17h590v-17l-153 -106v-1264h430l288 391h17v-438h-1172zM915 944l181 -176l-181 -176l-178 176z" />
    <glyph glyph-name="ldot" unicode="&#x140;" horiz-adv-x="897" 
d="M37 0v16l133 90v1211l-133 100v17h399v-1328l133 -90v-16h-532zM723 893l178 -176l-178 -176l-178 176z" />
    <glyph glyph-name="Lslash" unicode="&#x141;" horiz-adv-x="1286" 
d="M1214 438h17v-438h-1172v16l154 107v422l-166 -88v55l166 88v711l-154 106v17h590v-17l-153 -106v-561l297 155v-53l-297 -158v-647h430z" />
    <glyph glyph-name="lslash" unicode="&#x142;" horiz-adv-x="653" 
d="M653 881l-200 -115v-660l133 -90v-16h-533v16l133 90v506l-176 -102v55l176 103v649l-133 100v17h400v-613l200 115v-55z" />
    <glyph glyph-name="Nacute" unicode="&#x143;" horiz-adv-x="1521" 
d="M803 1860h305v-17l-422 -315h-16zM37 0v16l199 207v1069l-189 125v17h432l783 -1129v907l-230 205v17h477v-17l-198 -205v-1212h-174l-852 1235v-1012l229 -207v-16h-477z" />
    <glyph glyph-name="nacute" unicode="&#x144;" horiz-adv-x="1300" 
d="M1010 1438l-422 -316h-17l134 332h305v-16zM1143 106l133 -90v-16h-533v16l134 90v615q0 221 -187 221q-137 0 -239 -123v-713l133 -90v-16h-533v16l133 90v818l-133 90v16h359l39 -158q147 182 370 183q158 0 241 -86t83 -246v-617z" />
    <glyph glyph-name="uni0145" unicode="&#x145;" horiz-adv-x="1521" 
d="M37 0v16l199 207v1069l-189 125v17h432l783 -1129v907l-230 205v17h477v-17l-198 -205v-1212h-174l-852 1235v-1012l229 -207v-16h-477zM633 -221l135 135l78 -74q49 -47 49 -110q0 -66 -63.5 -129.5t-159.5 -114.5l-13 16q78 59 78 129q0 41 -37 82z" />
    <glyph glyph-name="uni0146" unicode="&#x146;" horiz-adv-x="1300" 
d="M1143 106l133 -90v-16h-533v16l134 90v615q0 221 -187 221q-137 0 -239 -123v-713l133 -90v-16h-533v16l133 90v818l-133 90v16h359l39 -158q147 182 370 183q158 0 241 -86t83 -246v-617zM748 -160q49 -47 49 -110q0 -66 -63.5 -129.5t-160.5 -114.5l-12 16
q78 59 78 129q0 41 -37 82l-67 66l135 135z" />
    <glyph glyph-name="Ncaron" unicode="&#x147;" horiz-adv-x="1521" 
d="M479 1886l10 15l277 -168l276 168l11 -15l-240 -327h-94zM37 0v16l199 207v1069l-189 125v17h432l783 -1129v907l-230 205v17h477v-17l-198 -205v-1212h-174l-852 1235v-1012l229 -207v-16h-477z" />
    <glyph glyph-name="ncaron" unicode="&#x148;" horiz-adv-x="1300" 
d="M715 1153h-94l-240 328l10 14l277 -168l276 168l10 -14zM1143 106l133 -90v-16h-533v16l134 90v615q0 221 -187 221q-137 0 -239 -123v-713l133 -90v-16h-533v16l133 90v818l-133 90v16h359l39 -158q147 182 370 183q158 0 241 -86t83 -246v-617z" />
    <glyph glyph-name="Eng" unicode="&#x14a;" horiz-adv-x="1521" 
d="M1032 1434h477v-17l-198 -205v-1212q0 -180 -95.5 -278.5t-283.5 -98.5v29q90 12 134 77.5t44 225.5v84l-825 1196v-1012l229 -207v-16h-477v16l199 207v1069l-189 125v17h432l783 -1129v907l-230 205v17z" />
    <glyph glyph-name="eng" unicode="&#x14b;" horiz-adv-x="1167" 
d="M819 1053q158 0 241 -85t83 -245v-692q0 -213 -109.5 -329t-331.5 -116v29q94 12 134.5 84t40.5 242v780q0 223 -187 223q-137 0 -239 -123v-715l133 -90v-16h-533v16l133 90v818l-133 90v16h359l39 -160q151 183 370 183z" />
    <glyph glyph-name="Omacron" unicode="&#x14c;" horiz-adv-x="1628" 
d="M498 1686h635v-48h-635v48zM815 -29q-330 0 -533.5 207t-203.5 539q0 334 203.5 539.5t533.5 205.5t533.5 -205.5t203.5 -539.5q0 -332 -204.5 -539t-532.5 -207zM815.5 18q194.5 0 309 176.5t114.5 522.5t-114.5 522t-309 176t-309.5 -176t-115 -522t115 -522.5
t309.5 -176.5z" />
    <glyph glyph-name="omacron" unicode="&#x14d;" horiz-adv-x="1208" 
d="M287 1280h635v-47h-635v47zM604.5 -25q-239.5 0 -391.5 148.5t-152 392.5t152 391.5t391 147.5q242 0 392.5 -147.5t150.5 -391.5q0 -246 -151.5 -393.5t-391 -147.5zM604 18q250 0 250 498q0 496 -250 496q-248 0 -248 -496q0 -498 248 -498z" />
    <glyph glyph-name="Obreve" unicode="&#x14e;" horiz-adv-x="1628" 
d="M549 1878h16q4 -61 68.5 -110.5t181.5 -49.5t181.5 49.5t68.5 110.5h16q0 -137 -67.5 -225t-198.5 -88t-198.5 89t-67.5 224zM815 -29q-330 0 -533.5 207t-203.5 539q0 334 203.5 539.5t533.5 205.5t533.5 -205.5t203.5 -539.5q0 -332 -204.5 -539t-532.5 -207zM815.5 18
q194.5 0 309 176.5t114.5 522.5t-114.5 522t-309 176t-309.5 -176t-115 -522t115 -522.5t309.5 -176.5z" />
    <glyph glyph-name="obreve" unicode="&#x14f;" horiz-adv-x="1208" 
d="M338 1475h16q4 -61 68.5 -110.5t181.5 -49.5t181.5 49t68.5 111h16q0 -137 -67.5 -225.5t-198.5 -88.5t-198.5 89.5t-67.5 224.5zM604.5 -25q-239.5 0 -391.5 148.5t-152 392.5t152 391.5t391 147.5q242 0 392.5 -147.5t150.5 -391.5q0 -246 -151.5 -393.5t-391 -147.5z
M604 18q250 0 250 498q0 496 -250 496q-248 0 -248 -496q0 -498 248 -498z" />
    <glyph glyph-name="Ohungarumlaut" unicode="&#x150;" horiz-adv-x="1628" 
d="M713 1860h254v-17l-361 -315h-16zM1049 1860h254v-17l-361 -315h-16zM815 -29q-330 0 -533.5 207t-203.5 539q0 334 203.5 539.5t533.5 205.5t533.5 -205.5t203.5 -539.5q0 -332 -204.5 -539t-532.5 -207zM815.5 18q194.5 0 309 176.5t114.5 522.5t-114.5 522t-309 176
t-309.5 -176t-115 -522t115 -522.5t309.5 -176.5z" />
    <glyph glyph-name="ohungarumlaut" unicode="&#x151;" horiz-adv-x="1208" 
d="M502 1454h254v-16l-361 -316h-16zM838 1454h254v-16l-361 -316h-16zM604.5 -25q-239.5 0 -391.5 148.5t-152 392.5t152 391.5t391 147.5q242 0 392.5 -147.5t150.5 -391.5q0 -246 -151.5 -393.5t-391 -147.5zM604 18q250 0 250 498q0 496 -250 496q-248 0 -248 -496
q0 -498 248 -498z" />
    <glyph glyph-name="OE" unicode="&#x152;" horiz-adv-x="2224" 
d="M2116 416h16v-416h-1335q-326 0 -522.5 200.5t-196.5 528.5q0 322 200.5 513.5t528.5 191.5h1286v-383h-16l-256 335h-461v-624h280l177 190h16v-430h-16l-177 195h-280v-670h491zM866 47h211v1339h-200q-229 0 -357.5 -168.5t-128.5 -496.5q0 -332 124 -503t351 -171z
" />
    <glyph glyph-name="oe" unicode="&#x153;" horiz-adv-x="1914" 
d="M1143 526q6 -184 101 -290.5t241 -106.5q229 0 338 199l32 -13q-47 -152 -167.5 -246t-307.5 -94q-238 0 -387 160q-147 -160 -389 -160q-240 0 -391.5 148.5t-151.5 392.5t152 391.5t391 147.5q246 0 389 -160q147 160 398 160q219 0 346 -124t127 -356v-49h-721z
M1143 569h456v23q0 227 -52 324.5t-158 97.5q-109 0 -176.5 -114t-69.5 -331zM604 18q250 0 250 498q0 496 -250 496q-248 0 -248 -496q0 -498 248 -498z" />
    <glyph glyph-name="Racute" unicode="&#x154;" horiz-adv-x="1441" 
d="M711 1860h305v-17l-422 -315h-16zM59 0v16l154 107v1188l-154 106v17h695q256 0 397 -96.5t141 -276.5q0 -160 -118.5 -264.5t-323.5 -124.5l168 -39l305 -508l141 -109v-16h-385l-374 655h-209v-532l153 -107v-16h-590zM496 702h188q145 0 228 91.5t83 255.5
q0 160 -90 248.5t-231 88.5h-178v-684z" />
    <glyph glyph-name="racute" unicode="&#x155;" horiz-adv-x="911" 
d="M762 1438l-422 -316h-16l133 332h305v-16zM752 1055q96 0 159 -35l-114 -318h-15l-151 242q-109 -29 -180 -158v-680l182 -90v-16h-582v16l133 90v818l-133 90v16h359l39 -184q123 209 303 209z" />
    <glyph glyph-name="uni0156" unicode="&#x156;" horiz-adv-x="1441" 
d="M59 0v16l154 107v1188l-154 106v17h695q256 0 397 -96.5t141 -276.5q0 -160 -118.5 -264.5t-323.5 -124.5l168 -39l305 -508l141 -109v-16h-385l-374 655h-209v-532l153 -107v-16h-590zM496 702h188q145 0 228 91.5t83 255.5q0 160 -90 248.5t-231 88.5h-178v-684z
M633 -221l135 135l78 -74q49 -47 49 -110q0 -66 -63.5 -129.5t-159.5 -114.5l-13 16q78 59 78 129q0 41 -37 82z" />
    <glyph glyph-name="uni0157" unicode="&#x157;" horiz-adv-x="911" 
d="M752 1055q96 0 159 -35l-114 -318h-15l-151 242q-109 -29 -180 -158v-680l182 -90v-16h-582v16l133 90v818l-133 90v16h359l39 -184q123 209 303 209zM444 -160q49 -47 50 -110q0 -66 -63.5 -129.5t-160.5 -114.5l-12 16q78 59 78 129q0 41 -37 82l-68 66l136 135z" />
    <glyph glyph-name="Rcaron" unicode="&#x158;" horiz-adv-x="1441" 
d="M387 1886l10 15l277 -168l276 168l11 -15l-240 -327h-94zM59 0v16l154 107v1188l-154 106v17h695q256 0 397 -96.5t141 -276.5q0 -160 -118.5 -264.5t-323.5 -124.5l168 -39l305 -508l141 -109v-16h-385l-374 655h-209v-532l153 -107v-16h-590zM496 702h188
q145 0 228 91.5t83 255.5q0 160 -90 248.5t-231 88.5h-178v-684z" />
    <glyph glyph-name="rcaron" unicode="&#x159;" horiz-adv-x="911" 
d="M467 1153h-94l-240 328l10 14l277 -168l276 168l11 -14zM752 1055q96 0 159 -35l-114 -318h-15l-151 242q-109 -29 -180 -158v-680l182 -90v-16h-582v16l133 90v818l-133 90v16h359l39 -184q123 209 303 209z" />
    <glyph glyph-name="Sacute" unicode="&#x15a;" horiz-adv-x="1282" 
d="M653 1860h305v-17l-421 -315h-17zM82 68l86 417l18 -4l215 -426q104 -37 205 -37q168 0 265.5 82t97.5 211q0 100 -56.5 162t-181.5 105l-282 96q-338 115 -338 397q0 186 146 288.5t370 102.5q217 0 514 -86l-84 -383h-17l-198 389q-96 33 -199 33q-141 0 -230 -67.5
t-89 -173.5q0 -86 50 -141.5t169 -96.5l278 -96q193 -66 288 -163t95 -241q0 -217 -166 -341t-411 -124q-213 1 -545 97z" />
    <glyph glyph-name="sacute" unicode="&#x15b;" horiz-adv-x="1015" 
d="M539 1454h305v-16l-422 -316h-16zM797 700l-166 295q-76 16 -117 17q-94 0 -156.5 -43t-62.5 -111q0 -57 37 -93t127 -71l203 -69q141 -51 212.5 -119t71.5 -182q0 -160 -130 -254.5t-316 -94.5q-178 0 -422 78l84 324h16l162 -330q78 -29 143 -29q115 0 183.5 51.5
t68.5 133.5q0 68 -41 110.5t-131 75.5l-198 72q-135 49 -198 122.5t-63 176.5q0 139 112 217t286 78q178 0 411 -68l-100 -287h-16z" />
    <glyph glyph-name="Scircumflex" unicode="&#x15c;" horiz-adv-x="1282" 
d="M332 1552l239 328h95l239 -328l-10 -14l-277 168l-276 -168zM82 68l86 417l18 -4l215 -426q104 -37 205 -37q168 0 265.5 82t97.5 211q0 100 -56.5 162t-181.5 105l-282 96q-338 115 -338 397q0 186 146 288.5t370 102.5q217 0 514 -86l-84 -383h-17l-198 389
q-96 33 -199 33q-141 0 -230 -67.5t-89 -173.5q0 -86 50 -141.5t169 -96.5l278 -96q193 -66 288 -163t95 -241q0 -217 -166 -341t-411 -124q-213 1 -545 97z" />
    <glyph glyph-name="scircumflex" unicode="&#x15d;" horiz-adv-x="1015" 
d="M215 1147l240 328h94l239 -328l-10 -14l-276 167l-277 -167zM797 700l-166 295q-76 16 -117 17q-94 0 -156.5 -43t-62.5 -111q0 -57 37 -93t127 -71l203 -69q141 -51 212.5 -119t71.5 -182q0 -160 -130 -254.5t-316 -94.5q-178 0 -422 78l84 324h16l162 -330
q78 -29 143 -29q115 0 183.5 51.5t68.5 133.5q0 68 -41 110.5t-131 75.5l-198 72q-135 49 -198 122.5t-63 176.5q0 139 112 217t286 78q178 0 411 -68l-100 -287h-16z" />
    <glyph glyph-name="Scedilla" unicode="&#x15e;" horiz-adv-x="1282" 
d="M1204 436q0 -209 -152.5 -330.5t-383.5 -134.5l-45 -84q223 0 223 -135q0 -74 -77 -120t-194 -46q-53 0 -110 15l8 24q41 -6 76 -6q61 0 101 28.5t40 76.5q0 90 -147 90l-15 6l93 151q-203 0 -539 97l86 417l18 -4l215 -426q104 -37 205 -37q168 0 265.5 82t97.5 211
q0 100 -56.5 162t-181.5 105l-282 96q-338 115 -338 397q0 186 146 288.5t370 102.5q217 0 514 -86l-84 -383h-17l-198 389q-96 33 -199 33q-141 0 -230 -67.5t-89 -173.5q0 -86 50 -141.5t169 -96.5l278 -96q193 -66 288 -163.5t95 -240.5z" />
    <glyph glyph-name="scedilla" unicode="&#x15f;" horiz-adv-x="1015" 
d="M946 324q0 -154 -118.5 -246t-295.5 -103l-47 -88q223 0 224 -135q0 -74 -77 -120t-194 -46q-53 0 -110 15l8 24q41 -6 76 -6q61 0 101 28.5t40 76.5q0 90 -147 90l-15 6l94 155q-172 2 -407 78l84 324h16l162 -330q78 -29 143 -29q115 0 183.5 51.5t68.5 133.5
q0 68 -41 110.5t-131 75.5l-198 72q-135 49 -198 122.5t-63 176.5q0 139 112 217t286 78q178 0 411 -68l-100 -287h-16l-166 295q-76 16 -117 17q-94 0 -156.5 -43t-62.5 -111q0 -57 37 -93t127 -71l203 -69q141 -51 212.5 -118.5t71.5 -182.5z" />
    <glyph glyph-name="Scaron" unicode="&#x160;" horiz-adv-x="1282" 
d="M332 1886l10 15l276 -168l277 168l10 -15l-239 -327h-95zM82 68l86 417l18 -4l215 -426q104 -37 205 -37q168 0 265.5 82t97.5 211q0 100 -56.5 162t-181.5 105l-282 96q-338 115 -338 397q0 186 146 288.5t370 102.5q217 0 514 -86l-84 -383h-17l-198 389
q-96 33 -199 33q-141 0 -230 -67.5t-89 -173.5q0 -86 50 -141.5t169 -96.5l278 -96q193 -66 288 -163t95 -241q0 -217 -166 -341t-411 -124q-213 1 -545 97z" />
    <glyph glyph-name="scaron" unicode="&#x161;" horiz-adv-x="1015" 
d="M215 1481l10 14l277 -168l276 168l10 -14l-239 -328h-94zM797 700l-166 295q-76 16 -117 17q-94 0 -156.5 -43t-62.5 -111q0 -57 37 -93t127 -71l203 -69q141 -51 212.5 -119t71.5 -182q0 -160 -130 -254.5t-316 -94.5q-178 0 -422 78l84 324h16l162 -330q78 -29 143 -29
q115 0 183.5 51.5t68.5 133.5q0 68 -41 110.5t-131 75.5l-198 72q-135 49 -198 122.5t-63 176.5q0 139 112 217t286 78q178 0 411 -68l-100 -287h-16z" />
    <glyph glyph-name="uni0162" unicode="&#x162;" horiz-adv-x="1337" 
d="M43 1434h1253v-441h-16l-238 393h-231v-1263l154 -107v-16h-273l-59 -113q223 0 223 -135q0 -74 -77 -120t-193 -46q-53 0 -111 15l8 24q41 -6 76 -6q61 0 101 28.5t40 76.5q0 90 -147 90l-14 6l108 180h-272v16l153 107v1263h-233l-236 -393h-16v441z" />
    <glyph glyph-name="uni0163" unicode="&#x163;" horiz-adv-x="729" 
d="M739 987h-309v-747q0 -70 34 -109t91 -39q94 0 145 92l27 -10q-33 -84 -107.5 -141.5t-183.5 -57.5q-29 0 -43 2l-47 -90q223 0 223 -135q0 -74 -76.5 -120t-193.5 -46q-53 0 -111 15l9 24q39 -6 75 -6q61 0 101.5 28.5t40.5 76.5q0 90 -148 90l-14 6l98 164
q-90 20 -138 84.5t-48 160.5v758h-154v43h154l250 297h16v-297h309v-43z" />
    <glyph glyph-name="Tcaron" unicode="&#x164;" horiz-adv-x="1337" 
d="M383 1886l10 15l277 -168l276 168l10 -15l-239 -327h-94zM43 993v441h1253v-441h-16l-238 393h-231v-1263l154 -107v-16h-590v16l153 107v1263h-233l-236 -393h-16z" />
    <glyph glyph-name="tcaron" unicode="&#x165;" horiz-adv-x="751" 
d="M567 1464h240v-16l-246 -365h-16zM430 1327v-297h309v-43h-309v-747q0 -70 34 -109t91 -39q94 0 145 92l27 -10q-33 -84 -107.5 -141.5t-183.5 -57.5q-131 0 -201.5 69t-70.5 185v758h-154v43h154l250 297h16z" />
    <glyph glyph-name="Tbar" unicode="&#x166;" horiz-adv-x="1337" 
d="M43 1434h1253v-441h-16l-238 393h-231v-626h276v-47h-276v-590l154 -107v-16h-590v16l153 107v590h-280v47h280v626h-233l-236 -393h-16v441z" />
    <glyph glyph-name="tbar" unicode="&#x167;" horiz-adv-x="757" 
d="M750 987h-310v-246h291v-47h-291v-454q0 -70 34 -109t91 -39q94 0 146 92l26 -10q-33 -84 -107.5 -141.5t-183.5 -57.5q-131 0 -201.5 69t-70.5 185v465h-137v47h137v246h-154v43h154l250 297h16v-297h310v-43z" />
    <glyph glyph-name="Utilde" unicode="&#x168;" horiz-adv-x="1476" 
d="M500 1599l-19 5q27 113 78 175t113 62q47 0 156.5 -46t148.5 -46q45 0 72.5 17.5t60.5 70.5l16 -4q-27 -113 -77 -175.5t-111 -62.5q-49 0 -157.5 46.5t-147.5 46.5q-43 0 -71.5 -19t-61.5 -70zM23 1417v17h589v-17l-153 -106v-774q0 -213 100 -334t292.5 -121t293 132
t100.5 351v617l-211 235v17h461v-17l-201 -235v-617q0 -272 -139 -433t-405 -161q-270 0 -422 146.5t-152 404.5v789z" />
    <glyph glyph-name="utilde" unicode="&#x169;" horiz-adv-x="1269" 
d="M444 1282q-43 0 -71.5 -17.5t-61.5 -70.5l-18 4q27 113 77 175.5t113 62.5q47 0 157 -45t148 -45q45 0 73 17t61 71l16 -4q-27 -113 -77 -175.5t-111 -62.5q-49 0 -158 45t-148 45zM1102 106l133 -90v-16h-358l-41 162q-137 -186 -353 -187q-158 0 -240.5 87.5
t-82.5 246.5v615l-133 90v16h399v-719q0 -223 182 -223q131 0 228 129v707l-134 90v16h400v-924z" />
    <glyph glyph-name="Umacron" unicode="&#x16a;" horiz-adv-x="1476" 
d="M487 1686h635v-48h-635v48zM23 1417v17h589v-17l-153 -106v-774q0 -213 100 -334t292.5 -121t293 132t100.5 351v617l-211 235v17h461v-17l-201 -235v-617q0 -272 -139 -433t-405 -161q-270 0 -422 146.5t-152 404.5v789z" />
    <glyph glyph-name="umacron" unicode="&#x16b;" horiz-adv-x="1269" 
d="M932 1280v-47h-635v47h635zM1102 106l133 -90v-16h-358l-41 162q-137 -186 -353 -187q-158 0 -240.5 87.5t-82.5 246.5v615l-133 90v16h399v-719q0 -223 182 -223q131 0 228 129v707l-134 90v16h400v-924z" />
    <glyph glyph-name="Ubreve" unicode="&#x16c;" horiz-adv-x="1476" 
d="M539 1878h16q4 -61 68.5 -110.5t181.5 -49.5t181.5 49.5t68.5 110.5h16q0 -137 -67.5 -225t-198.5 -88t-198.5 89t-67.5 224zM23 1417v17h589v-17l-153 -106v-774q0 -213 100 -334t292.5 -121t293 132t100.5 351v617l-211 235v17h461v-17l-201 -235v-617
q0 -272 -139 -433t-405 -161q-270 0 -422 146.5t-152 404.5v789z" />
    <glyph glyph-name="ubreve" unicode="&#x16d;" horiz-adv-x="1269" 
d="M614 1161q-131 0 -198.5 89t-67.5 225h17q4 -61 68.5 -110.5t181 -49.5t181 49t68.5 111h17q0 -137 -68 -225.5t-199 -88.5zM1102 106l133 -90v-16h-358l-41 162q-137 -186 -353 -187q-158 0 -240.5 87.5t-82.5 246.5v615l-133 90v16h399v-719q0 -223 182 -223
q131 0 228 129v707l-134 90v16h400v-924z" />
    <glyph glyph-name="Uring" unicode="&#x16e;" horiz-adv-x="1476" 
d="M805 1544q-100 0 -166 55.5t-66 143.5q0 86 66 141t166 55q98 0 163.5 -55t65.5 -141t-65.5 -142.5t-163.5 -56.5zM805 1575q96 0 96 168q0 166 -96 166t-96 -166q0 -168 96 -168zM23 1417v17h589v-17l-153 -106v-774q0 -213 100 -334t292.5 -121t293 132t100.5 351v617
l-211 235v17h461v-17l-201 -235v-617q0 -272 -139 -433t-405 -161q-270 0 -422 146.5t-152 404.5v789z" />
    <glyph glyph-name="uring" unicode="&#x16f;" horiz-adv-x="1269" 
d="M616 1139q-100 0 -165.5 55t-65.5 143q0 86 65.5 141.5t165.5 55.5q98 0 164 -55.5t66 -141.5t-66 -142t-164 -56zM616.5 1503q-96.5 0 -96.5 -166q0 -168 96.5 -168t96.5 168q0 166 -96.5 166zM1102 106l133 -90v-16h-358l-41 162q-137 -186 -353 -187
q-158 0 -240.5 87.5t-82.5 246.5v615l-133 90v16h399v-719q0 -223 182 -223q131 0 228 129v707l-134 90v16h400v-924z" />
    <glyph glyph-name="Uhungarumlaut" unicode="&#x170;" horiz-adv-x="1476" 
d="M702 1860h254v-17l-360 -315h-16zM1038 1860h254v-17l-360 -315h-17zM23 1417v17h589v-17l-153 -106v-774q0 -213 100 -334t292.5 -121t293 132t100.5 351v617l-211 235v17h461v-17l-201 -235v-617q0 -272 -139 -433t-405 -161q-270 0 -422 146.5t-152 404.5v789z" />
    <glyph glyph-name="uhungarumlaut" unicode="&#x171;" horiz-adv-x="1269" 
d="M766 1438l-360 -316h-17l123 332h254v-16zM741 1122h-16l123 332h254v-16zM1102 106l133 -90v-16h-358l-41 162q-137 -186 -353 -187q-158 0 -240.5 87.5t-82.5 246.5v615l-133 90v16h399v-719q0 -223 182 -223q131 0 228 129v707l-134 90v16h400v-924z" />
    <glyph glyph-name="Uogonek" unicode="&#x172;" horiz-adv-x="1476" 
d="M1034 1434h461v-17l-201 -235v-617q0 -217 -89 -365.5t-261 -201.5q-143 -100 -143 -219q0 -57 29.5 -90t78.5 -33q45 0 88 16l13 -22q-88 -63 -201 -64q-80 0 -134 43t-54 115q0 133 229 233q-49 -6 -100 -6q-270 0 -422 146.5t-152 404.5v789l-153 106v17h589v-17
l-153 -106v-774q0 -213 100 -334t292.5 -121t293 132t100.5 351v617l-211 235v17z" />
    <glyph glyph-name="uogonek" unicode="&#x173;" horiz-adv-x="1269" 
d="M1157 0q-145 -102 -145 -221q0 -57 29.5 -90t78.5 -33q45 0 88 16l13 -22q-88 -63 -201 -64q-80 0 -134.5 43t-54.5 115q0 76 68 136.5t213 119.5h-235l-41 162q-137 -186 -353 -187q-158 0 -240.5 87.5t-82.5 246.5v615l-133 90v16h399v-719q0 -223 182 -223
q131 0 228 129v707l-134 90v16h400v-924l133 -90v-16h-78z" />
    <glyph glyph-name="Wcircumflex" unicode="&#x174;" horiz-adv-x="2074" 
d="M1081 1706l-276 -168l-10 14l239 328h94l240 -328l-10 -14zM1673 1434h443v-17l-193 -239l-379 -1178h-188l-301 891l-299 -891h-191l-456 1294l-127 123v17h565v-17l-150 -106l383 -1088l250 744l-110 327l-125 123v17h561v-17l-148 -106l359 -1082l307 955l-201 233v17
z" />
    <glyph glyph-name="wcircumflex" unicode="&#x175;" horiz-adv-x="1658" 
d="M852 1300l-277 -167l-10 14l240 328h94l240 -328l-11 -14zM1339 1030h355v-16l-148 -205l-309 -809h-166l-244 602l-229 -602h-166l-373 918l-98 96v16h504v-16l-123 -90l285 -723l176 461l-105 258l-100 94v16h506v-16l-123 -90l285 -723l233 610l-160 203v16z" />
    <glyph glyph-name="Ycircumflex" unicode="&#x176;" horiz-adv-x="1363" 
d="M739 1706l-276 -168l-10 14l239 328h94l240 -328l-10 -14zM954 1434h451v-17l-219 -227l-352 -569v-498l143 -107v-16h-569v16l143 107v461l-428 710l-143 123v17h585v-17l-129 -106l375 -635l319 520l-176 221v17z" />
    <glyph glyph-name="ycircumflex" unicode="&#x177;" horiz-adv-x="1118" 
d="M618 1300l-276 -167l-10 14l239 328h95l239 -328l-10 -14zM786 1030h355v-16l-154 -209l-426 -1032q-74 -186 -217 -187q-66 0 -139 33l8 240l14 2q145 -80 224 -80q68 0 100 80l8 20l-469 1037l-106 96v16h524v-16l-133 -90l315 -725l252 612l-156 203v16z" />
    <glyph glyph-name="Ydieresis" unicode="&#x178;" horiz-adv-x="1363" 
d="M700 1712l-151 -151l-154 151l154 150zM1083 1712l-153 -151l-150 151l150 150zM954 1434h451v-17l-219 -227l-352 -569v-498l143 -107v-16h-569v16l143 107v461l-428 710l-143 123v17h585v-17l-129 -106l375 -635l319 520l-176 221v17z" />
    <glyph glyph-name="Zacute" unicode="&#x179;" horiz-adv-x="1341" 
d="M711 1860h305v-17l-422 -315h-16zM39 0v47l893 1339h-543l-258 -368h-16v416h1145v-48l-893 -1339h606l274 414h17v-461h-1225z" />
    <glyph glyph-name="zacute" unicode="&#x17a;" horiz-adv-x="1038" 
d="M547 1454h305v-16l-422 -316h-16zM51 0v41l615 946h-340l-211 -321h-17v364h865v-43l-607 -944h361l223 352h16v-395h-905z" />
    <glyph glyph-name="Zdotaccent" unicode="&#x17b;" horiz-adv-x="1341" 
d="M676 1896l162 -159l-162 -160l-162 160zM39 0v47l893 1339h-543l-258 -368h-16v416h1145v-48l-893 -1339h606l274 414h17v-461h-1225z" />
    <glyph glyph-name="zdotaccent" unicode="&#x17c;" horiz-adv-x="1038" 
d="M512 1491l162 -160l-162 -160l-162 160zM51 0v41l615 946h-340l-211 -321h-17v364h865v-43l-607 -944h361l223 352h16v-395h-905z" />
    <glyph glyph-name="Zcaron" unicode="&#x17d;" horiz-adv-x="1341" 
d="M389 1886l10 15l277 -168l276 168l11 -15l-240 -327h-94zM39 0v47l893 1339h-543l-258 -368h-16v416h1145v-48l-893 -1339h606l274 414h17v-461h-1225z" />
    <glyph glyph-name="zcaron" unicode="&#x17e;" horiz-adv-x="1038" 
d="M225 1481l11 14l276 -168l276 168l11 -14l-240 -328h-94zM51 0v41l615 946h-340l-211 -321h-17v364h865v-43l-607 -944h361l223 352h16v-395h-905z" />
    <glyph glyph-name="florin" unicode="&#x192;" horiz-adv-x="1138" 
d="M846 1483q127 0 303 -43l-131 -277h-17l-98 273q-23 6 -51 6q-45 0 -81 -45t-46 -135l-57 -461h307v-47h-313l-89 -719q-29 -227 -138 -338t-273 -111q-139 0 -295 43l129 275h16l99 -273q33 -4 45 -4q45 0 79.5 47t47.5 148l114 932h-200v47h206l33 272q50 410 410 410z
" />
    <glyph glyph-name="uni0218" unicode="&#x218;" horiz-adv-x="1282" 
d="M82 68l86 417l18 -4l215 -426q104 -37 205 -37q168 0 265.5 82t97.5 211q0 100 -56.5 162t-181.5 105l-282 96q-338 115 -338 397q0 186 146 288.5t370 102.5q217 0 514 -86l-84 -383h-17l-198 389q-96 33 -199 33q-141 0 -230 -67.5t-89 -173.5q0 -86 50 -141.5
t169 -96.5l278 -96q193 -66 288 -163t95 -241q0 -217 -166 -341t-411 -124q-213 1 -545 97zM539 -221l135 135l78 -74q49 -47 49 -110q0 -66 -63.5 -129.5t-159.5 -114.5l-13 16q78 59 78 129q0 41 -37 82z" />
    <glyph glyph-name="uni0219" unicode="&#x219;" horiz-adv-x="1015" 
d="M797 700l-166 295q-76 16 -117 17q-94 0 -156.5 -43t-62.5 -111q0 -57 37 -93t127 -71l203 -69q141 -51 212.5 -119t71.5 -182q0 -160 -130 -254.5t-316 -94.5q-178 0 -422 78l84 324h16l162 -330q78 -29 143 -29q115 0 183.5 51.5t68.5 133.5q0 68 -41 110.5t-131 75.5
l-198 72q-135 49 -198 122.5t-63 176.5q0 139 112 217t286 78q178 0 411 -68l-100 -287h-16zM408 -221l135 135l78 -74q49 -47 49 -110q0 -66 -63.5 -129.5t-160.5 -114.5l-12 16q78 59 78 129q0 41 -37 82z" />
    <glyph glyph-name="uni021A" unicode="&#x21a;" horiz-adv-x="1337" 
d="M43 993v441h1253v-441h-16l-238 393h-231v-1263l154 -107v-16h-590v16l153 107v1263h-233l-236 -393h-16zM547 -221l135 135l78 -74q49 -47 49 -110q0 -66 -63.5 -129.5t-159.5 -114.5l-13 16q78 59 78 129q0 41 -37 82z" />
    <glyph glyph-name="uni021B" unicode="&#x21b;" horiz-adv-x="729" 
d="M739 987h-309v-747q0 -70 34 -109t91 -39q94 0 145 92l27 -10q-33 -84 -107.5 -141.5t-183.5 -57.5q-131 0 -201.5 69t-70.5 185v758h-154v43h154l250 297h16v-297h309v-43zM471 -160q49 -47 49 -110q0 -66 -63.5 -129.5t-159.5 -114.5l-12 16q78 59 77 129q0 41 -36 82
l-68 66l135 135z" />
    <glyph glyph-name="uni0237" unicode="&#x237;" horiz-adv-x="604" 
d="M41 1030h399v-1010q-4 -209 -112.5 -321.5t-327.5 -112.5v29q94 12 134 84t40 242v983l-133 90v16z" />
    <glyph glyph-name="circumflex" unicode="&#x2c6;" horiz-adv-x="696" 
d="M61 1147l240 328h94l240 -328l-10 -14l-277 167l-276 -167z" />
    <glyph glyph-name="caron" unicode="&#x2c7;" horiz-adv-x="696" 
d="M61 1481l11 14l276 -168l277 168l10 -14l-240 -328h-94z" />
    <glyph glyph-name="breve" unicode="&#x2d8;" horiz-adv-x="655" 
d="M61 1475h17q4 -61 68.5 -110.5t181 -49.5t181 49t69.5 111h16q0 -137 -67.5 -225.5t-198.5 -88.5t-199 89.5t-68 224.5z" />
    <glyph glyph-name="dotaccent" unicode="&#x2d9;" horiz-adv-x="446" 
d="M223 1493l162 -160l-162 -159l-162 159z" />
    <glyph glyph-name="ring" unicode="&#x2da;" horiz-adv-x="583" 
d="M293 1139q-100 0 -166 55t-66 143q0 86 66 141.5t166 55.5q98 0 163.5 -55.5t65.5 -141.5t-65.5 -142t-163.5 -56zM293 1169q96 0 96 168q0 166 -96 166t-96 -166q0 -168 96 -168z" />
    <glyph glyph-name="ogonek" unicode="&#x2db;" horiz-adv-x="512" 
d="M250 -414q-80 0 -134.5 43t-54.5 115q0 76 68 136.5t213 119.5h45q-145 -102 -145 -221q0 -57 29.5 -90t78.5 -33q45 0 88 16l13 -22q-88 -64 -201 -64z" />
    <glyph glyph-name="tilde" unicode="&#x2dc;" horiz-adv-x="768" 
d="M80 1194l-19 4q27 113 77 175.5t114 62.5q47 0 156.5 -45t148.5 -45q45 0 72.5 17t60.5 71l17 -4q-27 -113 -77 -175.5t-112 -62.5q-49 0 -157.5 45t-147.5 45q-43 0 -71.5 -17.5t-61.5 -70.5z" />
    <glyph glyph-name="hungarumlaut" unicode="&#x2dd;" horiz-adv-x="835" 
d="M184 1454h254v-16l-360 -316h-17zM520 1454h254v-16l-360 -316h-17z" />
    <glyph glyph-name="gravecomb" unicode="&#x300;" 
d="M-195 1454l134 -332h-17l-422 316v16h305z" />
    <glyph glyph-name="acutecomb" unicode="&#x301;" 
d="M-367 1454h306v-16l-422 -316h-17z" />
    <glyph glyph-name="uni0302" unicode="&#x302;" 
d="M-635 1147l240 328h94l240 -328l-11 -14l-276 167l-277 -167z" />
    <glyph glyph-name="tildecomb" unicode="&#x303;" 
d="M-688 1194l-19 4q27 113 77 175.5t114 62.5q47 0 156.5 -45t148.5 -45q45 0 72.5 17t60.5 71l17 -4q-27 -113 -77 -175.5t-112 -62.5q-49 0 -157.5 45t-147.5 45q-43 0 -71.5 -17.5t-61.5 -70.5z" />
    <glyph glyph-name="uni0304" unicode="&#x304;" 
d="M-696 1280h635v-47h-635v47z" />
    <glyph glyph-name="uni0306" unicode="&#x306;" 
d="M-594 1475h16q4 -61 69 -110.5t181.5 -49.5t181 49t68.5 111h17q0 -137 -68 -225.5t-199 -88.5t-198.5 89.5t-67.5 224.5z" />
    <glyph glyph-name="uni0307" unicode="&#x307;" 
d="M-223 1491l162 -160l-162 -160l-162 160z" />
    <glyph glyph-name="uni0308" unicode="&#x308;" 
d="M-596 1456l152 -149l-152 -152l-154 152zM-215 1456l154 -149l-154 -152l-150 152z" />
    <glyph glyph-name="uni030A" unicode="&#x30a;" 
d="M-291 1139q-100 0 -165.5 55t-65.5 143q0 86 65.5 141.5t165.5 55.5q98 0 164 -55.5t66 -141.5t-66 -142t-164 -56zM-291 1169q96 0 96 168q0 166 -96 166t-96 -166q0 -168 96 -168z" />
    <glyph glyph-name="uni030B" unicode="&#x30b;" 
d="M-651 1454h254v-16l-361 -316h-16zM-315 1454h254v-16l-361 -316h-16z" />
    <glyph glyph-name="uni030C" unicode="&#x30c;" 
d="M-635 1481l10 14l277 -168l276 168l11 -14l-240 -328h-94z" />
    <glyph glyph-name="uni0312" unicode="&#x312;" 
d="M-61 1282l-136 -135l-77 74q-49 45 -49.5 110.5t63 129t160.5 114.5l12 -16q-78 -57 -78 -129q0 -41 37 -82z" />
    <glyph glyph-name="uni0326" unicode="&#x326;" 
d="M-324 -221l136 135l77 -74q49 -47 50 -110q0 -66 -63.5 -129.5t-160.5 -114.5l-12 16q78 59 78 129q0 41 -37 82z" />
    <glyph glyph-name="uni0327" unicode="&#x327;" 
d="M-434 -375q39 -6 76 -6q61 0 101 28.5t40 76.5q0 90 -148 90l-14 6l109 180h45l-60 -113q223 0 224 -135q0 -74 -77 -120t-194 -46q-53 0 -110 15z" />
    <glyph glyph-name="uni0328" unicode="&#x328;" 
d="M-262 -414q-80 0 -134.5 43t-54.5 115q0 76 68 136.5t213 119.5h45q-145 -102 -145 -221q0 -57 29.5 -90t78.5 -33q45 0 88 16l13 -22q-88 -64 -201 -64z" />
    <glyph glyph-name="uni0394" unicode="&#x394;" horiz-adv-x="1404" 
d="M805 1434l553 -1418v-16h-1301v16l502 1293l-137 108v17h383zM121 47h923l-458 1198z" />
    <glyph glyph-name="uni03A9" unicode="&#x3a9;" horiz-adv-x="1583" 
d="M92 860q0 266 200 434t501 168t499.5 -168t198.5 -434q0 -233 -150.5 -394t-382.5 -216v-64h402l115 203h16v-389h-582v274q125 70 200 213.5t75 352.5q0 276 -108.5 425.5t-283 149.5t-283 -149.5t-108.5 -425.5q0 -209 74 -352.5t203 -213.5v-274h-584v389h17l114 -203
h404v62q-233 57 -385 216.5t-152 395.5z" />
    <glyph glyph-name="uni03BC" unicode="&#x3bc;" horiz-adv-x="1280" 
d="M1112 106l133 -90v-16h-358l-41 162q-137 -186 -352 -187q-63 0 -123 17l45 -381h-244v649q-2 16 -2 49v615l-133 90v16h399v-719q0 -223 182 -223q131 0 228 129v707l-133 90v16h399v-924z" />
    <glyph glyph-name="pi" unicode="&#x3c0;" horiz-adv-x="1300" 
d="M1249 1014l-133 -90v-818l133 -90v-16h-532v16l133 90v881h-399v-881l133 -90v-16h-533v16l133 90v818l-133 90v16h1198v-16z" />
    <glyph glyph-name="Wgrave" unicode="&#x1e80;" horiz-adv-x="2074" 
d="M1178 1528h-17l-422 315v17h305zM1673 1434h443v-17l-193 -239l-379 -1178h-188l-301 891l-299 -891h-191l-456 1294l-127 123v17h565v-17l-150 -106l383 -1088l250 744l-110 327l-125 123v17h561v-17l-148 -106l359 -1082l307 955l-201 233v17z" />
    <glyph glyph-name="wgrave" unicode="&#x1e81;" horiz-adv-x="1658" 
d="M948 1122h-16l-422 316v16h305zM1339 1030h355v-16l-148 -205l-309 -809h-166l-244 602l-229 -602h-166l-373 918l-98 96v16h504v-16l-123 -90l285 -723l176 461l-105 258l-100 94v16h506v-16l-123 -90l285 -723l233 610l-160 203v16z" />
    <glyph glyph-name="Wacute" unicode="&#x1e82;" horiz-adv-x="2074" 
d="M1421 1843l-422 -315h-16l133 332h305v-17zM1673 1434h443v-17l-193 -239l-379 -1178h-188l-301 891l-299 -891h-191l-456 1294l-127 123v17h565v-17l-150 -106l383 -1088l250 744l-110 327l-125 123v17h561v-17l-148 -106l359 -1082l307 955l-201 233v17z" />
    <glyph glyph-name="wacute" unicode="&#x1e83;" horiz-adv-x="1658" 
d="M1192 1438l-422 -316h-16l133 332h305v-16zM1339 1030h355v-16l-148 -205l-309 -809h-166l-244 602l-229 -602h-166l-373 918l-98 96v16h504v-16l-123 -90l285 -723l176 461l-105 258l-100 94v16h506v-16l-123 -90l285 -723l233 610l-160 203v16z" />
    <glyph glyph-name="Wdieresis" unicode="&#x1e84;" horiz-adv-x="2074" 
d="M1042 1712l-151 -151l-154 151l154 150zM1425 1712l-153 -151l-150 151l150 150zM1673 1434h443v-17l-193 -239l-379 -1178h-188l-301 891l-299 -891h-191l-456 1294l-127 123v17h565v-17l-150 -106l383 -1088l250 744l-110 327l-125 123v17h561v-17l-148 -106l359 -1082
l307 955l-201 233v17z" />
    <glyph glyph-name="wdieresis" unicode="&#x1e85;" horiz-adv-x="1658" 
d="M813 1307l-151 -152l-154 152l154 149zM1196 1307l-154 -152l-149 152l149 149zM1339 1030h355v-16l-148 -205l-309 -809h-166l-244 602l-229 -602h-166l-373 918l-98 96v16h504v-16l-123 -90l285 -723l176 461l-105 258l-100 94v16h506v-16l-123 -90l285 -723l233 610
l-160 203v16z" />
    <glyph glyph-name="Ygrave" unicode="&#x1ef2;" horiz-adv-x="1363" 
d="M838 1528h-17l-422 315v17h306zM954 1434h451v-17l-219 -227l-352 -569v-498l143 -107v-16h-569v16l143 107v461l-428 710l-143 123v17h585v-17l-129 -106l375 -635l319 520l-176 221v17z" />
    <glyph glyph-name="ygrave" unicode="&#x1ef3;" horiz-adv-x="1118" 
d="M717 1122h-17l-421 316v16h305zM786 1030h355v-16l-154 -209l-426 -1032q-74 -186 -217 -187q-66 0 -139 33l8 240l14 2q145 -80 224 -80q68 0 100 80l8 20l-469 1037l-106 96v16h524v-16l-133 -90l315 -725l252 612l-156 203v16z" />
    <glyph glyph-name="endash" unicode="&#x2013;" horiz-adv-x="1228" 
d="M129 641h973v-47h-973v47z" />
    <glyph glyph-name="emdash" unicode="&#x2014;" horiz-adv-x="2048" 
d="M129 641h1792v-47h-1792v47z" />
    <glyph glyph-name="uni2015" unicode="&#x2015;" horiz-adv-x="2662" 
d="M129 641h2406v-47h-2406v47z" />
    <glyph glyph-name="quoteleft" unicode="&#x2018;" horiz-adv-x="524" 
d="M418 1047l-154 -156l-71 72q-74 76 -74 159q0 82 71.5 158t215.5 174l18 -16q-123 -113 -123 -211q0 -59 68 -129z" />
    <glyph glyph-name="quoteright" unicode="&#x2019;" horiz-adv-x="524" 
d="M106 1298l154 156l72 -72q74 -76 74 -159q0 -82 -72 -158t-215 -174l-19 16q123 115 123 211q0 59 -67 129z" />
    <glyph glyph-name="quotesinglbase" unicode="&#x201a;" horiz-adv-x="524" 
d="M106 154l154 155l72 -73q74 -74 74 -158t-71 -158t-216 -176l-19 16q123 115 123 211q0 59 -67 129z" />
    <glyph glyph-name="quotedblleft" unicode="&#x201c;" horiz-adv-x="897" 
d="M418 1047l-154 -156l-71 72q-74 76 -74 159q0 82 71.5 158t215.5 174l18 -16q-123 -113 -123 -211q0 -59 68 -129zM791 1047l-154 -156l-72 72q-76 78 -76 159.5t72 157.5t217 174l17 -16q-121 -111 -121 -211q0 -61 65 -129z" />
    <glyph glyph-name="quotedblright" unicode="&#x201d;" horiz-adv-x="897" 
d="M106 1298l154 156l72 -72q74 -76 74 -159q0 -82 -72 -158t-215 -174l-19 16q123 115 123 211q0 59 -67 129zM477 1298l154 156l71 -72q76 -78 76 -159.5t-71.5 -157.5t-217.5 -174l-16 16q121 113 121 211q0 61 -66 129z" />
    <glyph glyph-name="quotedblbase" unicode="&#x201e;" horiz-adv-x="897" 
d="M106 154l154 155l72 -73q74 -74 74 -158t-71 -158t-216 -176l-19 16q123 115 123 211q0 59 -67 129zM477 154l154 155l71 -73q76 -76 76 -158q0 -84 -70.5 -158t-218.5 -176l-16 16q121 113 121 211q0 61 -66 129z" />
    <glyph glyph-name="dagger" unicode="&#x2020;" horiz-adv-x="1032" 
d="M913 1137h17v-234h-17l-372 94l84 -372v-17l-101 -813h-16l-100 813v17l86 372l-375 -94h-17v234h17l375 -93l-95 373v17h234v-17l-92 -373z" />
    <glyph glyph-name="daggerdbl" unicode="&#x2021;" horiz-adv-x="1032" 
d="M930 903h-17l-372 94l84 -374v-17l-84 -373l372 93h17v-234h-17l-372 94l92 -374v-17h-234v17l95 374l-375 -94h-17v234h17l375 -93l-86 373v17l86 374l-375 -94h-17v234h17l375 -93l-95 373v17h234v-17l-92 -373l372 93h17v-234z" />
    <glyph glyph-name="bullet" unicode="&#x2022;" horiz-adv-x="768" 
d="M385 870l252 -245l-252 -248l-248 248z" />
    <glyph glyph-name="ellipsis" unicode="&#x2026;" horiz-adv-x="1464" 
d="M281 317l180 -176l-180 -178l-179 178zM731 317l180 -176l-180 -178l-178 178zM1182 317l180 -176l-180 -178l-178 178z" />
    <glyph glyph-name="perthousand" unicode="&#x2030;" horiz-adv-x="2729" 
d="M485 606q-174 0 -273 114t-99 312.5t99 312t273 113.5t273.5 -113.5t99.5 -312t-99.5 -312.5t-273.5 -114zM1368 1434h57l-905 -1434h-57zM485.5 645q153.5 0 153.5 387t-153.5 387t-153.5 -387t153.5 -387zM1401 -25q-174 0 -273.5 114t-99.5 312.5t99.5 312
t273.5 113.5t273.5 -113.5t99.5 -312t-99.5 -312.5t-273.5 -114zM2245 -25q-174 0 -273.5 114t-99.5 312.5t99.5 312t273.5 113.5t273 -113.5t99 -312t-99 -312.5t-273 -114zM1400.5 14q153.5 0 153.5 387t-153.5 387t-153.5 -387t153.5 -387zM2244.5 14q153.5 0 153.5 387
t-153.5 387t-153.5 -387t153.5 -387z" />
    <glyph glyph-name="guilsinglleft" unicode="&#x2039;" horiz-adv-x="700" 
d="M567 186l-18 -12l-416 399l416 400l18 -12l-202 -388z" />
    <glyph glyph-name="guilsinglright" unicode="&#x203a;" horiz-adv-x="700" 
d="M133 186l203 387l-203 388l19 12l415 -400l-415 -399z" />
    <glyph glyph-name="fraction" unicode="&#x2044;" horiz-adv-x="286" 
d="M567 1434h58l-906 -1434h-57z" />
    <glyph glyph-name="uni2070" unicode="&#x2070;" horiz-adv-x="847" 
d="M424 905q-174 0 -273.5 114t-99.5 312.5t99.5 312t273.5 113.5t273.5 -113.5t99.5 -312t-99.5 -312.5t-273.5 -114zM424 944q154 0 154 387t-154 387t-154 -387t154 -387z" />
    <glyph glyph-name="uni2074" unicode="&#x2074;" horiz-adv-x="745" 
d="M10 1163v17q170 256 322 561h231v-17q-219 -297 -487 -522h303v164h196v-164h140v-39h-140v-149l127 -76v-16h-452v16l129 76v149h-369z" />
    <glyph glyph-name="uni2075" unicode="&#x2075;" horiz-adv-x="763" 
d="M55 961l90 243h15l102 -248q37 -12 68 -12q74 0 120 59.5t46 153.5q0 98 -55.5 152.5t-147.5 54.5q-84 0 -180 -45l-13 6l33 416h531l-15 -90q-4 -25 -26.5 -42.5t-55.5 -17.5h-405l-19 -217q117 55 242 56q143 0 230 -63.5t87 -184.5q0 -125 -94 -201t-260 -76
q-127 1 -293 56z" />
    <glyph glyph-name="uni2076" unicode="&#x2076;" horiz-adv-x="804" 
d="M469 1423q123 4 207 -58t84 -181q0 -123 -94.5 -201t-255.5 -78q-168 0 -263.5 106.5t-95.5 311.5q0 215 110.5 324.5t282.5 109.5q129 0 281 -43l-94 -221h-13l-116 217q-27 8 -66 8q-174 0 -180 -370q90 75 213 75zM410 944q68 0 107.5 59.5t39.5 163.5q0 201 -170 201
q-74 0 -131 -51q2 -373 154 -373z" />
    <glyph glyph-name="uni2077" unicode="&#x2077;" horiz-adv-x="698" 
d="M49 1483l2 258h631v-8l-59 -125q-119 -272 -244 -686h-232v12q221 416 424 655h-440l-70 -106h-12z" />
    <glyph glyph-name="uni2078" unicode="&#x2078;" horiz-adv-x="757" 
d="M530 1378q100 -57 146.5 -108t46.5 -123q0 -111 -97.5 -177.5t-250.5 -66.5q-143 0 -236.5 58.5t-93.5 156.5q0 150 207 211l-10 6q-166 90 -166 217q0 90 87 146.5t218 56.5q127 0 210 -50t83 -132q0 -123 -180 -174zM375 1716q-59 0 -96 -31.5t-37 -74.5
q0 -70 116 -135l97 -54q76 57 75 142q0 70 -43.5 111.5t-111.5 41.5zM383 942q78 0 122 40t44 97q0 80 -119 148l-139 80q-96 -70 -96 -181q0 -82 51 -133t137 -51z" />
    <glyph glyph-name="uni2079" unicode="&#x2079;" horiz-adv-x="786" 
d="M381 1757q166 0 260 -104.5t94 -309.5q0 -217 -103.5 -327.5t-271.5 -110.5q-106 0 -278 43l90 228h10l123 -224q23 -8 55 -8q82 0 124 85t44 290q-86 -72 -202 -72q-119 0 -199 61.5t-80 180.5q0 121 89 194.5t245 73.5zM250 1501q0 -197 156 -196q66 0 122 47
q-2 367 -145 366q-61 0 -97 -57.5t-36 -159.5z" />
    <glyph glyph-name="uni2080" unicode="&#x2080;" horiz-adv-x="847" 
d="M424 -324q-174 0 -273.5 114t-99.5 312.5t99.5 312t273.5 113.5t273.5 -113.5t99.5 -312t-99.5 -312.5t-273.5 -114zM424 -285q154 0 154 387t-154 387t-154 -387t154 -387z" />
    <glyph glyph-name="uni2081" unicode="&#x2081;" horiz-adv-x="632" 
d="M49 428l367 102h16v-741l176 -80v-16h-547v16l177 80v580l-189 43v16z" />
    <glyph glyph-name="uni2082" unicode="&#x2082;" horiz-adv-x="759" 
d="M41 -307v12l197 242q129 147 182 233t53 162q0 72 -35 109.5t-90 37.5q-27 0 -63 -8l-121 -256h-12l-95 234q180 70 308 69q141 0 227 -58t86 -159q0 -96 -88 -183t-297 -226l-86 -58h385l84 115h12v-266h-647z" />
    <glyph glyph-name="uni2083" unicode="&#x2083;" horiz-adv-x="776" 
d="M55 455q166 74 324 73q137 0 215 -53t78 -141q0 -168 -232 -203q129 -10 202 -63.5t73 -147.5q0 -115 -94.5 -179.5t-266.5 -64.5q-131 0 -303 52l84 245h12l109 -247q37 -10 78 -11q76 0 122 51.5t46 145.5q0 100 -63.5 150.5t-170.5 52.5l-2 18q94 8 149.5 58.5
t55.5 140.5q0 78 -35 117.5t-82 39.5q-39 0 -84 -10l-112 -254h-13z" />
    <glyph glyph-name="uni2084" unicode="&#x2084;" horiz-adv-x="745" 
d="M10 -66v17q170 256 322 561h231v-16q-217 -293 -487 -525h303v166h196v-166h140v-37h-140v-149l127 -76v-16h-452v16l129 76v149h-369z" />
    <glyph glyph-name="uni2085" unicode="&#x2085;" horiz-adv-x="763" 
d="M55 -270l90 243h15l102 -247q31 -10 68 -11q74 0 120 58.5t46 154.5q0 98 -55.5 152.5t-147.5 54.5q-84 0 -180 -45l-13 6l33 416h531l-15 -90q-4 -25 -26.5 -42.5t-55.5 -17.5h-405l-19 -217q117 55 242 56q143 0 230 -63.5t87 -186.5t-94 -199t-260 -76q-121 1 -293 54
z" />
    <glyph glyph-name="uni2086" unicode="&#x2086;" horiz-adv-x="804" 
d="M469 195q123 4 207 -58.5t84 -181.5q0 -125 -94.5 -202t-255.5 -77q-168 0 -263.5 105.5t-95.5 312.5q0 215 110.5 324.5t282.5 109.5q129 0 281 -43l-94 -221h-13l-116 217q-27 8 -66 8q-174 0 -180 -370q90 76 213 76zM410 -285q68 0 107.5 58.5t39.5 163.5
q0 203 -170 202q-74 0 -131 -51q2 -373 154 -373z" />
    <glyph glyph-name="uni2087" unicode="&#x2087;" horiz-adv-x="698" 
d="M49 254l2 258h631v-8l-59 -125q-119 -272 -244 -686h-232v12q225 422 424 655h-440l-70 -106h-12z" />
    <glyph glyph-name="uni2088" unicode="&#x2088;" horiz-adv-x="757" 
d="M530 150q100 -57 146.5 -109.5t46.5 -124.5q0 -111 -97.5 -176.5t-250.5 -65.5q-143 0 -236.5 57.5t-93.5 157.5q0 150 207 211l-10 6q-166 90 -166 218q0 90 87 146t218 56q127 0 210 -50t83 -132q0 -123 -180 -174zM375 487q-59 0 -96 -31.5t-37 -74.5q0 -70 116 -135
l97 -53q76 57 75 141q0 70 -43.5 111.5t-111.5 41.5zM383 -287q78 0 122 39t44 96q0 80 -119 148l-141 82q-94 -72 -94 -182q0 -80 51 -131.5t137 -51.5z" />
    <glyph glyph-name="uni2089" unicode="&#x2089;" horiz-adv-x="786" 
d="M381 528q166 0 260 -104.5t94 -308.5q0 -217 -103.5 -328t-271.5 -111q-119 0 -278 43l90 228h10l123 -226q25 -6 55 -6q82 0 124 85t44 290q-86 -72 -202 -72q-119 0 -199 61.5t-80 180.5q0 121 89 194.5t245 73.5zM250 272q0 -197 156 -196q66 0 122 47
q-2 367 -145 366q-61 0 -97 -57.5t-36 -159.5z" />
    <glyph glyph-name="franc" unicode="&#x20a3;" horiz-adv-x="1263" 
d="M80 1434h1137v-383h-17l-256 335h-428v-645h305l176 170h19v-389h-19l-176 172h-305v-274h275v-47h-275v-250l205 -107v-16h-641v16l153 107v250h-153v47h153v891l-153 106v17z" />
    <glyph glyph-name="lira" unicode="&#x20a4;" horiz-adv-x="1232" 
d="M1145 416h16v-416h-1059v47q133 0 252 100.5t119 233.5q0 49 -14 90h-357v47h340q-31 66 -120 168h-220v47h179q-47 57 -76 97t-52.5 102.5t-23.5 128.5q0 190 144.5 295.5t390.5 105.5q219 0 477 -92l-109 -338h-16l-172 361q-70 23 -137 22q-123 0 -197 -74.5
t-74 -218.5q0 -51 17.5 -106t36 -91t55.5 -99.5t51 -92.5h340v-47h-318q39 -90 46 -168h272v-47h-272q-6 -156 -121 -266.5t-271 -157.5h607z" />
    <glyph glyph-name="Euro" unicode="&#x20ac;" horiz-adv-x="1529" 
d="M1421 459l19 -4l-45 -412q-248 -72 -486 -72q-289 0 -492.5 164t-246.5 445h-150v47h144q-4 53 -4 84q0 55 6 104h-146v47h152q47 283 252 441.5t473 158.5q262 0 533 -98l-117 -395h-17l-188 413q-88 35 -190 35q-158 0 -289 -149.5t-156 -405.5h561v-47h-563
q-2 -18 -2 -57q0 -70 6 -131h559v-47h-553q37 -258 167 -410t292 -152q80 0 150 23z" />
    <glyph glyph-name="uni20BF" unicode="&#x20bf;" horiz-adv-x="1441" 
d="M952 762q190 -18 304 -106.5t114 -247.5q0 -193 -148.5 -300.5t-414.5 -107.5h-21v-256h-47v256h-168v-256h-47v256h-465v16l154 107v1188l-154 106v17h465v256h47v-256h168v256h47v-256q236 -2 369 -91.5t133 -244.5q0 -139 -90 -226t-246 -110zM496 1386v-614h202
q145 0 221 80t76 235q0 143 -83 221t-226 78h-190zM700 47q180 0 272.5 90t92.5 258q0 166 -95.5 248t-264.5 82h-209v-678h204z" />
    <glyph glyph-name="uni2116" unicode="&#x2116;" horiz-adv-x="2301" 
d="M1888.5 762q-153.5 0 -250 94t-96.5 250t96.5 250t250 94t250.5 -94t97 -250t-97 -250t-250.5 -94zM37 0v16l199 207v1069l-189 125v17h432l783 -1129v907l-230 205v17h477v-17l-198 -205v-1212h-174l-852 1235v-1012l229 -207v-16h-477zM1888.5 795q149.5 0 149.5 311
t-149.5 311t-149.5 -311t149.5 -311zM1567 625h643v-43h-643v43z" />
    <glyph glyph-name="trademark" unicode="&#x2122;" horiz-adv-x="1679" 
d="M72 1210v224h624v-224h-16l-125 187h-88v-553l86 -47v-19h-338v19l86 47v553h-88l-125 -187h-16zM1501 844l86 -49v-17h-340v17l86 49v473l-198 -412h-39l-219 408v-424l120 -94v-17h-264v17l105 94v477l-90 51v17h241l191 -353l168 353h237v-17l-84 -47v-526z" />
    <glyph glyph-name="estimated" unicode="&#x212e;" horiz-adv-x="1720" 
d="M78 721q0 305 229.5 521t555 216t554 -216t228.5 -521v-25h-1260v-460q180 -215 487 -216q297 0 484 228h133v-17q-260 -254 -617 -254q-340 0 -567 214.5t-227 529.5zM385 1202v-459h952v459q-184 213 -475 213q-293 0 -477 -213z" />
    <glyph glyph-name="oneeighth" unicode="&#x215b;" horiz-adv-x="1677" 
d="M61 631l177 82v577l-189 43v17l367 102h16v-739l176 -82v-17h-547v17zM1200 1434h57l-905 -1434h-57zM1450 457q100 -57 146 -108.5t46 -123.5q0 -111 -97 -177t-251 -66q-143 0 -236 58t-93 157q0 150 206 211l-10 6q-166 90 -166 217q0 90 87 146.5t218 56.5
q127 0 210 -50.5t83 -132.5q0 -123 -180 -174zM1294 795q-59 0 -96 -32t-37 -75q0 -70 117 -135l96 -53q76 57 76 141q0 70 -44 112t-112 42zM1303 20q78 0 121.5 40t43.5 98q0 80 -118 147l-140 80q-96 -70 -96 -180q0 -82 51.5 -133.5t137.5 -51.5z" />
    <glyph glyph-name="threeeighths" unicode="&#x215c;" horiz-adv-x="1820" 
d="M715 844q0 -115 -94.5 -180.5t-266.5 -65.5q-125 0 -303 53l84 246h12l109 -250q31 -8 78 -8q76 0 122 51t46 144q0 100 -63.5 150t-170.5 52l-2 19q94 8 149.5 58t55.5 140q0 78 -35 118t-82 40q-39 0 -84 -10l-112 -254h-13l-90 229q166 74 324 74q137 0 215 -53.5
t78 -141.5q0 -168 -232 -202q129 -10 202 -63.5t73 -145.5zM1343 1434h58l-905 -1434h-58zM1593 457q100 -57 146.5 -108.5t46.5 -123.5q0 -111 -97.5 -177t-250.5 -66q-143 0 -236.5 58t-93.5 157q0 150 207 211l-10 6q-166 90 -166 217q0 90 87 146.5t218 56.5
q127 0 210 -50.5t83 -132.5q0 -123 -181 -174zM1438 795q-59 0 -96 -32t-37 -75q0 -70 116 -135l97 -53q76 57 75 141q0 70 -43.5 112t-111.5 42zM1446 20q78 0 122 40t44 98q0 80 -119 147l-139 80q-96 -70 -97 -180q0 -82 51.5 -133.5t137.5 -51.5z" />
    <glyph glyph-name="fiveeighths" unicode="&#x215d;" horiz-adv-x="1808" 
d="M702 874q0 -125 -94 -200.5t-260 -75.5q-127 0 -293 55l90 244h15l102 -248q37 -12 68 -12q74 0 120 59.5t46 153.5q0 98 -55.5 152.5t-147.5 54.5q-84 0 -180 -45l-13 6l33 416h531l-15 -91q-4 -25 -26.5 -42t-55.5 -17h-405l-19 -217q117 55 242 55q143 0 230 -63.5
t87 -184.5zM1331 1434h58l-906 -1434h-57zM1581 457q100 -57 146.5 -108.5t46.5 -123.5q0 -111 -97.5 -177t-251.5 -66q-143 0 -236 58t-93 157q0 150 207 211l-11 6q-166 90 -166 217q0 90 87 146.5t219 56.5q127 0 209.5 -50.5t82.5 -132.5q0 -123 -180 -174zM1425 795
q-59 0 -96 -32t-37 -75q0 -70 117 -135l96 -53q76 57 76 141q0 70 -44 112t-112 42zM1434 20q78 0 121.5 40t43.5 98q0 80 -118 147l-140 80q-96 -70 -96 -180q0 -82 51.5 -133.5t137.5 -51.5z" />
    <glyph glyph-name="seveneighths" unicode="&#x215e;" horiz-adv-x="1742" 
d="M147 614v13q221 416 424 655h-440l-70 -106h-12l2 258h631v-9l-59 -125q-119 -272 -244 -686h-232zM1266 1434h57l-905 -1434h-58zM1516 457q100 -57 146 -108.5t46 -123.5q0 -111 -97.5 -177t-250.5 -66q-143 0 -236.5 58t-93.5 157q0 150 207 211l-10 6
q-166 90 -166 217q0 90 87 146.5t218 56.5q127 0 210 -50.5t83 -132.5q0 -123 -180 -174zM1360 795q-59 0 -96 -32t-37 -75q0 -70 116 -135l97 -53q76 57 76 141q0 70 -44 112t-112 42zM1368 20q78 0 122 40t44 98q0 80 -119 147l-139 80q-96 -70 -96 -180q0 -82 51 -133.5
t137 -51.5z" />
    <glyph glyph-name="arrowleft" unicode="&#x2190;" horiz-adv-x="1722" 
d="M625 1014l16 -17l-223 -354h1171v-47h-1171l223 -354l-16 -17l-492 387v17z" />
    <glyph glyph-name="arrowup" unicode="&#x2191;" horiz-adv-x="1054" 
d="M133 965l385 491h17l387 -491l-17 -17l-354 223v-1171h-47v1171l-354 -223z" />
    <glyph glyph-name="arrowright" unicode="&#x2192;" horiz-adv-x="1722" 
d="M1098 1014l491 -385v-17l-491 -387l-17 17l224 354h-1172v47h1172l-224 354z" />
    <glyph glyph-name="arrowdown" unicode="&#x2193;" horiz-adv-x="1054" 
d="M133 469l17 16l354 -223v1172h47v-1172l354 223l17 -16l-387 -492h-17z" />
    <glyph glyph-name="arrowboth" unicode="&#x2194;" horiz-adv-x="1785" 
d="M1161 1014l492 -385v-17l-492 -387l-16 17l223 354h-950l223 -354l-16 -17l-492 387v17l492 385l16 -17l-223 -354h950l-223 354z" />
    <glyph glyph-name="arrowupdn" unicode="&#x2195;" horiz-adv-x="1054" 
d="M551 262l354 223l17 -16l-387 -492h-17l-385 492l17 16l354 -223v909l-354 -223l-17 17l385 491h17l387 -491l-17 -17l-354 223v-909z" />
    <glyph glyph-name="uni2196" unicode="&#x2196;" horiz-adv-x="1318" 
d="M764 1112v-22l-408 -93l830 -827l-35 -33l-827 828l-95 -410h-22l-74 621l10 12z" />
    <glyph glyph-name="uni2197" unicode="&#x2197;" horiz-adv-x="1318" 
d="M555 1112l621 76l10 -12l-74 -621h-22l-95 410l-827 -828l-35 33l830 827l-408 93v22z" />
    <glyph glyph-name="uni2198" unicode="&#x2198;" horiz-adv-x="1318" 
d="M555 213v23l408 92l-830 827l35 33l827 -828l95 410h22l74 -620l-10 -13z" />
    <glyph glyph-name="uni2199" unicode="&#x2199;" horiz-adv-x="1318" 
d="M764 213l-621 -76l-10 13l74 620h22l95 -410l827 828l35 -33l-830 -827l408 -92v-23z" />
    <glyph glyph-name="partialdiff" unicode="&#x2202;" horiz-adv-x="1220" 
d="M303 1462q381 -45 618.5 -275.5t237.5 -592.5q0 -295 -151.5 -457t-401.5 -162q-238 0 -391.5 152t-153.5 399q0 240 147.5 384.5t381.5 144.5q135 0 229 -84q-113 367 -520 475zM614 18q260 0 260 531q0 190 -34 346q-98 109 -224 109q-262 0 -262 -488q0 -498 260 -498
z" />
    <glyph glyph-name="product" unicode="&#x220f;" horiz-adv-x="1609" 
d="M59 1434h1493v-17l-153 -106v-1434l153 -106v-17h-589v17l153 106v1509h-620v-1509l153 -106v-17h-590v17l154 106v1434l-154 106v17z" />
    <glyph glyph-name="summation" unicode="&#x2211;" horiz-adv-x="1341" 
d="M41 -246v31l604 729l-596 889v31h1178v-404h-17l-256 356h-565l461 -696v-16l-574 -692h826l131 190h16v-418h-1208z" />
    <glyph glyph-name="minus" unicode="&#x2212;" horiz-adv-x="1167" 
d="M143 698h881v-47h-881v47z" />
    <glyph glyph-name="radical" unicode="&#x221a;" horiz-adv-x="1300" 
d="M72 836v16h379l317 -647l436 1413h51l-536 -1741h-64l-448 879z" />
    <glyph glyph-name="infinity" unicode="&#x221e;" horiz-adv-x="1708" 
d="M1198 1079q162 0 264.5 -115.5t102.5 -287.5q0 -162 -97.5 -277.5t-244.5 -115.5q-113 0 -197 68.5t-123 187.5l-8 -13q-152 -246 -383 -245q-162 0 -265.5 115.5t-103.5 287.5q0 162 98.5 276.5t245.5 114.5q111 0 194 -67.5t124 -184.5l4 8q153 248 389 248zM428 440
q86 0 144.5 52.5t129.5 169.5l74 116q-92 174 -291 174q-133 0 -212.5 -73.5t-79.5 -196.5q0 -98 67.5 -170t167.5 -72zM1225 406q131 0 211 73.5t80 196.5q0 98 -68 171t-168 73q-84 0 -144.5 -53.5t-134.5 -170.5l-69 -110q88 -180 293 -180z" />
    <glyph glyph-name="integral" unicode="&#x222b;" horiz-adv-x="964" 
d="M-57 -322l98 275h14l133 -281q12 -2 37 -2q102 0 103 183v1294q0 430 358 430q139 0 295 -51l-98 -275h-15l-133 279q-10 4 -35 4q-47 0 -76.5 -44t-29.5 -132v-1299q0 -432 -356 -432q-139 0 -295 51z" />
    <glyph glyph-name="approxequal" unicode="&#x2248;" horiz-adv-x="1261" 
d="M143 821q84 129 242 129q84 0 263 -75.5t247 -75.5q127 0 197 121l26 -39q-74 -129 -221 -129q-84 0 -263 75.5t-247 75.5q-139 0 -217 -121zM143 471q82 131 242 131q84 0 263 -78t247 -78q127 0 197 123l26 -39q-76 -131 -221 -131q-84 0 -262 78t-248 78
q-137 0 -217 -123z" />
    <glyph glyph-name="notequal" unicode="&#x2260;" horiz-adv-x="1167" 
d="M1024 846h-317l-191 -342h508v-47h-535l-186 -336h-55l186 336h-291v47h318l190 342h-508v47h535l186 334h56l-187 -334h291v-47z" />
    <glyph glyph-name="lessequal" unicode="&#x2264;" horiz-adv-x="1198" 
d="M143 756v28l881 381v-53l-795 -342l795 -344v-53zM143 236h881v-48h-881v48z" />
    <glyph glyph-name="greaterequal" unicode="&#x2265;" horiz-adv-x="1198" 
d="M1055 756l-881 -383v53l795 344l-795 342v53l881 -381v-28zM1055 236v-48h-881v48h881z" />
    <glyph glyph-name="uni2323" unicode="&#x2323;" horiz-adv-x="1617" 
d="M1495 716.5q0 -282.5 -201.5 -484t-484.5 -201.5t-484.5 201.5t-201.5 484t201.5 484.5t484.5 202t484.5 -202t201.5 -484.5zM1446 717q0 266 -185.5 453.5t-451.5 187.5q-264 0 -450.5 -187.5t-186.5 -453.5t186.5 -453.5t450.5 -187.5q266 0 451.5 187.5t185.5 453.5z
M663.5 762q-34.5 0 -56 44t-21.5 116q0 76 21.5 119.5t56 43.5t55 -44t20.5 -119q0 -74 -20.5 -117t-55 -43zM956.5 762q-34.5 0 -56 44t-21.5 116q0 76 21.5 119.5t56 43.5t55 -44t20.5 -119q0 -74 -20.5 -117t-55 -43zM1147 692h16l183 -57l-5 -17l-163 3
q-25 -143 -127.5 -234.5t-241.5 -91.5t-240.5 91t-126.5 235l-166 -3l-4 17l183 57h16q4 -121 102.5 -206t235.5 -85t235.5 85t102.5 206z" />
    <glyph glyph-name="lozenge" unicode="&#x25ca;" horiz-adv-x="1220" 
d="M123 717l487 745l488 -745l-488 -746zM180 717l430 -660l430 660l-430 661z" />
    <glyph glyph-name="i.aalt" horiz-adv-x="579" 
d="M289 1491l162 -160l-162 -160l-162 160zM51 0v16l113 90v818l-113 90v16h379v-924l113 -90v-16h-492z" />
    <glyph glyph-name="f_b.dlig" horiz-adv-x="1945" 
d="M1460 1055q176 0 300 -133.5t124 -389.5q0 -260 -143.5 -408.5t-335.5 -148.5q-174 0 -279 119l-237 -119h-17v1276q0 76 -57 125t-139 49q-100 0 -158.5 -60t-58.5 -181v-154h291v-43h-291v-881l174 -90v-16h-574v16l134 90v881h-154v43h154v29q0 414 442 414
q154 0 283 -76l204 63h17v-565q116 160 321 160zM1309 63q131 0 212 112t81 341q0 219 -71 324.5t-196 105.5q-119 0 -196 -98v-717q72 -68 170 -68z" />
    <glyph glyph-name="f_f_j.dlig" horiz-adv-x="1927" 
d="M1792 1030v-999q0 -213 -109.5 -329t-330.5 -116v29q94 12 134 84t40 242v983l-94 63h-295v-881l163 -90v-16h-563v16l133 90v881h-411v-881l174 -90v-16h-574v16l134 90v881h-154v43h154v8q0 414 438 414q188 0 325 -117q115 137 373 138q170 0 393 -62l-106 -272h-17
l-139 274q-66 16 -108 17q-92 0 -153.5 -73t-61.5 -210v-117h655zM870 1030v14q0 37 2 56v104q0 90 -58 145.5t-146 55.5q-209 0 -209 -277v-98h411z" />
    <glyph glyph-name="f_h.dlig" horiz-adv-x="1988" 
d="M1831 106l133 -90v-16h-532v16l133 90v615q0 221 -187 221q-137 0 -239 -123v-713l133 -90v-16h-533v16l133 90v1145q0 76 -57 125t-139 49q-100 0 -158.5 -60t-58.5 -181v-154h291v-43h-291v-881l174 -90v-16h-574v16l134 90v881h-154v43h154v29q0 414 442 414
q154 0 283 -76l204 63h17v-588q145 182 368 183q158 0 241 -86t83 -246v-617z" />
    <glyph glyph-name="f_j.dlig" horiz-adv-x="1249" 
d="M1114 1030v-999q0 -213 -109.5 -329t-330.5 -116v29q94 12 134 84t40 242v983l-94 63h-295v-881l164 -90v-16h-564v16l134 90v881h-154v43h154v14q0 428 458 429q168 0 393 -62l-106 -272h-16l-140 274q-66 16 -108 17q-92 0 -153.5 -73t-61.5 -210v-117h655z" />
    <glyph glyph-name="f_k.dlig" horiz-adv-x="1929" 
d="M1815 119l129 -103v-16h-506v16l73 88l-288 420l-84 -69v-349l143 -90v-16h-543v16l133 90v1145q0 76 -57 125t-139 49q-100 0 -158.5 -60t-58.5 -181v-154h291v-43h-291v-881l174 -90v-16h-574v16l134 90v881h-154v43h154v29q0 414 442 414q154 0 283 -76l204 63h17
v-948l413 334l-110 168v16h438v-16l-256 -166l-199 -160z" />
    <glyph glyph-name="zero.oldstyle" horiz-adv-x="1243" 
d="M623 -25q-246 0 -393.5 145.5t-147.5 416t147.5 415t393.5 144.5q244 0 391 -145.5t147 -413.5q0 -270 -147 -416t-391 -146zM622.5 18q245.5 0 245.5 519q0 516 -245.5 516t-245.5 -516q0 -519 245.5 -519z" />
    <glyph glyph-name="one.oldstyle" horiz-adv-x="819" 
d="M82 932l465 176h16v-975l195 -117v-16h-656v16l195 117v744l-215 38v17z" />
    <glyph glyph-name="two.oldstyle" horiz-adv-x="1093" 
d="M41 0v16q184 203 287 301q201 182 282.5 298t81.5 225q0 104 -53 158.5t-139 54.5q-53 0 -119 -17l-174 -362h-17l-110 334q248 88 450 88q211 0 332 -77t121 -224q0 -141 -142.5 -262t-465.5 -287l-88 -49l555 -2l137 184h16v-379h-954z" />
    <glyph glyph-name="three.oldstyle" horiz-adv-x="1150" 
d="M78 987q279 109 491 109q201 0 323 -90.5t122 -235.5q0 -131 -94.5 -217t-255.5 -117q182 -16 298.5 -104t116.5 -238q0 -188 -146.5 -296.5t-400.5 -108.5q-190 0 -481 88l121 350h16l177 -375q68 -20 133 -20q127 0 207.5 95t80.5 249q0 168 -104 252t-283 88l-2 22
q154 14 244 99.5t90 234.5q0 133 -64.5 206t-150.5 73q-59 0 -129 -17l-172 -370h-16z" />
    <glyph glyph-name="four.oldstyle" horiz-adv-x="1146" 
d="M1116 90h-215v-250l168 -112v-17h-600v17l166 112v250h-612v16q330 549 522 965h329v-16q-160 -252 -336 -462t-413 -443h510v319h266v-319h215v-60z" />
    <glyph glyph-name="five.oldstyle" horiz-adv-x="1146" 
d="M72 -227l108 344h17l165 -373q57 -14 121 -14q129 0 215 103.5t86 270.5q0 164 -98 256.5t-256 92.5q-133 0 -268 -66l-15 10l48 674h821l-17 -115q-8 -51 -43.5 -79.5t-87.5 -28.5h-645l-26 -393q180 100 389 100q219 0 353 -103.5t134 -306.5q0 -205 -153.5 -330.5
t-411.5 -125.5q-180 0 -436 84z" />
    <glyph glyph-name="six.oldstyle" horiz-adv-x="1245" 
d="M725 842q184 0 313 -101.5t129 -296.5q0 -203 -142 -336t-386 -133q-258 0 -404.5 175.5t-146.5 508.5q0 348 177 537.5t444 189.5q176 0 399 -67l-123 -320h-16l-150 328q-61 16 -123 16q-137 0 -224 -149.5t-93 -480.5q156 129 346 129zM635 20q113 0 182.5 102.5
t69.5 280.5q0 350 -285 351q-129 0 -223 -88q2 -646 256 -646z" />
    <glyph glyph-name="seven.oldstyle" horiz-adv-x="1042" 
d="M57 670v401h981v-16l-104 -215q-182 -436 -379 -1139h-322v14q342 727 652 1125h-695l-116 -170h-17z" />
    <glyph glyph-name="eight.oldstyle" horiz-adv-x="1187" 
d="M844 743q143 -80 210.5 -165.5t67.5 -200.5q0 -182 -149.5 -292t-384.5 -110q-217 0 -360.5 95.5t-143.5 261.5q0 127 92 214t244 132l-55 31q-231 137 -232 340q0 150 133 243.5t334 93.5q193 0 316.5 -82.5t123.5 -220.5q0 -106 -79.5 -177.5t-212.5 -106.5zM590 1343
q-96 0 -156.5 -56t-60.5 -134q0 -150 186 -248l148 -84q133 102 133 248q0 121 -72 197.5t-178 76.5zM602 18q125 0 196.5 71t71.5 173q0 158 -190 266l-215 123q-166 -121 -166 -307q0 -141 83 -233.5t220 -92.5z" />
    <glyph glyph-name="nine.oldstyle" horiz-adv-x="1191" 
d="M563 1096q258 0 399.5 -173t141.5 -515q0 -348 -165 -533.5t-425 -185.5q-178 0 -397 65l112 338h15l157 -346q49 -14 109 -14q299 0 307 641q-143 -125 -334 -125q-174 0 -300 106.5t-126 294.5q0 199 135 323t371 124zM334 676q0 -342 270 -342q117 0 213 82
q-2 346 -66.5 491.5t-183.5 145.5q-104 0 -168.5 -100.5t-64.5 -276.5z" />
    <glyph glyph-name="zero.tnum" horiz-adv-x="1280" 
d="M641 -25q-274 0 -433 190.5t-159 551t159 551t433 190.5t433 -190.5t159 -551t-159 -551t-433 -190.5zM641 23q297 0 297 694t-297 694q-299 0 -299 -694t299 -694z" />
    <glyph glyph-name="one.tnum" horiz-adv-x="1280" 
d="M268 1294l498 181h16v-1328l277 -131v-16h-819v16l276 131v1096l-248 35v16z" />
    <glyph glyph-name="two.tnum" horiz-adv-x="1280" 
d="M102 0v16q90 115 189.5 236t132.5 166q207 260 298 423t91 287q0 135 -59.5 209t-151.5 74q-55 0 -127 -20l-188 -383h-17l-123 335q266 115 488 115q213 0 343 -101.5t130 -279.5q0 -182 -165 -361t-492 -411l-127 -84h651l131 178h16v-399h-1020z" />
    <glyph glyph-name="three.tnum" horiz-adv-x="1280" 
d="M135 1346q283 113 500 112q207 0 332 -94t125 -250q0 -137 -96.5 -227t-264.5 -121q186 -18 306 -111.5t120 -251.5q0 -199 -149.5 -313.5t-409.5 -114.5q-201 0 -487 95l120 354h17l180 -381q61 -18 133 -18q135 0 219 99t84 259q0 176 -108.5 266t-292.5 94l-2 23
q158 16 252 105.5t94 246.5q0 139 -67.5 216t-157.5 77q-59 0 -129 -16l-179 -379h-16z" />
    <glyph glyph-name="four.tnum" horiz-adv-x="1280" 
d="M1176 406h-224v-273l174 -117v-16h-614v16l174 117v273h-629v16q299 492 545 1012h334v-17q-297 -473 -782 -964h532v329h266v-329h224v-47z" />
    <glyph glyph-name="five.tnum" horiz-adv-x="1280" 
d="M115 68l116 356h17l174 -381q61 -20 127 -20q135 0 221 107.5t86 281.5q0 178 -99.5 276t-264.5 98q-147 0 -281 -69l-16 10l51 707h839l-16 -105q-16 -115 -143 -115h-650l-28 -434q190 109 407 109q219 0 355.5 -109.5t136.5 -324.5q0 -217 -151.5 -348.5
t-415.5 -131.5q-193 1 -465 93z" />
    <glyph glyph-name="six.tnum" horiz-adv-x="1280" 
d="M745 887q190 0 323.5 -107.5t133.5 -310.5q0 -213 -147.5 -353.5t-397.5 -140.5q-266 0 -417.5 184.5t-151.5 536.5q0 365 183.5 563.5t455.5 198.5q180 0 416 -72l-127 -331h-17l-155 340q-66 16 -127 16q-147 0 -240.5 -157.5t-97.5 -512.5q159 146 366 146zM653 23
q121 0 195 108.5t74 294.5q0 373 -304 373q-135 0 -239 -101q2 -675 274 -675z" />
    <glyph glyph-name="seven.tnum" horiz-adv-x="1280" 
d="M168 1036v398h1001v-17l-96 -209q-205 -502 -399 -1208h-322v16q348 766 672 1192h-723l-117 -172h-16z" />
    <glyph glyph-name="eight.tnum" horiz-adv-x="1280" 
d="M891 776q145 -84 217 -172t72 -209q0 -190 -155 -305t-398 -115q-225 0 -373 100.5t-148 274.5q0 135 97.5 227.5t257.5 137.5l-62 37q-244 141 -243 352q0 156 138 255t345 99q199 0 327 -88t128 -231q0 -113 -85 -189t-225 -112zM397 1212q0 -154 201 -268l145 -84
q152 104 152 264q0 129 -76 208t-190 79q-102 0 -167 -58.5t-65 -140.5zM641 23q133 0 210 73.5t77 179.5q0 166 -205 285l-219 129q-182 -131 -182 -328q0 -147 88 -243t231 -96z" />
    <glyph glyph-name="nine.tnum" horiz-adv-x="1280" 
d="M623 1458q268 0 416.5 -182t148.5 -543q0 -367 -175 -562.5t-446 -195.5q-174 0 -417 70l116 352h17l163 -356q57 -18 117 -18q326 0 332 682q-156 -137 -360 -138q-184 0 -316.5 110.5t-132.5 311.5q0 207 144.5 338t392.5 131zM367 1018q0 -362 295 -363q129 0 233 95
q-2 360 -70.5 510.5t-197.5 150.5q-117 0 -188.5 -104.5t-71.5 -288.5z" />
    <glyph glyph-name="zero.tnum.oldstyle" horiz-adv-x="1177" 
d="M590 -25q-246 0 -393.5 145.5t-147.5 416t147.5 415t393.5 144.5q244 0 391 -145.5t147 -413.5q0 -270 -147 -416t-391 -146zM590 18q246 0 246 519q0 516 -246 516t-246 -516q0 -519 246 -519z" />
    <glyph glyph-name="one.tnum.oldstyle" horiz-adv-x="1177" 
d="M221 932l506 176h16v-975l236 -117v-16h-737v16l235 117v744l-256 38v17z" />
    <glyph glyph-name="two.tnum.oldstyle" horiz-adv-x="1177" 
d="M90 0v16q150 166 285 301q201 182 282.5 298t81.5 225q0 104 -53 158.5t-137 54.5q-53 0 -119 -17l-176 -362h-16l-111 334q248 88 451 88q213 0 333.5 -77t120.5 -224q0 -141 -143.5 -262t-466.5 -287l-88 -49l555 -2l139 184h16v-379h-954z" />
    <glyph glyph-name="three.tnum.oldstyle" horiz-adv-x="1177" 
d="M92 987q279 109 494 109q199 0 321.5 -90.5t122.5 -235.5q0 -131 -94 -217t-256 -117q180 -16 298 -104t118 -238q0 -188 -146.5 -296.5t-402.5 -108.5q-193 0 -479 88l118 350h17l178 -375q66 -20 131 -20q127 0 208 95t81 249q0 166 -104.5 251t-280.5 89l-2 22
q152 14 241.5 99.5t89.5 234.5q0 133 -63.5 206t-149.5 73q-59 0 -129 -17l-174 -370h-14z" />
    <glyph glyph-name="four.tnum.oldstyle" horiz-adv-x="1177" 
d="M1128 90h-213v-250l166 -112v-17h-600v17l168 112v250h-614v16q319 526 522 965h330v-16q-276 -438 -748 -905h510v319h266v-319h213v-60z" />
    <glyph glyph-name="five.tnum.oldstyle" horiz-adv-x="1177" 
d="M78 -227l108 344h17l166 -373q57 -14 120 -14q129 0 215.5 103.5t86.5 270.5q0 164 -98.5 256.5t-256.5 92.5q-133 0 -268 -66l-14 10l47 674h821l-16 -115q-8 -51 -44 -79.5t-88 -28.5h-645l-26 -393q180 100 389 100q219 0 353 -103.5t134 -306.5q0 -205 -153.5 -330.5
t-411.5 -125.5q-180 0 -436 84z" />
    <glyph glyph-name="six.tnum.oldstyle" horiz-adv-x="1177" 
d="M688 842q184 0 314.5 -101.5t130.5 -296.5q0 -203 -143.5 -336t-385.5 -133q-258 0 -405.5 175.5t-147.5 508.5q0 348 178.5 537.5t442.5 189.5q178 0 401 -67l-123 -320h-16l-152 328q-61 16 -120 16q-137 0 -224.5 -149.5t-93.5 -480.5q156 129 344 129zM600 20
q113 0 181.5 102.5t68.5 280.5q0 350 -285 351q-125 0 -221 -86q0 -648 256 -648z" />
    <glyph glyph-name="seven.tnum.oldstyle" horiz-adv-x="1177" 
d="M121 670v401h981v-16l-105 -215q-193 -467 -376 -1139h-324v14q342 727 651 1125h-694l-117 -170h-16z" />
    <glyph glyph-name="eight.tnum.oldstyle" horiz-adv-x="1177" 
d="M831 743q143 -80 211 -165.5t68 -200.5q0 -182 -149.5 -292t-385.5 -110q-217 0 -360 95.5t-143 261.5q0 127 92 214t244 132l-56 31q-231 137 -231 340q0 150 133 243.5t334 93.5q193 0 316.5 -82.5t123.5 -220.5q0 -106 -80 -177.5t-213 -106.5zM578 1343
q-96 0 -157 -56t-61 -134q0 -150 187 -248l147 -84q133 102 133 248q0 121 -71.5 197.5t-177.5 76.5zM590 18q125 0 196.5 71t71.5 173q0 158 -190 266l-215 123q-166 -121 -166 -307q0 -141 83 -233.5t220 -92.5z" />
    <glyph glyph-name="nine.tnum.oldstyle" horiz-adv-x="1177" 
d="M567 1096q258 0 399.5 -173t141.5 -515q0 -348 -166 -533.5t-426 -185.5q-176 0 -395 65l110 338h17l155 -346q49 -14 109 -14q299 0 307 639q-150 -123 -334 -123q-174 0 -300 106.5t-126 294.5q0 199 136 323t372 124zM336 676q0 -342 272 -342q119 0 211 82
q-2 346 -66.5 491.5t-183.5 145.5q-104 0 -168.5 -100.5t-64.5 -276.5z" />
    <glyph glyph-name="zero.dnom" horiz-adv-x="847" 
d="M424 -16q-174 0 -273.5 113.5t-99.5 312t99.5 312.5t273.5 114t273.5 -114t99.5 -312.5t-99.5 -312t-273.5 -113.5zM424 23q154 0 154 387t-154 387t-154 -387t154 -387z" />
    <glyph glyph-name="one.dnom" horiz-adv-x="632" 
d="M49 735l367 103h16v-740l176 -82v-16h-547v16l177 82v578l-189 43v16z" />
    <glyph glyph-name="two.dnom" horiz-adv-x="759" 
d="M41 0v14q23 27 90.5 109t106.5 131q129 147 182 233t53 162q0 72 -35 110t-90 38q-27 0 -63 -9l-121 -256h-12l-95 234q180 70 308 70q141 0 227 -58.5t86 -159.5q0 -96 -88 -183t-297 -226l-86 -55h385l84 112h12v-266h-647z" />
    <glyph glyph-name="three.dnom" horiz-adv-x="776" 
d="M55 762q166 74 324 74q137 0 215 -53.5t78 -141.5q0 -168 -232 -203q129 -10 202 -63t73 -146q0 -115 -94.5 -180t-266.5 -65q-125 0 -303 53l84 246h12l109 -250q31 -8 78 -8q76 0 122 51t46 143q0 100 -63.5 150.5t-170.5 52.5l-2 18q94 8 149.5 58.5t55.5 140.5
q0 78 -35 118t-82 40q-39 0 -84 -11l-112 -254h-13z" />
    <glyph glyph-name="four.dnom" horiz-adv-x="745" 
d="M10 242v16q170 256 322 561h231v-16q-219 -297 -487 -522h303v163h196v-163h140v-39h-140v-150l127 -76v-16h-452v16l129 76v150h-369z" />
    <glyph glyph-name="five.dnom" horiz-adv-x="763" 
d="M55 39l90 244h15l102 -248q37 -12 68 -12q74 0 120 59t46 154q0 98 -55.5 152t-147.5 54q-84 0 -180 -45l-13 6l33 416h531l-15 -90q-4 -25 -26.5 -42t-55.5 -17h-405l-19 -217q117 55 242 55q143 0 230 -63.5t87 -184.5q0 -125 -94 -200.5t-260 -75.5q-127 0 -293 55z
" />
    <glyph glyph-name="six.dnom" horiz-adv-x="804" 
d="M469 502q123 4 207 -58.5t84 -181.5q0 -123 -94.5 -200.5t-255.5 -77.5q-168 0 -263.5 106.5t-95.5 310.5q0 215 110.5 325t282.5 110q129 0 281 -43l-94 -222h-13l-116 217q-27 8 -66 9q-174 0 -180 -371q90 76 213 76zM410 23q68 0 107.5 59t39.5 164q0 201 -170 200
q-74 0 -131 -51q2 -372 154 -372z" />
    <glyph glyph-name="seven.dnom" horiz-adv-x="698" 
d="M49 561l2 258h631v-8l-59 -125q-119 -272 -244 -686h-232v12q221 416 424 656h-440l-70 -107h-12z" />
    <glyph glyph-name="eight.dnom" horiz-adv-x="757" 
d="M530 457q100 -57 146.5 -108.5t46.5 -123.5q0 -111 -97.5 -177t-250.5 -66q-143 0 -236.5 58t-93.5 157q0 150 207 211l-10 6q-166 90 -166 217q0 90 87 146.5t218 56.5q127 0 210 -50.5t83 -132.5q0 -123 -180 -174zM375 795q-59 0 -96 -32t-37 -75q0 -70 116 -135
l97 -53q76 57 75 141q0 70 -43.5 112t-111.5 42zM383 20q78 0 122 40t44 98q0 80 -119 147l-139 80q-96 -70 -96 -180q0 -82 51 -133.5t137 -51.5z" />
    <glyph glyph-name="nine.dnom" horiz-adv-x="786" 
d="M381 836q166 0 260 -104.5t94 -309.5q0 -217 -103.5 -327.5t-271.5 -110.5q-106 0 -278 43l90 227h10l123 -223q23 -8 55 -8q82 0 124 85t44 289q-86 -72 -202 -71q-119 0 -199 61.5t-80 179.5q0 121 89 195t245 74zM250 580q0 -197 156 -197q66 0 122 47
q-2 367 -145 367q-61 0 -97 -57.5t-36 -159.5z" />
    <glyph glyph-name="zero.numr" horiz-adv-x="847" 
d="M424 598q-174 0 -273.5 113.5t-99.5 312.5t99.5 312.5t273.5 113.5t273.5 -113.5t99.5 -312.5t-99.5 -312.5t-273.5 -113.5zM424 637q154 0 154 387t-154 387t-154 -387t154 -387z" />
    <glyph glyph-name="one.numr" horiz-adv-x="632" 
d="M49 1350l367 102h16v-739l176 -82v-17h-547v17l177 82v577l-189 43v17z" />
    <glyph glyph-name="two.numr" horiz-adv-x="759" 
d="M41 614v15q23 27 90.5 108.5t106.5 130.5q129 147 182 233.5t53 162.5q0 72 -35 109.5t-90 37.5q-27 0 -63 -8l-121 -256h-12l-95 233q180 70 308 70q141 0 227 -58.5t86 -158.5q0 -96 -88 -183t-297 -227l-86 -55h385l84 113h12v-267h-647z" />
    <glyph glyph-name="three.numr" horiz-adv-x="776" 
d="M55 1376q166 74 324 74q137 0 215 -53.5t78 -141.5q0 -168 -232 -202q129 -10 202 -63.5t73 -145.5q0 -115 -94.5 -180.5t-266.5 -65.5q-125 0 -303 53l84 246h12l109 -250q31 -8 78 -8q76 0 122 51t46 144q0 100 -63.5 150t-170.5 52l-2 19q94 8 149.5 58t55.5 140
q0 78 -35 118t-82 40q-39 0 -84 -10l-112 -254h-13z" />
    <glyph glyph-name="four.numr" horiz-adv-x="745" 
d="M10 856v16q170 256 322 562h231v-17q-219 -297 -487 -522h303v164h196v-164h140v-39h-140v-149l127 -76v-17h-452v17l129 76v149h-369z" />
    <glyph glyph-name="five.numr" horiz-adv-x="763" 
d="M55 653l90 244h15l102 -248q37 -12 68 -12q74 0 120 59.5t46 153.5q0 98 -55.5 152.5t-147.5 54.5q-84 0 -180 -45l-13 6l33 416h531l-15 -91q-4 -25 -26.5 -42t-55.5 -17h-405l-19 -217q117 55 242 55q143 0 230 -63.5t87 -184.5q0 -125 -94 -200.5t-260 -75.5
q-127 0 -293 55z" />
    <glyph glyph-name="six.numr" horiz-adv-x="804" 
d="M469 1116q123 4 207 -58.5t84 -180.5q0 -123 -94.5 -201t-255.5 -78q-168 0 -263.5 106.5t-95.5 311.5q0 215 110.5 324.5t282.5 109.5q129 0 281 -43l-94 -221h-13l-116 217q-27 8 -66 8q-174 0 -180 -371q90 76 213 76zM410 637q68 0 107.5 59.5t39.5 163.5
q0 201 -170 201q-74 0 -131 -51q2 -373 154 -373z" />
    <glyph glyph-name="seven.numr" horiz-adv-x="698" 
d="M49 1176l2 258h631v-9l-59 -125q-119 -272 -244 -686h-232v13q221 416 424 655h-440l-70 -106h-12z" />
    <glyph glyph-name="eight.numr" horiz-adv-x="757" 
d="M530 1071q100 -57 146.5 -108.5t46.5 -122.5q0 -111 -97.5 -177.5t-250.5 -66.5q-143 0 -236.5 58.5t-93.5 156.5q0 150 207 211l-10 6q-166 90 -166 217q0 90 87 146.5t218 56.5q127 0 210 -50t83 -132q0 -123 -180 -174zM375 1409q-59 0 -96 -31.5t-37 -74.5
q0 -70 116 -136l97 -53q76 57 75 141q0 70 -43.5 112t-111.5 42zM383 635q78 0 122 40t44 97q0 80 -119 148l-139 79q-96 -70 -96 -180q0 -82 51 -133t137 -51z" />
    <glyph glyph-name="nine.numr" horiz-adv-x="786" 
d="M381 1450q166 0 260 -104.5t94 -309.5q0 -217 -103.5 -327.5t-271.5 -110.5q-106 0 -278 43l90 227h10l123 -223q23 -8 55 -8q82 0 124 85t44 290q-86 -72 -202 -72q-119 0 -199 61.5t-80 180.5q0 121 89 194.5t245 73.5zM250 1194q0 -197 156 -197q66 0 122 47
q-2 367 -145 367q-61 0 -97 -57.5t-36 -159.5z" />
    </font>
</defs>
</svg>
